<?xml version="1.0" encoding="UTF-8" standalone="no"?>
<!DOCTYPE svg PUBLIC "-//W3C//DTD SVG 1.0//EN" "http://www.w3.org/TR/2001/REC-SVG-20010904/DTD/svg10.dtd">
<svg xmlns="http://www.w3.org/2000/svg" width="100%" height="100%">
<defs>
<font id="movistartextbold" horiz-adv-x="557"><font-face font-family="Movistar Text" units-per-em="1000" panose-1="2 0 8 3 5 0 0 2 0 4" ascent="1000" descent="-250" alphabetic="0"/>
<missing-glyph horiz-adv-x="642" d="M86 660H556V0H86V660ZM480 612H160L321 372L480 612ZM510 90V570L350 331L510 90ZM480 49L321 288L160 49H480ZM134 90L293 331L134 570V90Z"/>
<glyph unicode=" " glyph-name="space" horiz-adv-x="225"/>
<glyph unicode="!" glyph-name="exclam" horiz-adv-x="290" d="M222 55Q222 17 204 2T149 -14H142Q106 -14 88 1T69 55V67Q69 105 87 120T142 136H149Q185 136 203 121T222 67V55ZM90 214L68 684H218L196 214H90Z"/>
<glyph unicode="&quot;" glyph-name="quotedbl" horiz-adv-x="477" d="M79 420L62 684H201L185 420H79ZM293 420L276 684H415L399 420H293Z"/>
<glyph unicode="#" glyph-name="numbersign" horiz-adv-x="596" d="M385 0H278L314 204H224L186 0H79L117 204H53V295H133L150 389H53V480H174L212 684H319L281 480H373L411 684H518L480 480H542V389H456L440 295H543V204H423L385 0ZM332 295L349 389H257L241 295H332Z"/>
<glyph unicode="$" glyph-name="dollar" horiz-adv-x="600" d="M50 497Q50 542 64 577T105 636T169 674T251 694V800H342V696Q383 694 422 688T494 670V552Q473 558 448 562T398 570T349 576T308 578Q245 578 221 557T197 504Q197 470 223 453T288 424T372 400T457 364T522 302T548 195Q548 149 533 113T491 51Q463 25 427 10T342 -11V-128H251V-13Q195 -11 151 -3T60 21V141Q105 125 159 115T267 105Q329 105 365 124T401 188Q401 221 375 238T310 268T226 292T141 327T76 390T50 497Z"/>
<glyph unicode="%" glyph-name="percent" horiz-adv-x="999" d="M378 -14H255L620 697H743L378 -14ZM408 489Q408 388 364 334T228 280Q137 280 94 334T50 489Q50 589 93 643T228 697Q319 697 363 643T408 489ZM291 489Q291 543 278 572T228 602Q191 602 179 573T166 489Q166 434 178 405T228 375Q265 375 278 404T291 489ZM949 194Q949 94 905 40T770 -14Q679 -14 635 40T591 194Q591 295 635 349T770 403Q861 403 905 349T949 194ZM833 194Q833 249 820 278T770 308Q732 308 720 279T708 194Q708 140 720 111T770 81Q807 81 820 110T833 194Z"/>
<glyph unicode="&amp;" glyph-name="ampersand" horiz-adv-x="693" d="M663 44L582 -37L492 53Q450 21 396 4T279 -14Q225 -14 180 0T104 40T55 104T37 188Q37 248 71 298T181 377Q141 421 126 457T110 532Q110 569 123 599T160 651T217 685T292 697Q372 697 419 655T466 542Q466 492 434 450T344 381L499 217Q507 228 514 244T528 279T539 316T546 348H645Q643 322 636 294T619 238T597 186T570 142L663 44ZM304 98Q369 98 419 129L236 320Q207 301 191 272T175 209Q175 161 208 130T304 98ZM228 540Q228 516 242 494T291 436Q326 465 342 488T358 539Q358 565 342 581T293 598Q263 598 246 582T228 540Z"/>
<glyph unicode="'" glyph-name="quotesingle" horiz-adv-x="263" d="M79 420L62 684H201L185 420H79Z"/>
<glyph unicode="(" glyph-name="parenleft" horiz-adv-x="359" d="M41 260Q41 415 100 541T282 748L348 673Q315 639 288 598T240 506T209 394T198 260Q198 187 209 126T240 15T287 -77T348 -152L282 -227Q160 -146 101 -21T41 260Z"/>
<glyph unicode=")" glyph-name="parenright" horiz-adv-x="359" d="M318 260Q318 105 259 -20T77 -227L11 -152Q44 -118 71 -77T119 14T150 126T161 260Q161 333 150 394T119 505T72 597T11 672L77 747Q199 666 258 541T318 260Z"/>
<glyph unicode="*" glyph-name="asterisk" horiz-adv-x="460" d="M147 289L75 349L171 466L28 506L64 594L193 538L182 684H275L267 538L396 594L432 506L289 466L385 349L313 289L230 416L147 289Z"/>
<glyph unicode="+" glyph-name="plus" horiz-adv-x="600" d="M347 277V137H253V277H113V371H253V511H347V371H487V277H347Z"/>
<glyph unicode="," glyph-name="comma" horiz-adv-x="239" d="M42 61Q42 97 60 116T115 136H122Q158 136 176 117T195 61V34Q195 8 193 -20T188 -75T181 -124T173 -159H101V-17Q68 -6 55 11T42 61Z"/>
<glyph unicode="-" glyph-name="hyphen" horiz-adv-x="334" d="M46 200V319H288V200H46Z"/>
<glyph unicode="." glyph-name="period" horiz-adv-x="239" d="M196 55Q196 17 178 2T123 -14H116Q80 -14 62 1T43 55V67Q43 105 61 120T116 136H123Q159 136 177 121T196 67V55Z"/>
<glyph unicode="/" glyph-name="slash" horiz-adv-x="480" d="M153 -14H26L327 697H454L153 -14Z"/>
<glyph unicode="0" glyph-name="zero" horiz-adv-x="600" d="M187 341Q187 270 193 224T213 150T248 112T300 101Q330 101 351 112T386 150T406 223T413 341Q413 412 407 460T387 537T352 579T300 592Q270 592 249 580T214 538T194 460T187 341ZM300 -14Q229 -14 179 8T98 75T52 186T38 341Q38 429 52 495T97 607T179 674T300 697Q371 697 421 675T502 607T548 496T562 341Q562 253 548 187T503 76T421 9T300 -14Z"/>
<glyph unicode="1" glyph-name="one" horiz-adv-x="600" d="M481 102V0H124V102H240V585H129V682Q160 687 205 690T288 694Q342 694 362 679T383 626V102H481Z"/>
<glyph unicode="2" glyph-name="two" horiz-adv-x="600" d="M512 102V0H76Q74 6 73 15T72 32Q72 64 81 87T112 137L245 299Q273 333 293 360T327 409T347 452T353 493Q353 536 326 559Q296 585 222 585Q193 585 157 582T88 572V678Q118 686 161 691T247 697Q321 697 370 681T452 633Q501 584 501 500Q501 468 494 439T469 379T423 312T355 232L236 102H512Z"/>
<glyph unicode="3" glyph-name="three" horiz-adv-x="600" d="M88 110Q118 105 152 102T225 98Q267 98 293 103T338 121Q375 146 375 200Q375 227 366 245T341 275Q322 289 292 294T208 299H189V399H213Q261 399 287 405T332 428Q344 439 351 456T359 498Q359 518 354 533T336 560Q307 586 228 586Q195 586 160 584T94 576V682Q129 690 170 693T251 697Q316 697 368 682T452 635Q474 613 486 583T499 509Q499 403 408 358Q462 338 492 297T523 189Q523 149 511 116T475 57Q407 -14 253 -14Q208 -14 166 -10T88 2V110Z"/>
<glyph unicode="4" glyph-name="four" horiz-adv-x="600" d="M44 157Q42 162 41 172T40 192Q40 213 44 238T61 296L203 684H341L187 264H345V427H488V264H568V157H488V0H345V157H44Z"/>
<glyph unicode="5" glyph-name="five" horiz-adv-x="600" d="M109 317Q105 332 104 351T104 394L116 684H490V582H239L233 428H269Q404 428 467 376T530 214Q530 160 516 118T469 46T387 2T264 -14Q219 -14 178 -10T103 2V109Q130 104 162 101T229 98Q273 98 302 105T349 127T374 162T382 208Q382 235 377 255T356 289T315 310T248 317H109Z"/>
<glyph unicode="6" glyph-name="six" horiz-adv-x="600" d="M212 403Q246 421 285 429T360 438Q452 438 502 383T553 225Q553 110 492 48T311 -14Q242 -14 195 7T118 70T75 172T62 310Q62 430 86 508T155 631Q190 666 238 681T356 697Q393 697 427 694T497 684V575Q471 580 444 582T389 585Q339 585 307 577T255 549Q232 526 223 491T212 403ZM210 282Q210 183 232 139T314 95Q411 95 411 220Q411 253 406 274T388 307T357 325T310 330Q288 330 260 328T210 320V282Z"/>
<glyph unicode="7" glyph-name="seven" horiz-adv-x="600" d="M536 643Q536 619 533 595T520 545L328 0H175L402 582H83V684H529Q533 678 534 666T536 643Z"/>
<glyph unicode="8" glyph-name="eight" horiz-adv-x="600" d="M545 188Q545 93 480 40T297 -14Q236 -14 191 0T115 39T70 98T55 171Q55 234 86 276T170 346Q120 378 99 415T78 505Q78 549 94 584T139 645T208 683T299 697Q349 697 389 685T456 650T499 595T514 524Q514 475 487 435T416 367Q486 332 515 292T545 188ZM196 183Q196 144 222 121T299 97Q350 97 376 120T403 177Q403 192 399 205T383 230T353 254T303 280L259 300Q230 274 213 245T196 183ZM384 511Q384 545 362 567T298 589Q263 589 238 571T212 518Q212 489 233 466T305 419L320 412Q349 434 366 459T384 511Z"/>
<glyph unicode="9" glyph-name="nine" horiz-adv-x="600" d="M388 280Q354 262 315 254T240 245Q148 245 98 300T47 458Q47 573 108 635T289 697Q358 697 405 676T482 613T525 511T538 373Q538 253 514 175T445 52Q410 17 362 2T244 -14Q207 -14 173 -11T103 -1V108Q129 103 156 101T211 98Q261 98 293 106T345 134Q368 157 377 192T388 280ZM390 401Q390 500 368 544T286 588Q189 588 189 463Q189 430 194 409T212 376T243 358T290 353Q312 353 340 355T390 363V401Z"/>
<glyph unicode=":" glyph-name="colon" horiz-adv-x="239" d="M196 55Q196 17 178 2T123 -14H116Q80 -14 62 1T43 55V67Q43 105 61 120T116 136H123Q159 136 177 121T196 67V55ZM196 335Q196 297 178 282T123 266H116Q80 266 62 281T43 335V347Q43 385 61 400T116 416H123Q159 416 177 401T196 347V335Z"/>
<glyph unicode=";" glyph-name="semicolon" horiz-adv-x="239" d="M196 335Q196 297 178 282T123 266H116Q80 266 62 281T43 335V347Q43 385 61 400T116 416H123Q159 416 177 401T196 347V335ZM43 61Q43 97 61 116T116 136H123Q159 136 177 117T196 61V34Q196 8 194 -20T189 -75T182 -124T174 -159H102V-17Q69 -6 56 11T43 61Z"/>
<glyph unicode="&lt;" glyph-name="less" horiz-adv-x="600" d="M113 278V370L487 555V449L218 325L487 205V93L113 278Z"/>
<glyph unicode="=" glyph-name="equal" horiz-adv-x="600" d="M113 373V467H487V373H113ZM487 275V181H113V275H487Z"/>
<glyph unicode="&gt;" glyph-name="greater" horiz-adv-x="600" d="M113 93V205L382 325L113 449V555L487 370V278L113 93Z"/>
<glyph unicode="?" glyph-name="question" horiz-adv-x="435" d="M146 215Q144 223 144 230T143 246Q143 264 149 282T165 318T186 352T208 384Q228 411 242 438T257 501Q257 539 237 559Q226 570 207 575T159 581Q135 581 107 576T55 563L36 667Q69 680 113 688T195 697Q303 697 356 651T409 519Q409 481 399 453T372 402T336 358T298 317T266 271T245 215H146ZM273 55Q273 17 255 2T200 -14H193Q157 -14 139 1T120 55V67Q120 105 138 120T193 136H200Q236 136 254 121T273 67V55Z"/>
<glyph unicode="@" glyph-name="at" horiz-adv-x="790" d="M363 149Q308 149 276 180T243 265Q243 328 278 358T398 388H455V392Q455 424 438 433T386 443Q358 443 331 440T284 432L279 516Q307 522 341 526T408 531Q491 531 526 489Q553 457 553 393V234Q558 232 563 232T574 231Q616 231 634 262T653 354Q653 472 591 537T405 603Q283 603 215 536T147 344Q147 279 164 228T220 143Q257 109 313 92T455 75Q535 75 613 90L618 4Q580 -4 535 -9T433 -14Q333 -14 264 7T146 71Q95 116 67 182T38 339Q38 420 63 486T135 599T251 671T407 697Q491 697 555 672T663 604T729 501T752 374Q752 326 742 285T709 213T651 165T566 147Q532 147 509 156T470 184H468Q449 169 420 159T363 149ZM455 313H401Q369 313 357 304T345 272Q345 234 395 234Q424 234 455 245V313Z"/>
<glyph unicode="A" glyph-name="A" horiz-adv-x="658" d="M429 172H207L154 0H5L234 684H406L653 0H486L429 172ZM243 285H391L316 513H314L243 285Z"/>
<glyph unicode="B" glyph-name="B" horiz-adv-x="631" d="M74 0V684H297Q370 684 417 672T494 633Q542 591 542 516Q542 463 518 427T446 367Q510 358 550 315T591 203Q591 153 577 117T534 56Q501 27 449 14T317 0H74ZM230 113H294Q338 113 365 118T407 138Q429 160 429 200Q429 254 403 276Q387 290 362 294T294 299H230V113ZM230 412H283Q315 412 334 416T367 433Q387 453 387 494Q387 532 368 551Q357 562 338 566T287 571H230V412Z"/>
<glyph unicode="C" glyph-name="C" horiz-adv-x="589" d="M207 343Q207 282 218 234T256 156Q279 130 313 119T406 107Q431 107 466 111T532 121L548 7Q533 2 512 -1T468 -8T421 -12T376 -14Q285 -14 226 7T128 69Q84 116 65 182T45 339Q45 419 64 485T123 598T225 671T376 697Q398 697 422 695T471 688T516 679T555 666L535 552Q495 563 458 569T388 576Q333 576 298 559T243 511T215 437T207 343Z"/>
<glyph unicode="D" glyph-name="D" horiz-adv-x="686" d="M74 0V684H285Q383 684 449 667T558 607Q600 566 620 502T641 345Q641 251 621 186T558 77Q520 38 459 19T306 0H74ZM230 114H296Q402 114 443 175Q463 205 471 243T479 345Q479 382 476 409T467 458T452 495T431 525Q408 550 372 560T278 570H230V114Z"/>
<glyph unicode="E" glyph-name="E" horiz-adv-x="583" d="M230 113H541V0H74V684H536L524 571H230V405H465V288H230V113Z"/>
<glyph unicode="F" glyph-name="F" horiz-adv-x="553" d="M525 684L513 571H230V405H454V288H230V0H74V684H525Z"/>
<glyph unicode="G" glyph-name="G" horiz-adv-x="671" d="M564 550Q527 561 485 568T402 575Q298 575 253 516T207 344Q207 286 215 240T247 162Q266 136 297 122T379 107Q398 107 421 109T462 114V258H366V370H617V21Q593 13 562 7T499 -4T434 -11T373 -14Q281 -14 219 10T118 80T62 191T45 338Q45 418 66 484T131 597T239 671T391 697Q416 697 443 695T496 688T544 677T584 664L564 550V550Z"/>
<glyph unicode="H" glyph-name="H" horiz-adv-x="701" d="M471 405V684H627V0H471V288H230V0H74V684H230V405H471Z"/>
<glyph unicode="I" glyph-name="I" horiz-adv-x="308" d="M76 684H232V0H76V684Z"/>
<glyph unicode="J" glyph-name="J" horiz-adv-x="414" d="M20 114Q43 109 66 108T101 106Q126 106 142 110T169 124T183 153T188 200V684H344V196Q344 132 333 94T295 30Q250 -14 137 -14Q124 -14 113 -14T89 -12T63 -10T31 -5L20 114Z"/>
<glyph unicode="K" glyph-name="K" horiz-adv-x="652" d="M644 0H459L294 291L230 218V0H74V684H230V398L459 684H637L395 407L644 0Z"/>
<glyph unicode="L" glyph-name="L" horiz-adv-x="551" d="M74 0V684H230V113H533V0H74Z"/>
<glyph unicode="M" glyph-name="M" horiz-adv-x="830" d="M413 302L636 684H756V0H613V394L471 156H351L205 398V0H74V684H197L413 302Z"/>
<glyph unicode="N" glyph-name="N" horiz-adv-x="724" d="M74 684H189L513 246V684H650V0H525L211 415V0H74V684Z"/>
<glyph unicode="O" glyph-name="O" horiz-adv-x="696" d="M651 341Q651 168 578 77T348 -14Q191 -14 118 77T45 341Q45 514 118 605T348 697Q505 697 578 606T651 341ZM489 341Q489 465 457 520T348 575Q272 575 240 520T207 341Q207 217 239 163T348 108Q424 108 456 162T489 341Z"/>
<glyph unicode="P" glyph-name="P" horiz-adv-x="619" d="M230 353H307Q345 353 364 359T398 379Q425 406 425 466Q425 522 399 547Q385 560 362 565T303 571H230V353ZM230 0H74V684H309Q390 684 442 672T528 628Q583 577 583 468Q583 359 532 302Q473 236 340 236H230V0Z"/>
<glyph unicode="Q" glyph-name="Q" horiz-adv-x="698" d="M651 341Q651 236 625 163T545 45Q604 44 643 39T716 20Q713 7 707 -12T693 -52T677 -90T662 -117L459 -31Q446 -25 437 -22T417 -17T394 -15T361 -14H348Q191 -14 118 77T45 341Q45 514 118 605T348 697Q505 697 578 606T651 341ZM489 341Q489 465 457 520T348 575Q272 575 240 520T207 341Q207 217 239 163T348 108Q424 108 456 162T489 341Z"/>
<glyph unicode="R" glyph-name="R" horiz-adv-x="648" d="M230 0H74V684H309Q392 684 443 673T529 629Q555 604 570 565T586 472Q586 402 557 349T470 269L618 0H442L316 248H230V0ZM230 361H299Q338 361 361 366T399 385Q414 398 421 419T428 470Q428 522 404 546Q389 560 364 565T300 571H230V361Z"/>
<glyph unicode="S" glyph-name="S" horiz-adv-x="590" d="M48 497Q48 549 67 587T121 649T201 685T303 697Q353 697 403 690T494 669L470 553Q428 564 385 570T306 577Q243 577 219 557T195 504Q195 470 221 453T285 424T369 400T453 364T518 302T544 195Q544 149 529 113T487 51Q451 17 401 2T276 -14Q210 -14 156 -6T49 21L73 140Q95 132 120 126T171 116T219 109T262 106Q331 106 364 125T397 193Q397 225 371 241T307 269T223 292T139 327T74 390T48 497Z"/>
<glyph unicode="T" glyph-name="T" horiz-adv-x="608" d="M14 571V684H601L589 571H382V0H226V571H14Z"/>
<glyph unicode="U" glyph-name="U" horiz-adv-x="694" d="M488 684H626V258Q626 192 612 141T559 54Q525 22 470 4T349 -14Q277 -14 223 2T134 52Q100 85 84 131T68 251V684H223V251Q223 212 230 184T256 138Q287 105 356 105Q424 105 455 137Q473 155 480 182T488 250V684Z"/>
<glyph unicode="V" glyph-name="V" horiz-adv-x="652" d="M179 684L339 188L488 684H640L413 0H250L12 684H179Z"/>
<glyph unicode="W" glyph-name="W" horiz-adv-x="963" d="M688 191L810 684H951L766 0H596L484 399L381 0H212L12 684H177L304 190L427 684H554L688 191Z"/>
<glyph unicode="X" glyph-name="X" horiz-adv-x="635" d="M14 0L241 341L32 684H195L331 458L455 684H621L397 349L615 0H442L306 232L183 0H14Z"/>
<glyph unicode="Y" glyph-name="Y" horiz-adv-x="662" d="M12 684H188L338 408L494 684H650L404 278V0H248V279L12 684Z"/>
<glyph unicode="Z" glyph-name="Z" horiz-adv-x="596" d="M34 0V92L366 569H44V684H558V588L231 115H560V0H34Z"/>
<glyph unicode="[" glyph-name="bracketleft" horiz-adv-x="372" d="M97 -207V727H350V627H244V-107H350V-207H97Z"/>
<glyph unicode="\" glyph-name="backslash" horiz-adv-x="480" d="M26 697H153L454 -14H327L26 697Z"/>
<glyph unicode="]" glyph-name="bracketright" horiz-adv-x="372" d="M22 -207V-107H128V627H22V727H275V-207H22Z"/>
<glyph unicode="^" glyph-name="asciicircum" horiz-adv-x="600" d="M397 379L300 578L200 379H85L260 685H339L515 379H397Z"/>
<glyph unicode="_" glyph-name="underscore" horiz-adv-x="430" d="M0 -125V-28H430V-125H0Z"/>
<glyph unicode="`" glyph-name="grave" horiz-adv-x="428" d="M290 559L87 696L157 791L340 621L290 559Z"/>
<glyph unicode="a" glyph-name="a" horiz-adv-x="531" d="M331 211H255Q229 211 213 208T187 194Q173 180 173 153Q173 126 188 111T243 95Q263 95 288 100T331 110V211ZM349 30Q317 10 279 -2T202 -14Q118 -14 74 31T30 147Q30 180 41 209T73 258Q99 283 141 293T253 303H331V319Q331 357 313 374Q300 385 280 389T230 394Q195 394 157 390T93 381L86 486Q124 494 169 499T260 504Q317 504 363 491T436 448Q474 404 474 318V0H361L349 30Z"/>
<glyph unicode="b" glyph-name="b" horiz-adv-x="560" d="M203 471Q229 486 266 495T338 504Q380 504 414 491T473 447T511 367T525 247Q525 181 511 128T470 43Q420 -14 331 -14Q293 -14 255 -2T185 31L178 0H60V715H203V471ZM203 122Q220 112 243 105T288 98Q312 98 329 105T356 130T370 175T375 245Q375 289 370 317T354 361T327 383T288 389Q265 389 243 386T203 376V122Z"/>
<glyph unicode="c" glyph-name="c" horiz-adv-x="463" d="M303 -14Q271 -14 239 -10T177 5T121 35T75 84Q55 115 45 154T35 234Q35 296 50 345T98 431Q131 466 182 485T294 504Q328 504 365 500T438 486L429 380Q406 386 377 390T316 394Q250 394 217 359Q199 339 192 311T184 245Q184 169 217 132T328 95Q352 95 379 97T430 105L441 2Q405 -6 375 -10T303 -14Z"/>
<glyph unicode="d" glyph-name="d" horiz-adv-x="562" d="M35 244Q35 305 49 353T88 435T149 486T229 504Q261 504 295 495T359 468V715H502V0H378L375 35Q343 14 304 0T220 -14Q147 -14 103 28Q68 62 52 117T35 244ZM359 380Q342 385 324 388T291 391Q266 391 246 384T213 360T192 313T185 240Q185 199 190 172T205 129T233 105T274 98Q291 98 315 102T359 115V380Z"/>
<glyph unicode="e" glyph-name="e" horiz-adv-x="528" d="M185 201Q188 139 226 117T336 95Q362 95 396 98T458 107L469 3Q434 -4 392 -9T304 -14Q235 -14 184 2T101 49Q64 84 50 134T35 244Q35 374 97 439T273 504Q384 504 441 445T498 257V212Q498 201 486 201H185ZM358 294Q358 341 337 368T272 396Q228 396 208 369T185 294H358Z"/>
<glyph unicode="f" glyph-name="f" horiz-adv-x="359" d="M357 490V397H241V0H98V397H14V474L98 489V557Q98 602 107 633T139 687Q159 708 196 720T285 732Q313 732 338 729T389 721V619Q374 621 356 623T322 625Q273 625 255 607Q248 600 245 588T241 549V490H357Z"/>
<glyph unicode="g" glyph-name="g" horiz-adv-x="541" d="M271 127Q254 127 238 128T207 131Q200 119 197 108T194 92Q194 79 208 79H304Q375 79 419 67T489 27Q507 8 516 -17T525 -77Q525 -154 467 -196T276 -239H268Q141 -239 84 -208T27 -110Q27 -80 43 -58T85 -21Q60 0 60 43Q60 74 77 105T125 162Q90 185 70 222T50 316Q50 414 108 459T271 504Q295 504 319 501L367 623Q396 616 426 603T478 573L407 474Q446 452 468 414T491 316Q491 217 433 172T271 127ZM362 316Q362 358 341 380T271 402Q221 402 200 380T179 316Q179 273 200 251T271 229Q320 229 341 251T362 316ZM168 -40Q160 -49 157 -58T154 -77Q154 -104 179 -117T272 -131H287Q397 -131 397 -83Q397 -59 379 -50T311 -40H168Z"/>
<glyph unicode="h" glyph-name="h" horiz-adv-x="573" d="M203 715V464Q241 485 281 494T356 504Q388 504 421 495T474 466Q497 444 506 412T516 337V0H373V320Q373 339 370 350T358 369Q348 378 333 381T296 385Q276 385 248 381T203 369V0H60V715H203Z"/>
<glyph unicode="i" glyph-name="i" horiz-adv-x="269" d="M206 0H63V490H206V0ZM213 640Q213 603 194 588T138 572H131Q94 572 75 587T56 640V653Q56 690 75 706T131 722H138Q175 722 194 706T213 653V640Z"/>
<glyph unicode="j" glyph-name="j" horiz-adv-x="269" d="M-89 -128Q-79 -129 -67 -129T-43 -130Q-17 -130 6 -124T40 -107Q54 -94 58 -74T63 -28V490H206V23Q206 -42 196 -90T159 -171T90 -220T-21 -237Q-35 -237 -48 -237T-75 -235L-89 -128ZM213 640Q213 603 194 588T138 572H131Q94 572 75 587T56 640V653Q56 690 75 706T131 722H138Q175 722 194 706T213 653V640Z"/>
<glyph unicode="k" glyph-name="k" horiz-adv-x="544" d="M60 0V715H203V303L356 490H520L347 294L538 0H377L254 195L203 131V0H60Z"/>
<glyph unicode="l" glyph-name="l" horiz-adv-x="269" d="M206 715V0H63V715H206Z"/>
<glyph unicode="m" glyph-name="m" horiz-adv-x="864" d="M184 490L187 455Q227 481 267 492T346 504Q391 504 424 491T476 452Q518 480 562 492T647 504Q679 504 712 495T765 466Q788 444 797 412T807 337V0H664V320Q664 339 661 350T649 369Q639 378 624 381T587 385Q569 385 546 381T504 372Q505 364 505 355T506 337V0H363V320Q363 339 360 350T348 369Q338 378 323 381T288 385Q269 385 245 381T203 369V0H60V490H184Z"/>
<glyph unicode="n" glyph-name="n" horiz-adv-x="573" d="M184 490L187 455Q228 481 272 492T356 504Q388 504 421 495T474 466Q497 444 506 412T516 337V0H373V320Q373 339 370 350T358 369Q348 378 333 381T296 385Q276 385 248 381T203 369V0H60V490H184Z"/>
<glyph unicode="o" glyph-name="o" horiz-adv-x="568" d="M533 245Q533 186 518 138T472 57T395 5T284 -14Q220 -14 173 4T96 56T50 138T35 245Q35 304 50 352T95 433T173 485T284 504Q348 504 394 486T472 434T518 352T533 245ZM384 245Q384 321 361 358T284 395Q230 395 207 358T184 245Q184 169 207 132T284 95Q338 95 361 132T384 245Z"/>
<glyph unicode="p" glyph-name="p" horiz-adv-x="560" d="M60 -225V490H184L188 454Q220 475 258 489T342 504Q415 504 459 462Q494 428 509 373T525 248Q525 176 511 126T472 45T411 0T334 -14Q301 -14 266 -5T203 22V-225H60ZM203 113Q220 105 244 102T292 99Q314 99 330 106T356 130T370 176T375 250Q375 289 371 315T356 358T329 381T288 388Q271 388 246 384T203 375V113Z"/>
<glyph unicode="q" glyph-name="q" horiz-adv-x="561" d="M358 19Q332 5 296 -4T224 -14Q182 -14 148 -1T88 42T49 121T35 243Q35 309 51 361T97 447Q122 474 157 489T235 504Q273 504 309 492T376 459L383 490H501V-216L358 -234V19ZM358 376Q341 382 319 386T282 390Q226 390 206 353T185 243Q185 199 190 171T207 127T235 104T275 98Q298 98 319 102T358 114V376Z"/>
<glyph unicode="r" glyph-name="r" horiz-adv-x="380" d="M184 490L189 450Q203 463 221 473T260 489T301 499T339 503Q345 503 352 503T364 501V376Q352 378 335 379T301 380Q272 380 249 377T203 368V0H60V490H184Z"/>
<glyph unicode="s" glyph-name="s" horiz-adv-x="475" d="M250 504Q287 504 330 498T413 477L402 372Q364 383 323 388T251 394Q172 394 172 354Q172 333 192 324T241 309T306 296T370 273T420 227T440 147Q440 70 385 28T219 -14Q197 -14 173 -12T126 -6T83 3T47 13L58 119Q86 110 131 103T216 96Q257 96 280 105T304 141Q304 163 284 172T235 188T171 200T107 221T57 266T37 346Q37 380 49 409T88 459T155 492T250 504Z"/>
<glyph unicode="t" glyph-name="t" horiz-adv-x="401" d="M8 475L91 490V599Q123 609 161 614T234 620V490H361V397H234V168Q234 147 236 133T246 110T267 97T303 93Q318 93 338 95T372 99L377 -2Q353 -7 319 -10T252 -14Q206 -14 175 -4T126 26T99 77T91 148V397H8V475Z"/>
<glyph unicode="u" glyph-name="u" horiz-adv-x="569" d="M385 0L381 33Q341 8 298 -3T217 -14Q185 -14 152 -5T99 24Q76 46 67 78T57 153V490H200V173Q200 136 215 121Q225 112 240 109T277 105Q296 105 322 109T366 119V490H509V0H385Z"/>
<glyph unicode="v" glyph-name="v" horiz-adv-x="530" d="M10 490H164L273 150L377 490H520L351 0H185L10 490Z"/>
<glyph unicode="w" glyph-name="w" horiz-adv-x="791" d="M396 260L319 0H154L10 490H161L248 141L335 490H464L558 141L640 490H781L640 0H474L396 260Z"/>
<glyph unicode="x" glyph-name="x" horiz-adv-x="532" d="M279 342L359 490H515L346 248L522 0H355L253 147L172 0H13L187 241L10 490H173L279 342Z"/>
<glyph unicode="y" glyph-name="y" horiz-adv-x="571" d="M214 -9Q182 -9 151 0T100 29Q78 51 68 80T57 153V490H200V173Q200 154 203 143T215 124Q225 115 239 112T276 108Q296 108 323 113T368 126V490H511V21Q511 -44 501 -92T464 -173T395 -222T284 -239Q248 -239 218 -236T159 -226L149 -120Q174 -125 199 -128T261 -131Q287 -131 310 -125T344 -108Q358 -95 363 -75T368 -29V31Q332 11 292 1T214 -9Z"/>
<glyph unicode="z" glyph-name="z" horiz-adv-x="442" d="M18 0V81L246 399H24V490H414V407L187 91H426V0H18Z"/>
<glyph unicode="{" glyph-name="braceleft" horiz-adv-x="393" d="M289 -51Q289 -86 301 -96T348 -107H359V-207H299Q215 -207 179 -168T142 -39V103Q142 160 114 181T26 209V313Q86 319 114 340T142 419V559Q142 649 178 688T299 727H359V627H348Q313 627 301 617T289 571V418Q289 355 264 318T182 261Q239 241 264 204T289 104V-51Z"/>
<glyph unicode="|" glyph-name="bar" horiz-adv-x="252" d="M64 -253V743H188V-253H64Z"/>
<glyph unicode="}" glyph-name="braceright" horiz-adv-x="393" d="M104 104Q104 167 129 204T211 261Q154 281 129 318T104 418V571Q104 606 92 616T45 627H34V727H94Q178 727 214 688T251 559V419Q251 362 279 341T367 313V209Q307 203 279 182T251 103V-39Q251 -129 215 -168T94 -207H34V-107H45Q80 -107 92 -97T104 -51V104Z"/>
<glyph unicode="~" glyph-name="asciitilde" horiz-adv-x="600" d="M520 438Q520 359 487 326T394 293Q368 293 344 301T297 318T254 335T214 343Q176 343 164 287L80 300Q80 377 113 410T206 443Q231 443 255 436T303 419T347 402T386 394Q406 394 418 408T436 449L520 438Z"/>
<glyph unicode=" " glyph-name="nbspace" horiz-adv-x="225"/>
<glyph unicode="¡" glyph-name="exclamdown" horiz-adv-x="290" d="M68 435Q68 473 86 488T141 504H148Q184 504 202 489T221 435V423Q221 385 203 370T148 354H141Q105 354 87 369T68 423V435ZM200 276L222 -194H72L94 276H200Z"/>
<glyph unicode="¢" glyph-name="cent" horiz-adv-x="600" d="M293 -10Q244 -3 200 18T127 84Q107 115 97 154T87 234Q87 296 102 345T150 431Q202 486 293 500V618H384V503Q410 501 437 498T490 487V378Q461 385 429 389T368 394Q302 394 269 359Q251 339 244 311T236 245Q236 169 269 132T380 94Q406 94 437 97T493 105V2Q464 -5 439 -8T384 -13V-128H293V-10Z"/>
<glyph unicode="£" glyph-name="sterling" horiz-adv-x="600" d="M439 320H295Q297 303 298 288T299 258Q299 219 284 179T232 104H558V0H96Q94 10 93 27T91 57Q91 88 101 110T124 153T146 197T157 253Q157 270 155 286T151 320H55V403L138 408Q132 448 132 495Q132 542 144 576T180 636Q210 668 261 682T379 697Q414 697 456 692T535 679V571Q501 577 467 581T400 585Q366 585 341 580T301 560Q277 539 277 489Q277 469 278 449T282 409H439V320Z"/>
<glyph unicode="¤" glyph-name="currency" horiz-adv-x="600" d="M503 341Q503 282 479 239L549 170L477 97L403 172Q359 151 300 151Q240 151 197 172L123 97L51 170L121 239Q97 282 97 341Q97 399 121 443L51 512L123 585L197 510Q240 531 300 531Q359 531 403 510L477 585L549 512L479 443Q503 399 503 341ZM374 341Q374 386 355 408T300 430Q265 430 246 408T226 341Q226 296 245 274T300 252Q335 252 354 274T374 341Z"/>
<glyph unicode="¥" glyph-name="yen" horiz-adv-x="600" d="M222 219V257H96V339H190L6 684H174L304 408L440 684H594L405 339H497V257H371V219H497V137H371V0H222V137H96V219H222Z"/>
<glyph unicode="¦" glyph-name="brokenbar" horiz-adv-x="252" d="M64 357V743H188V357H64ZM64 -253V133H188V-253H64Z"/>
<glyph unicode="§" glyph-name="section" horiz-adv-x="599" d="M229 387Q216 375 216 356Q216 336 229 325T284 307L367 293Q383 303 383 326Q383 346 368 356T320 372L229 387ZM284 87Q338 87 359 97T381 132Q381 153 367 163T320 178L233 193Q149 206 118 243T86 342Q86 372 95 396T119 437Q86 474 86 536Q86 572 98 598T130 645Q159 673 206 685T308 697Q349 697 389 691T463 673L443 576Q408 585 371 590T308 596Q255 596 237 585T218 550Q218 530 230 519T284 500L369 486Q444 474 478 441T513 340Q513 311 504 287T479 244Q495 226 504 202T513 146Q513 70 459 28T295 -14Q191 -14 108 15L128 115Q166 101 209 94T284 87Z"/>
<glyph unicode="¨" glyph-name="dieresis" horiz-adv-x="428" d="M180 654Q180 620 163 605T112 590H106Q72 590 56 605T39 654V665Q39 700 55 714T106 729H112Q145 729 162 715T180 665V654ZM388 654Q388 620 372 605T321 590H315Q283 590 265 605T247 654V665Q247 700 265 714T315 729H321Q355 729 371 715T388 665V654Z"/>
<glyph unicode="©" glyph-name="copyright" horiz-adv-x="790" d="M747 342Q747 256 721 190T647 78T536 10T395 -14Q319 -14 255 9T143 78T70 189T43 342Q43 428 69 494T143 606T254 674T395 697Q471 697 535 674T647 606T720 495T747 342ZM645 342Q645 470 582 539T395 608Q272 608 209 539T145 342Q145 214 208 145T395 75Q518 75 581 144T645 342ZM424 234Q436 234 454 235T488 239L495 177Q480 173 457 171T415 168Q367 168 338 178T288 210Q247 254 247 344Q247 383 256 416T285 472T338 508T415 521Q434 521 458 517T499 504L489 444Q469 449 450 452T417 455Q373 455 354 432T335 344Q335 278 358 254Q369 243 383 239T424 234Z"/>
<glyph unicode="ª" glyph-name="ordfeminine" horiz-adv-x="414" d="M252 491H199Q171 491 161 484T150 457Q150 440 160 431T196 421Q207 421 223 423T252 428V491ZM50 452Q50 511 86 536T201 562H252V573Q252 599 239 608T185 617Q159 617 133 615T90 608L85 686Q111 691 144 694T208 698Q292 698 324 667Q354 638 354 577V349H273L264 369Q243 355 218 348T168 340Q117 340 84 369T50 452Z"/>
<glyph unicode="«" glyph-name="guillemotleft" horiz-adv-x="569" d="M45 261Q45 280 54 294T81 328L229 489L287 433L171 261L287 89L229 33L81 194Q63 213 54 227T45 261ZM273 261Q273 280 282 294T309 328L457 489L515 433L399 261L515 89L457 33L309 194Q291 213 282 227T273 261Z"/>
<glyph unicode="¬" glyph-name="logicalnot" horiz-adv-x="600" d="M394 373H114V467H488V181H394V373Z"/>
<glyph unicode="­" glyph-name="uni00AD" horiz-adv-x="334" d="M46 200V319H288V200H46Z"/>
<glyph unicode="®" glyph-name="registered" horiz-adv-x="790" d="M364 176H281V517H396Q465 517 499 495T534 410Q534 375 521 350T478 312L551 176H458L396 297H364V176ZM364 356H398Q426 356 438 368T450 407Q450 438 437 447T395 457H364V356ZM747 342Q747 256 721 190T647 78T536 10T395 -14Q319 -14 255 9T143 78T70 189T43 342Q43 428 69 494T143 606T254 674T395 697Q471 697 535 674T647 606T720 495T747 342ZM645 342Q645 470 582 539T395 608Q272 608 209 539T145 342Q145 214 208 145T395 75Q518 75 581 144T645 342Z"/>
<glyph unicode="¯" glyph-name="macron" horiz-adv-x="428" d="M66 605V703H361V605H66Z"/>
<glyph unicode="°" glyph-name="degree" horiz-adv-x="535" d="M463 507Q463 465 451 431T414 371T353 331T268 317Q220 317 184 331T123 370T86 430T73 507Q73 549 85 583T122 643T183 683T268 697Q316 697 352 683T413 644T450 584T463 507ZM346 507Q346 551 327 576T268 601Q229 601 210 576T190 507Q190 463 209 438T268 413Q307 413 326 438T346 507Z"/>
<glyph unicode="±" glyph-name="plusminus" horiz-adv-x="600" d="M347 330V190H253V330H113V424H253V564H347V424H487V330H347ZM113 0V94H487V0H113Z"/>
<glyph unicode="²" glyph-name="twosuperior" horiz-adv-x="500" d="M390 424V344H102Q100 351 99 363T98 381Q98 403 106 419T136 459L203 532Q234 565 249 586T265 627Q265 647 250 655T203 663Q185 663 165 662T121 656V741Q144 746 175 748T233 751Q302 751 340 724T378 643Q378 624 373 607T357 571T326 530T278 480L222 424H390Z"/>
<glyph unicode="³" glyph-name="threesuperior" horiz-adv-x="500" d="M217 343Q192 343 167 345T120 353V433Q136 430 156 429T197 427Q242 427 259 437T277 474Q277 499 261 507T206 516H181V589H209Q238 589 253 598T269 628Q269 648 254 657T201 667Q184 667 162 666T125 662V741Q139 745 167 748T225 751Q297 751 338 725T380 645Q380 615 368 592T326 555Q358 546 375 524T392 464Q392 405 347 374T217 343Z"/>
<glyph unicode="´" glyph-name="acute" horiz-adv-x="428" d="M87 621L270 791L340 696L137 559L87 621Z"/>
<glyph unicode="µ" glyph-name="mu" horiz-adv-x="572" d="M199 -225H60V490H203V174Q203 137 218 122Q228 113 243 110T280 106Q299 106 325 110T369 120V490H512V0H388L384 33Q344 8 301 -2T220 -13H213Q210 -13 207 -13T199 -12V-225Z"/>
<glyph unicode="¶" glyph-name="paragraph" horiz-adv-x="653" d="M234 322Q149 322 98 368T47 503Q47 547 61 581T99 638T158 672T234 684H603V585H535V-203H422V585H346V-203H234V322Z"/>
<glyph unicode="·" glyph-name="periodcentered" horiz-adv-x="239" d="M196 335Q196 297 178 282T123 266H116Q80 266 62 281T43 335V347Q43 385 61 400T116 416H123Q159 416 177 401T196 347V335Z"/>
<glyph unicode="¸" glyph-name="cedilla" horiz-adv-x="428" d="M236 -49Q284 -67 301 -86T318 -140Q318 -188 291 -218Q277 -235 252 -243T199 -252Q149 -252 110 -238V-163Q127 -168 146 -170T179 -173Q223 -173 223 -150Q223 -141 214 -133T167 -113Q138 -104 125 -91T112 -53Q112 -40 118 -23T133 5H204Q202 0 201 -8T199 -21Q199 -29 205 -34T236 -49Z"/>
<glyph unicode="¹" glyph-name="onesuperior" horiz-adv-x="500" d="M372 428V348H136V428H208V667H140V746Q151 747 166 748T198 750T229 751T254 752Q290 752 303 741T316 703V428H372Z"/>
<glyph unicode="º" glyph-name="ordmasculine" horiz-adv-x="420" d="M146 519Q146 466 162 445T210 423Q241 423 257 444T274 519Q274 572 258 593T210 615Q179 615 163 594T146 519ZM38 519Q38 601 79 649T210 698Q299 698 340 650T382 519Q382 437 341 389T210 340Q121 340 80 388T38 519Z"/>
<glyph unicode="»" glyph-name="guillemotright" horiz-adv-x="569" d="M296 261Q296 242 287 228T260 194L112 33L54 89L170 261L54 433L112 489L260 328Q278 309 287 295T296 261ZM524 261Q524 242 515 228T488 194L340 33L282 89L398 261L282 433L340 489L488 328Q506 309 515 295T524 261Z"/>
<glyph unicode="¼" glyph-name="onequarter" horiz-adv-x="999" d="M597 86Q595 91 594 98T593 114Q593 129 596 142T607 180L681 401H794L715 170H787V258H886V170H921V86H886V0H787V86H597ZM368 -14H245L610 697H733L368 -14ZM326 365V285H92V365H164V604H96V683Q107 684 122 685T154 687T185 688T210 689Q246 689 259 678T272 640V365H326Z"/>
<glyph unicode="½" glyph-name="onehalf" horiz-adv-x="999" d="M368 -14H245L610 697H733L368 -14ZM326 365V285H92V365H164V604H96V683Q107 684 122 685T154 687T185 688T210 689Q246 689 259 678T272 640V365H326ZM917 80V0H629Q627 7 626 19T625 37Q625 59 633 75T663 115L730 188Q761 221 776 242T792 283Q792 303 777 311T730 319Q712 319 692 318T648 312V397Q671 402 702 404T760 407Q829 407 867 380T905 299Q905 280 900 263T884 227T853 186T805 136L749 80H917Z"/>
<glyph unicode="¾" glyph-name="threequarters" horiz-adv-x="999" d="M387 -14H264L629 697H752L387 -14ZM605 86Q603 91 602 98T601 114Q601 129 604 142T615 180L689 401H802L723 170H795V258H894V170H929V86H894V0H795V86H605ZM205 289Q180 289 155 291T108 299V379Q124 376 144 375T185 373Q230 373 247 383T265 420Q265 445 249 453T194 462H169V535H197Q226 535 241 544T257 574Q257 594 242 603T189 613Q172 613 150 612T113 608V687Q127 691 155 694T213 697Q285 697 326 671T368 591Q368 561 356 538T314 501Q346 492 363 470T380 410Q380 351 335 320T205 289Z"/>
<glyph unicode="¿" glyph-name="questiondown" horiz-adv-x="434" d="M288 275Q290 267 290 260T291 244Q291 226 285 208T269 172T248 138T226 106Q206 79 192 52T177 -11Q177 -49 197 -69Q208 -80 227 -85T275 -91Q299 -91 327 -86T379 -73L398 -177Q365 -190 321 -198T239 -207Q131 -207 78 -161T25 -29Q25 9 35 37T62 88T98 132T136 173T168 219T189 275H288ZM161 435Q161 473 179 488T234 504H241Q277 504 295 489T314 435V423Q314 385 296 370T241 354H234Q198 354 180 369T161 423V435Z"/>
<glyph unicode="À" glyph-name="Agrave" horiz-adv-x="658" d="M429 172H207L154 0H5L234 684H406L653 0H486L429 172ZM243 285H391L316 513H314L243 285ZM405 759L202 896L272 991L455 821L405 759Z"/>
<glyph unicode="Á" glyph-name="Aacute" horiz-adv-x="658" d="M429 172H207L154 0H5L234 684H406L653 0H486L429 172ZM243 285H391L316 513H314L243 285ZM202 821L385 991L455 896L252 759L202 821Z"/>
<glyph unicode="Â" glyph-name="Acircumflex" horiz-adv-x="658" d="M429 172H207L154 0H5L234 684H406L653 0H486L429 172ZM243 285H391L316 513H314L243 285ZM502 813L452 762L329 860L206 762L156 813L281 957H377L502 813Z"/>
<glyph unicode="Ã" glyph-name="Atilde" horiz-adv-x="658" d="M429 172H207L154 0H5L234 684H406L653 0H486L429 172ZM243 285H391L316 513H314L243 285ZM512 933Q512 867 484 832T406 796Q384 796 364 802T326 817T292 831T259 838Q226 838 217 792L146 803Q146 869 174 904T252 940Q274 940 294 934T332 919T367 905T399 898Q432 898 441 944L512 933Z"/>
<glyph unicode="Ä" glyph-name="Adieresis" horiz-adv-x="658" d="M429 172H207L154 0H5L234 684H406L653 0H486L429 172ZM243 285H391L316 513H314L243 285ZM295 854Q295 820 278 805T227 790H221Q187 790 171 805T154 854V865Q154 900 170 914T221 929H227Q260 929 277 915T295 865V854ZM503 854Q503 820 487 805T436 790H430Q398 790 380 805T362 854V865Q362 900 380 914T430 929H436Q470 929 486 915T503 865V854Z"/>
<glyph unicode="Å" glyph-name="Aring" horiz-adv-x="658" d="M429 172H207L154 0H5L234 684H406L653 0H486L429 172ZM243 285H391L316 513H314L243 285ZM318 832Q344 832 356 843T369 884V888Q369 918 357 928T318 939H315Q288 939 275 929T262 888V884Q262 855 275 844T315 832H318ZM320 1005Q378 1005 409 980T440 894V880Q440 821 409 795T320 769H313Q254 769 223 795T192 880V894Q192 954 223 979T313 1005H320Z"/>
<glyph unicode="Æ" glyph-name="AE" horiz-adv-x="1003" d="M494 298V561L340 298H494ZM162 0H2L424 684H956L944 572H650V406H885V287H650V112H961V0H494V187H272L162 0Z"/>
<glyph unicode="Ç" glyph-name="Ccedilla" horiz-adv-x="589" d="M207 343Q207 282 218 234T256 156Q279 130 313 119T406 107Q431 107 466 111T532 121L548 7Q533 2 513 -1T470 -7T424 -12T379 -14V-21Q379 -29 385 -34T416 -49Q464 -67 481 -86T498 -140Q498 -188 471 -218Q457 -235 432 -243T379 -252Q329 -252 290 -238V-163Q307 -168 326 -170T359 -173Q403 -173 403 -150Q403 -141 394 -133T347 -113Q318 -104 305 -91T292 -53Q292 -44 295 -33T303 -10Q243 -2 201 17T128 69Q84 116 65 182T45 339Q45 419 64 485T123 598T225 671T376 697Q398 697 422 695T471 688T516 679T555 666L535 552Q495 563 458 569T388 576Q333 576 298 559T243 511T215 437T207 343Z"/>
<glyph unicode="È" glyph-name="Egrave" horiz-adv-x="583" d="M230 113H541V0H74V684H536L524 571H230V405H465V288H230V113ZM368 759L165 896L235 991L418 821L368 759Z"/>
<glyph unicode="É" glyph-name="Eacute" horiz-adv-x="583" d="M230 113H541V0H74V684H536L524 571H230V405H465V288H230V113ZM175 821L358 991L428 896L225 759L175 821Z"/>
<glyph unicode="Ê" glyph-name="Ecircumflex" horiz-adv-x="583" d="M230 113H541V0H74V684H536L524 571H230V405H465V288H230V113ZM474 813L424 762L301 860L178 762L128 813L253 957H349L474 813Z"/>
<glyph unicode="Ë" glyph-name="Edieresis" horiz-adv-x="583" d="M230 113H541V0H74V684H536L524 571H230V405H465V288H230V113ZM268 854Q268 820 251 805T200 790H194Q160 790 144 805T127 854V865Q127 900 143 914T194 929H200Q233 929 250 915T268 865V854ZM476 854Q476 820 460 805T409 790H403Q371 790 353 805T335 854V865Q335 900 353 914T403 929H409Q443 929 459 915T476 865V854Z"/>
<glyph unicode="Ì" glyph-name="Igrave" horiz-adv-x="308" d="M76 684H232V0H76V684ZM489 759L286 896L356 991L539 821L489 759Z"/>
<glyph unicode="Í" glyph-name="Iacute" horiz-adv-x="308" d="M76 684H232V0H76V684ZM286 821L469 991L539 896L336 759L286 821Z"/>
<glyph unicode="Î" glyph-name="Icircumflex" horiz-adv-x="308" d="M76 684H232V0H76V684ZM585 813L535 762L412 860L289 762L239 813L364 957H460L585 813Z"/>
<glyph unicode="Ï" glyph-name="Idieresis" horiz-adv-x="308" d="M76 684H232V0H76V684ZM379 854Q379 820 362 805T311 790H305Q271 790 255 805T238 854V865Q238 900 254 914T305 929H311Q344 929 361 915T379 865V854ZM587 854Q587 820 571 805T520 790H514Q482 790 464 805T446 854V865Q446 900 464 914T514 929H520Q554 929 570 915T587 865V854Z"/>
<glyph unicode="Ð" glyph-name="Eth" horiz-adv-x="686" d="M74 0V288H2V390L74 402V684H285Q383 684 449 667T558 607Q600 566 620 502T641 345Q641 251 621 186T558 77Q520 38 459 19T306 0H74ZM230 288V114H296Q402 114 443 175Q463 205 471 243T479 345Q479 382 476 409T467 458T452 495T431 525Q408 550 372 560T278 570H230V405H369V288H230Z"/>
<glyph unicode="Ñ" glyph-name="Ntilde" horiz-adv-x="724" d="M74 684H189L513 246V684H650V0H525L211 415V0H74V684ZM545 933Q545 867 517 832T439 796Q417 796 397 802T359 817T325 831T292 838Q259 838 250 792L179 803Q179 869 207 904T285 940Q307 940 327 934T365 919T400 905T432 898Q465 898 474 944L545 933Z"/>
<glyph unicode="Ò" glyph-name="Ograve" horiz-adv-x="696" d="M651 341Q651 168 578 77T348 -14Q191 -14 118 77T45 341Q45 514 118 605T348 697Q505 697 578 606T651 341ZM489 341Q489 465 457 520T348 575Q272 575 240 520T207 341Q207 217 239 163T348 108Q424 108 456 162T489 341ZM424 759L221 896L291 991L474 821L424 759Z"/>
<glyph unicode="Ó" glyph-name="Oacute" horiz-adv-x="696" d="M651 341Q651 168 578 77T348 -14Q191 -14 118 77T45 341Q45 514 118 605T348 697Q505 697 578 606T651 341ZM489 341Q489 465 457 520T348 575Q272 575 240 520T207 341Q207 217 239 163T348 108Q424 108 456 162T489 341ZM221 821L404 991L474 896L271 759L221 821Z"/>
<glyph unicode="Ô" glyph-name="Ocircumflex" horiz-adv-x="696" d="M651 341Q651 168 578 77T348 -14Q191 -14 118 77T45 341Q45 514 118 605T348 697Q505 697 578 606T651 341ZM489 341Q489 465 457 520T348 575Q272 575 240 520T207 341Q207 217 239 163T348 108Q424 108 456 162T489 341ZM521 813L471 762L348 860L225 762L175 813L300 957H396L521 813Z"/>
<glyph unicode="Õ" glyph-name="Otilde" horiz-adv-x="696" d="M651 341Q651 168 578 77T348 -14Q191 -14 118 77T45 341Q45 514 118 605T348 697Q505 697 578 606T651 341ZM489 341Q489 465 457 520T348 575Q272 575 240 520T207 341Q207 217 239 163T348 108Q424 108 456 162T489 341ZM531 933Q531 867 503 832T425 796Q403 796 383 802T345 817T311 831T278 838Q245 838 236 792L165 803Q165 869 193 904T271 940Q293 940 313 934T351 919T386 905T418 898Q451 898 460 944L531 933Z"/>
<glyph unicode="Ö" glyph-name="Odieresis" horiz-adv-x="696" d="M651 341Q651 168 578 77T348 -14Q191 -14 118 77T45 341Q45 514 118 605T348 697Q505 697 578 606T651 341ZM489 341Q489 465 457 520T348 575Q272 575 240 520T207 341Q207 217 239 163T348 108Q424 108 456 162T489 341ZM314 854Q314 820 297 805T246 790H240Q206 790 190 805T173 854V865Q173 900 189 914T240 929H246Q279 929 296 915T314 865V854ZM522 854Q522 820 506 805T455 790H449Q417 790 399 805T381 854V865Q381 900 399 914T449 929H455Q489 929 505 915T522 865V854Z"/>
<glyph unicode="×" glyph-name="multiply" horiz-adv-x="600" d="M366 324L466 224L400 158L300 258L200 158L134 224L234 324L134 424L200 490L300 390L400 490L466 424L366 324Z"/>
<glyph unicode="Ø" glyph-name="Oslash" horiz-adv-x="698" d="M653 341Q653 168 580 77T349 -14Q306 -14 266 -6L242 -74H155L189 20Q115 58 80 139T45 341Q45 514 118 605T349 697Q372 697 392 695T431 689L456 757H543L509 663Q583 624 618 543T653 341ZM491 341Q491 404 483 448T457 521L309 112Q325 108 349 108Q425 108 458 162T491 341ZM207 341Q207 278 215 234T240 162L388 571Q372 575 349 575Q273 575 240 520T207 341Z"/>
<glyph unicode="Ù" glyph-name="Ugrave" horiz-adv-x="694" d="M488 684H626V258Q626 192 612 141T559 54Q525 22 470 4T349 -14Q277 -14 223 2T134 52Q100 85 84 131T68 251V684H223V251Q223 212 230 184T256 138Q287 105 356 105Q424 105 455 137Q473 155 480 182T488 250V684ZM423 759L220 896L290 991L473 821L423 759Z"/>
<glyph unicode="Ú" glyph-name="Uacute" horiz-adv-x="694" d="M488 684H626V258Q626 192 612 141T559 54Q525 22 470 4T349 -14Q277 -14 223 2T134 52Q100 85 84 131T68 251V684H223V251Q223 212 230 184T256 138Q287 105 356 105Q424 105 455 137Q473 155 480 182T488 250V684ZM220 821L403 991L473 896L270 759L220 821Z"/>
<glyph unicode="Û" glyph-name="Ucircumflex" horiz-adv-x="694" d="M488 684H626V258Q626 192 612 141T559 54Q525 22 470 4T349 -14Q277 -14 223 2T134 52Q100 85 84 131T68 251V684H223V251Q223 212 230 184T256 138Q287 105 356 105Q424 105 455 137Q473 155 480 182T488 250V684ZM520 813L470 762L347 860L224 762L174 813L299 957H395L520 813Z"/>
<glyph unicode="Ü" glyph-name="Udieresis" horiz-adv-x="694" d="M488 684H626V258Q626 192 612 141T559 54Q525 22 470 4T349 -14Q277 -14 223 2T134 52Q100 85 84 131T68 251V684H223V251Q223 212 230 184T256 138Q287 105 356 105Q424 105 455 137Q473 155 480 182T488 250V684ZM323 854Q323 820 306 805T255 790H249Q215 790 199 805T182 854V865Q182 900 198 914T249 929H255Q288 929 305 915T323 865V854ZM531 854Q531 820 515 805T464 790H458Q426 790 408 805T390 854V865Q390 900 408 914T458 929H464Q498 929 514 915T531 865V854Z"/>
<glyph unicode="Ý" glyph-name="Yacute" horiz-adv-x="662" d="M12 684H188L338 408L494 684H650L404 278V0H248V279L12 684ZM214 821L397 991L467 896L264 759L214 821Z"/>
<glyph unicode="Þ" glyph-name="Thorn" horiz-adv-x="619" d="M230 0H74V684H230V571H309Q390 571 442 559T528 515Q583 464 583 355Q583 246 532 189Q473 123 340 123H230V0ZM230 240H307Q345 240 364 246T398 266Q425 293 425 353Q425 409 399 434Q385 447 362 452T303 458H230V240Z"/>
<glyph unicode="ß" glyph-name="germandbls" horiz-adv-x="713" d="M549 131Q549 150 532 160T489 178T433 193T377 215T334 254T317 321Q317 364 337 394T382 449T427 499T448 554Q448 589 424 607T356 626Q296 626 269 591T241 493V0H98V397H14V474L98 489V510Q98 559 114 599T161 669T240 715T350 732Q457 732 519 689T582 564Q582 517 563 486T519 433T476 393T456 354Q456 335 473 326T515 309T569 294T624 269T666 223T683 147Q683 71 633 29T469 -14Q447 -14 424 -12T378 -6T335 3T300 13L311 119Q339 110 382 103T466 96Q514 96 531 105T549 131Z"/>
<glyph unicode="à" glyph-name="agrave" horiz-adv-x="531" d="M331 211H255Q229 211 213 208T187 194Q173 180 173 153Q173 126 188 111T243 95Q263 95 288 100T331 110V211ZM349 30Q317 10 279 -2T202 -14Q118 -14 74 31T30 147Q30 180 41 209T73 258Q99 283 141 293T253 303H331V319Q331 357 313 374Q300 385 280 389T230 394Q195 394 157 390T93 381L86 486Q124 494 169 499T260 504Q317 504 363 491T436 448Q474 404 474 318V0H361L349 30ZM342 559L139 696L209 791L392 621L342 559Z"/>
<glyph unicode="á" glyph-name="aacute" horiz-adv-x="531" d="M331 211H255Q229 211 213 208T187 194Q173 180 173 153Q173 126 188 111T243 95Q263 95 288 100T331 110V211ZM349 30Q317 10 279 -2T202 -14Q118 -14 74 31T30 147Q30 180 41 209T73 258Q99 283 141 293T253 303H331V319Q331 357 313 374Q300 385 280 389T230 394Q195 394 157 390T93 381L86 486Q124 494 169 499T260 504Q317 504 363 491T436 448Q474 404 474 318V0H361L349 30ZM139 621L322 791L392 696L189 559L139 621Z"/>
<glyph unicode="â" glyph-name="acircumflex" horiz-adv-x="531" d="M331 211H255Q229 211 213 208T187 194Q173 180 173 153Q173 126 188 111T243 95Q263 95 288 100T331 110V211ZM349 30Q317 10 279 -2T202 -14Q118 -14 74 31T30 147Q30 180 41 209T73 258Q99 283 141 293T253 303H331V319Q331 357 313 374Q300 385 280 389T230 394Q195 394 157 390T93 381L86 486Q124 494 169 499T260 504Q317 504 363 491T436 448Q474 404 474 318V0H361L349 30ZM438 613L388 562L265 660L142 562L92 613L217 757H313L438 613Z"/>
<glyph unicode="ã" glyph-name="atilde" horiz-adv-x="531" d="M331 211H255Q229 211 213 208T187 194Q173 180 173 153Q173 126 188 111T243 95Q263 95 288 100T331 110V211ZM349 30Q317 10 279 -2T202 -14Q118 -14 74 31T30 147Q30 180 41 209T73 258Q99 283 141 293T253 303H331V319Q331 357 313 374Q300 385 280 389T230 394Q195 394 157 390T93 381L86 486Q124 494 169 499T260 504Q317 504 363 491T436 448Q474 404 474 318V0H361L349 30ZM448 733Q448 667 420 632T342 596Q320 596 300 602T262 617T228 631T195 638Q162 638 153 592L82 603Q82 669 110 704T188 740Q210 740 230 734T268 719T303 705T335 698Q368 698 377 744L448 733Z"/>
<glyph unicode="ä" glyph-name="adieresis" horiz-adv-x="531" d="M331 211H255Q229 211 213 208T187 194Q173 180 173 153Q173 126 188 111T243 95Q263 95 288 100T331 110V211ZM349 30Q317 10 279 -2T202 -14Q118 -14 74 31T30 147Q30 180 41 209T73 258Q99 283 141 293T253 303H331V319Q331 357 313 374Q300 385 280 389T230 394Q195 394 157 390T93 381L86 486Q124 494 169 499T260 504Q317 504 363 491T436 448Q474 404 474 318V0H361L349 30ZM232 654Q232 620 215 605T164 590H158Q124 590 108 605T91 654V665Q91 700 107 714T158 729H164Q197 729 214 715T232 665V654ZM440 654Q440 620 424 605T373 590H367Q335 590 317 605T299 654V665Q299 700 317 714T367 729H373Q407 729 423 715T440 665V654Z"/>
<glyph unicode="å" glyph-name="aring" horiz-adv-x="531" d="M331 211H255Q229 211 213 208T187 194Q173 180 173 153Q173 126 188 111T243 95Q263 95 288 100T331 110V211ZM349 30Q317 10 279 -2T202 -14Q118 -14 74 31T30 147Q30 180 41 209T73 258Q99 283 141 293T253 303H331V319Q331 357 313 374Q300 385 280 389T230 394Q195 394 157 390T93 381L86 486Q124 494 169 499T260 504Q317 504 363 491T436 448Q474 404 474 318V0H361L349 30ZM267 632Q293 632 305 643T318 684V688Q318 718 306 728T267 739H264Q237 739 224 729T211 688V684Q211 655 224 644T264 632H267ZM269 805Q327 805 358 780T389 694V680Q389 621 358 595T269 569H262Q203 569 172 595T141 680V694Q141 754 172 779T262 805H269Z"/>
<glyph unicode="æ" glyph-name="ae" horiz-adv-x="817" d="M593 -14Q525 -14 475 1T392 46Q375 34 353 23T305 4T253 -9T202 -14Q118 -14 74 31T30 147Q30 180 41 209T73 258Q99 283 141 293T253 303H331V321Q330 341 326 353T313 374Q300 385 280 389T230 394Q195 394 157 390T93 381L86 486Q124 494 169 499T260 504Q308 504 349 495T418 465Q475 504 562 504Q673 504 730 445T787 257V212Q787 201 775 201H474Q477 139 515 117T625 95Q651 95 685 98T747 107L758 3Q723 -4 681 -9T593 -14ZM243 95Q263 95 291 100T346 114Q339 133 336 156T331 211H255Q229 211 213 208T187 194Q173 180 173 153Q173 126 188 111T243 95ZM647 294Q647 341 626 368T561 396Q517 396 497 369T474 294H647Z"/>
<glyph unicode="ç" glyph-name="ccedilla" horiz-adv-x="463" d="M323 -49Q371 -67 388 -86T405 -140Q405 -188 378 -218Q364 -235 339 -243T286 -252Q236 -252 197 -238V-163Q214 -168 233 -170T266 -173Q310 -173 310 -150Q310 -141 301 -133T254 -113Q225 -104 212 -91T199 -53Q199 -42 202 -29T213 -5Q171 3 136 24T75 84Q55 115 45 154T35 234Q35 296 50 345T98 431Q131 466 182 485T294 504Q328 504 365 500T438 486L429 380Q406 386 377 390T316 394Q250 394 217 359Q199 339 192 311T184 245Q184 169 217 132T328 95Q352 95 379 97T430 105L441 2Q405 -6 375 -10T303 -14H286V-21Q286 -29 292 -34T323 -49Z"/>
<glyph unicode="è" glyph-name="egrave" horiz-adv-x="528" d="M185 201Q188 139 226 117T336 95Q362 95 396 98T458 107L469 3Q434 -4 392 -9T304 -14Q235 -14 184 2T101 49Q64 84 50 134T35 244Q35 374 97 439T273 504Q384 504 441 445T498 257V212Q498 201 486 201H185ZM358 294Q358 341 337 368T272 396Q228 396 208 369T185 294H358ZM340 559L137 696L207 791L390 621L340 559Z"/>
<glyph unicode="é" glyph-name="eacute" horiz-adv-x="528" d="M185 201Q188 139 226 117T336 95Q362 95 396 98T458 107L469 3Q434 -4 392 -9T304 -14Q235 -14 184 2T101 49Q64 84 50 134T35 244Q35 374 97 439T273 504Q384 504 441 445T498 257V212Q498 201 486 201H185ZM358 294Q358 341 337 368T272 396Q228 396 208 369T185 294H358ZM137 621L320 791L390 696L187 559L137 621Z"/>
<glyph unicode="ê" glyph-name="ecircumflex" horiz-adv-x="528" d="M185 201Q188 139 226 117T336 95Q362 95 396 98T458 107L469 3Q434 -4 392 -9T304 -14Q235 -14 184 2T101 49Q64 84 50 134T35 244Q35 374 97 439T273 504Q384 504 441 445T498 257V212Q498 201 486 201H185ZM358 294Q358 341 337 368T272 396Q228 396 208 369T185 294H358ZM437 613L387 562L264 660L141 562L91 613L216 757H312L437 613Z"/>
<glyph unicode="ë" glyph-name="edieresis" horiz-adv-x="528" d="M185 201Q188 139 226 117T336 95Q362 95 396 98T458 107L469 3Q434 -4 392 -9T304 -14Q235 -14 184 2T101 49Q64 84 50 134T35 244Q35 374 97 439T273 504Q384 504 441 445T498 257V212Q498 201 486 201H185ZM358 294Q358 341 337 368T272 396Q228 396 208 369T185 294H358ZM230 654Q230 620 213 605T162 590H156Q122 590 106 605T89 654V665Q89 700 105 714T156 729H162Q195 729 212 715T230 665V654ZM438 654Q438 620 422 605T371 590H365Q333 590 315 605T297 654V665Q297 700 315 714T365 729H371Q405 729 421 715T438 665V654Z"/>
<glyph unicode="ì" glyph-name="igrave" horiz-adv-x="269" d="M206 0H63V490H206V0ZM469 559L266 696L336 791L519 621L469 559Z"/>
<glyph unicode="í" glyph-name="iacute" horiz-adv-x="269" d="M206 0H63V490H206V0ZM266 621L449 791L519 696L316 559L266 621Z"/>
<glyph unicode="î" glyph-name="icircumflex" horiz-adv-x="269" d="M206 0H63V490H206V0ZM566 613L516 562L393 660L270 562L220 613L345 757H441L566 613Z"/>
<glyph unicode="ï" glyph-name="idieresis" horiz-adv-x="269" d="M206 0H63V490H206V0ZM359 654Q359 620 342 605T291 590H285Q251 590 235 605T218 654V665Q218 700 234 714T285 729H291Q324 729 341 715T359 665V654ZM567 654Q567 620 551 605T500 590H494Q462 590 444 605T426 654V665Q426 700 444 714T494 729H500Q534 729 550 715T567 665V654Z"/>
<glyph unicode="ð" glyph-name="eth" horiz-adv-x="570" d="M135 709Q155 728 171 744Q185 758 196 768T206 779Q228 765 248 751T289 722L359 790L417 732L352 668Q437 588 481 492T526 271Q526 207 512 155T468 65T392 7T281 -14Q219 -14 174 4T99 54T55 131T40 226Q40 284 55 328T99 402T165 447T250 463Q279 463 305 456T356 437Q331 516 269 587L203 523L145 581L211 646Q194 661 175 676T135 709ZM378 270Q378 290 377 309T374 347Q354 353 335 356T295 360Q239 360 214 326T189 228Q189 171 211 133T284 95Q337 95 357 142T378 270Z"/>
<glyph unicode="ñ" glyph-name="ntilde" horiz-adv-x="573" d="M184 490L187 455Q228 481 272 492T356 504Q388 504 421 495T474 466Q497 444 506 412T516 337V0H373V320Q373 339 370 350T358 369Q348 378 333 381T296 385Q276 385 248 381T203 369V0H60V490H184ZM479 733Q479 667 451 632T373 596Q351 596 331 602T293 617T259 631T226 638Q193 638 184 592L113 603Q113 669 141 704T219 740Q241 740 261 734T299 719T334 705T366 698Q399 698 408 744L479 733Z"/>
<glyph unicode="ò" glyph-name="ograve" horiz-adv-x="568" d="M533 245Q533 186 518 138T472 57T395 5T284 -14Q220 -14 173 4T96 56T50 138T35 245Q35 304 50 352T95 433T173 485T284 504Q348 504 394 486T472 434T518 352T533 245ZM384 245Q384 321 361 358T284 395Q230 395 207 358T184 245Q184 169 207 132T284 95Q338 95 361 132T384 245ZM360 559L157 696L227 791L410 621L360 559Z"/>
<glyph unicode="ó" glyph-name="oacute" horiz-adv-x="568" d="M533 245Q533 186 518 138T472 57T395 5T284 -14Q220 -14 173 4T96 56T50 138T35 245Q35 304 50 352T95 433T173 485T284 504Q348 504 394 486T472 434T518 352T533 245ZM384 245Q384 321 361 358T284 395Q230 395 207 358T184 245Q184 169 207 132T284 95Q338 95 361 132T384 245ZM157 621L340 791L410 696L207 559L157 621Z"/>
<glyph unicode="ô" glyph-name="ocircumflex" horiz-adv-x="568" d="M533 245Q533 186 518 138T472 57T395 5T284 -14Q220 -14 173 4T96 56T50 138T35 245Q35 304 50 352T95 433T173 485T284 504Q348 504 394 486T472 434T518 352T533 245ZM384 245Q384 321 361 358T284 395Q230 395 207 358T184 245Q184 169 207 132T284 95Q338 95 361 132T384 245ZM457 613L407 562L284 660L161 562L111 613L236 757H332L457 613Z"/>
<glyph unicode="õ" glyph-name="otilde" horiz-adv-x="568" d="M533 245Q533 186 518 138T472 57T395 5T284 -14Q220 -14 173 4T96 56T50 138T35 245Q35 304 50 352T95 433T173 485T284 504Q348 504 394 486T472 434T518 352T533 245ZM384 245Q384 321 361 358T284 395Q230 395 207 358T184 245Q184 169 207 132T284 95Q338 95 361 132T384 245ZM467 733Q467 667 439 632T361 596Q339 596 319 602T281 617T247 631T214 638Q181 638 172 592L101 603Q101 669 129 704T207 740Q229 740 249 734T287 719T322 705T354 698Q387 698 396 744L467 733Z"/>
<glyph unicode="ö" glyph-name="odieresis" horiz-adv-x="568" d="M533 245Q533 186 518 138T472 57T395 5T284 -14Q220 -14 173 4T96 56T50 138T35 245Q35 304 50 352T95 433T173 485T284 504Q348 504 394 486T472 434T518 352T533 245ZM384 245Q384 321 361 358T284 395Q230 395 207 358T184 245Q184 169 207 132T284 95Q338 95 361 132T384 245ZM250 654Q250 620 233 605T182 590H176Q142 590 126 605T109 654V665Q109 700 125 714T176 729H182Q215 729 232 715T250 665V654ZM458 654Q458 620 442 605T391 590H385Q353 590 335 605T317 654V665Q317 700 335 714T385 729H391Q425 729 441 715T458 665V654Z"/>
<glyph unicode="÷" glyph-name="divide" horiz-adv-x="600" d="M370 513Q370 451 304 451H297Q232 451 232 513V526Q232 559 248 573T297 587H304Q337 587 353 573T370 526V513ZM370 122Q370 89 354 75T304 60H297Q264 60 248 74T232 122V135Q232 168 248 182T297 196H304Q337 196 353 182T370 135V122ZM113 277V371H487V277H113Z"/>
<glyph unicode="ø" glyph-name="oslash" horiz-adv-x="568" d="M533 245Q533 186 518 138T472 57T395 5T284 -14Q270 -14 257 -13T232 -10L205 -84H121L156 12Q94 41 65 101T35 245Q35 304 50 352T95 433T173 485T284 504Q298 504 311 503T336 500L363 574H447L412 478Q474 448 503 388T533 245ZM384 245Q384 314 365 351L271 95H284Q338 95 361 132T384 245ZM184 245Q184 176 203 139L297 394Q294 395 291 395T284 395Q230 395 207 358T184 245Z"/>
<glyph unicode="ù" glyph-name="ugrave" horiz-adv-x="569" d="M385 0L381 33Q341 8 298 -3T217 -14Q185 -14 152 -5T99 24Q76 46 67 78T57 153V490H200V173Q200 136 215 121Q225 112 240 109T277 105Q296 105 322 109T366 119V490H509V0H385ZM361 559L158 696L228 791L411 621L361 559Z"/>
<glyph unicode="ú" glyph-name="uacute" horiz-adv-x="569" d="M385 0L381 33Q341 8 298 -3T217 -14Q185 -14 152 -5T99 24Q76 46 67 78T57 153V490H200V173Q200 136 215 121Q225 112 240 109T277 105Q296 105 322 109T366 119V490H509V0H385ZM158 621L341 791L411 696L208 559L158 621Z"/>
<glyph unicode="û" glyph-name="ucircumflex" horiz-adv-x="569" d="M385 0L381 33Q341 8 298 -3T217 -14Q185 -14 152 -5T99 24Q76 46 67 78T57 153V490H200V173Q200 136 215 121Q225 112 240 109T277 105Q296 105 322 109T366 119V490H509V0H385ZM457 613L407 562L284 660L161 562L111 613L236 757H332L457 613Z"/>
<glyph unicode="ü" glyph-name="udieresis" horiz-adv-x="569" d="M385 0L381 33Q341 8 298 -3T217 -14Q185 -14 152 -5T99 24Q76 46 67 78T57 153V490H200V173Q200 136 215 121Q225 112 240 109T277 105Q296 105 322 109T366 119V490H509V0H385ZM251 654Q251 620 234 605T183 590H177Q143 590 127 605T110 654V665Q110 700 126 714T177 729H183Q216 729 233 715T251 665V654ZM459 654Q459 620 443 605T392 590H386Q354 590 336 605T318 654V665Q318 700 336 714T386 729H392Q426 729 442 715T459 665V654Z"/>
<glyph unicode="ý" glyph-name="yacute" horiz-adv-x="571" d="M214 -9Q182 -9 151 0T100 29Q78 51 68 80T57 153V490H200V173Q200 154 203 143T215 124Q225 115 239 112T276 108Q296 108 323 113T368 126V490H511V21Q511 -44 501 -92T464 -173T395 -222T284 -239Q248 -239 218 -236T159 -226L149 -120Q174 -125 199 -128T261 -131Q287 -131 310 -125T344 -108Q358 -95 363 -75T368 -29V31Q332 11 292 1T214 -9ZM177 621L360 791L430 696L227 559L177 621Z"/>
<glyph unicode="þ" glyph-name="thorn" horiz-adv-x="560" d="M60 -225V715H203V464Q232 481 267 492T342 504Q415 504 459 462Q494 428 509 373T525 248Q525 176 511 126T472 45T411 0T334 -14Q301 -14 266 -5T203 22V-225H60ZM203 113Q220 105 244 102T292 99Q314 99 330 106T356 130T370 176T375 250Q375 289 371 316T356 359T329 382T288 389Q271 389 246 385T203 376V113Z"/>
<glyph unicode="ÿ" glyph-name="ydieresis" horiz-adv-x="571" d="M214 -9Q182 -9 151 0T100 29Q78 51 68 80T57 153V490H200V173Q200 154 203 143T215 124Q225 115 239 112T276 108Q296 108 323 113T368 126V490H511V21Q511 -44 501 -92T464 -173T395 -222T284 -239Q248 -239 218 -236T159 -226L149 -120Q174 -125 199 -128T261 -131Q287 -131 310 -125T344 -108Q358 -95 363 -75T368 -29V31Q332 11 292 1T214 -9ZM252 654Q252 620 235 605T184 590H178Q144 590 128 605T111 654V665Q111 700 127 714T178 729H184Q217 729 234 715T252 665V654ZM460 654Q460 620 444 605T393 590H387Q355 590 337 605T319 654V665Q319 700 337 714T387 729H393Q427 729 443 715T460 665V654Z"/>
<glyph unicode="Ā" glyph-name="Amacron" horiz-adv-x="658" d="M429 172H207L154 0H5L234 684H406L653 0H486L429 172ZM243 285H391L316 513H314L243 285ZM169 805V903H464V805H169Z"/>
<glyph unicode="ā" glyph-name="amacron" horiz-adv-x="531" d="M331 211H255Q229 211 213 208T187 194Q173 180 173 153Q173 126 188 111T243 95Q263 95 288 100T331 110V211ZM349 30Q317 10 279 -2T202 -14Q118 -14 74 31T30 147Q30 180 41 209T73 258Q99 283 141 293T253 303H331V319Q331 357 313 374Q300 385 280 389T230 394Q195 394 157 390T93 381L86 486Q124 494 169 499T260 504Q317 504 363 491T436 448Q474 404 474 318V0H361L349 30ZM128 605V703H423V605H128Z"/>
<glyph unicode="Ă" glyph-name="Abreve" horiz-adv-x="658" d="M429 172H207L154 0H5L234 684H406L653 0H486L429 172ZM243 285H391L316 513H314L243 285ZM243 938Q248 901 265 882T317 862Q352 862 369 881T391 938L477 935Q477 903 469 874T443 823T393 788T317 775Q272 775 241 788T191 823T164 874T156 935L243 938V938Z"/>
<glyph unicode="ă" glyph-name="abreve" horiz-adv-x="531" d="M331 211H255Q229 211 213 208T187 194Q173 180 173 153Q173 126 188 111T243 95Q263 95 288 100T331 110V211ZM349 30Q317 10 279 -2T202 -14Q118 -14 74 31T30 147Q30 180 41 209T73 258Q99 283 141 293T253 303H331V319Q331 357 313 374Q300 385 280 389T230 394Q195 394 157 390T93 381L86 486Q124 494 169 499T260 504Q317 504 363 491T436 448Q474 404 474 318V0H361L349 30ZM202 738Q207 701 224 682T276 662Q311 662 328 681T350 738L436 735Q436 703 428 674T402 623T352 588T276 575Q231 575 200 588T150 623T123 674T115 735L202 738V738Z"/>
<glyph unicode="Ą" glyph-name="Aogonek" horiz-adv-x="658" d="M396 -132Q396 -87 420 -52T483 8L429 172H207L154 0H5L234 684H406L653 0H613Q590 0 569 -8T532 -30T506 -65T496 -110Q496 -167 557 -167Q571 -167 586 -165T613 -158V-235Q590 -242 566 -245T521 -249Q467 -249 432 -220T396 -132ZM243 285H391L316 513H314L243 285Z"/>
<glyph unicode="ą" glyph-name="aogonek" horiz-adv-x="531" d="M277 -132Q277 -94 300 -59T359 4L349 30Q317 10 279 -2T202 -14Q118 -14 74 31T30 147Q30 180 41 209T73 258Q99 283 141 293T253 303H331V319Q331 357 313 374Q300 385 280 389T230 394Q195 394 157 390T93 381L86 486Q124 494 169 499T260 504Q317 504 363 491T436 448Q474 404 474 318V0H459Q450 0 445 -2T433 -11Q401 -43 389 -69T377 -121Q377 -167 438 -167Q452 -167 467 -165T494 -158V-235Q471 -242 447 -245T402 -249Q348 -249 313 -220T277 -132ZM331 211H255Q229 211 213 208T187 194Q173 180 173 153Q173 126 188 111T243 95Q263 95 288 100T331 110V211Z"/>
<glyph unicode="Ć" glyph-name="Cacute" horiz-adv-x="589" d="M207 343Q207 282 218 234T256 156Q279 130 313 119T406 107Q431 107 466 111T532 121L548 7Q533 2 512 -1T468 -8T421 -12T376 -14Q285 -14 226 7T128 69Q84 116 65 182T45 339Q45 419 64 485T123 598T225 671T376 697Q398 697 422 695T471 688T516 679T555 666L535 552Q495 563 458 569T388 576Q333 576 298 559T243 511T215 437T207 343ZM250 821L433 991L503 896L300 759L250 821Z"/>
<glyph unicode="ć" glyph-name="cacute" horiz-adv-x="463" d="M303 -14Q271 -14 239 -10T177 5T121 35T75 84Q55 115 45 154T35 234Q35 296 50 345T98 431Q131 466 182 485T294 504Q328 504 365 500T438 486L429 380Q406 386 377 390T316 394Q250 394 217 359Q199 339 192 311T184 245Q184 169 217 132T328 95Q352 95 379 97T430 105L441 2Q405 -6 375 -10T303 -14ZM158 621L341 791L411 696L208 559L158 621Z"/>
<glyph unicode="Ĉ" glyph-name="Ccircumflex" horiz-adv-x="589" d="M207 343Q207 282 218 234T256 156Q279 130 313 119T406 107Q431 107 466 111T532 121L548 7Q533 2 512 -1T468 -8T421 -12T376 -14Q285 -14 226 7T128 69Q84 116 65 182T45 339Q45 419 64 485T123 598T225 671T376 697Q398 697 422 695T471 688T516 679T555 666L535 552Q495 563 458 569T388 576Q333 576 298 559T243 511T215 437T207 343ZM534 813L484 762L361 860L238 762L188 813L313 957H409L534 813Z"/>
<glyph unicode="ĉ" glyph-name="ccircumflex" horiz-adv-x="463" d="M303 -14Q271 -14 239 -10T177 5T121 35T75 84Q55 115 45 154T35 234Q35 296 50 345T98 431Q131 466 182 485T294 504Q328 504 365 500T438 486L429 380Q406 386 377 390T316 394Q250 394 217 359Q199 339 192 311T184 245Q184 169 217 132T328 95Q352 95 379 97T430 105L441 2Q405 -6 375 -10T303 -14ZM469 613L419 562L296 660L173 562L123 613L248 757H344L469 613Z"/>
<glyph unicode="Ċ" glyph-name="Cdotaccent" horiz-adv-x="589" d="M207 343Q207 282 218 234T256 156Q279 130 313 119T406 107Q431 107 466 111T532 121L548 7Q533 2 512 -1T468 -8T421 -12T376 -14Q285 -14 226 7T128 69Q84 116 65 182T45 339Q45 419 64 485T123 598T225 671T376 697Q398 697 422 695T471 688T516 679T555 666L535 552Q495 563 458 569T388 576Q333 576 298 559T243 511T215 437T207 343ZM439 856Q439 819 421 804T367 788H361Q325 788 307 803T289 856V867Q289 905 307 920T361 935H367Q402 935 420 920T439 867V856Z"/>
<glyph unicode="ċ" glyph-name="cdotaccent" horiz-adv-x="463" d="M303 -14Q271 -14 239 -10T177 5T121 35T75 84Q55 115 45 154T35 234Q35 296 50 345T98 431Q131 466 182 485T294 504Q328 504 365 500T438 486L429 380Q406 386 377 390T316 394Q250 394 217 359Q199 339 192 311T184 245Q184 169 217 132T328 95Q352 95 379 97T430 105L441 2Q405 -6 375 -10T303 -14ZM370 656Q370 619 352 604T298 588H292Q256 588 238 603T220 656V667Q220 705 238 720T292 735H298Q333 735 351 720T370 667V656Z"/>
<glyph unicode="Č" glyph-name="Ccaron" horiz-adv-x="589" d="M207 343Q207 282 218 234T256 156Q279 130 313 119T406 107Q431 107 466 111T532 121L548 7Q533 2 512 -1T468 -8T421 -12T376 -14Q285 -14 226 7T128 69Q84 116 65 182T45 339Q45 419 64 485T123 598T225 671T376 697Q398 697 422 695T471 688T516 679T555 666L535 552Q495 563 458 569T388 576Q333 576 298 559T243 511T215 437T207 343ZM420 774H324L199 918L249 969L372 871L495 969L545 918L420 774Z"/>
<glyph unicode="č" glyph-name="ccaron" horiz-adv-x="463" d="M303 -14Q271 -14 239 -10T177 5T121 35T75 84Q55 115 45 154T35 234Q35 296 50 345T98 431Q131 466 182 485T294 504Q328 504 365 500T438 486L429 380Q406 386 377 390T316 394Q250 394 217 359Q199 339 192 311T184 245Q184 169 217 132T328 95Q352 95 379 97T430 105L441 2Q405 -6 375 -10T303 -14ZM350 574H254L129 718L179 769L302 671L425 769L475 718L350 574Z"/>
<glyph unicode="Ď" glyph-name="Dcaron" horiz-adv-x="686" d="M74 0V684H285Q383 684 449 667T558 607Q600 566 620 502T641 345Q641 251 621 186T558 77Q520 38 459 19T306 0H74ZM230 114H296Q402 114 443 175Q463 205 471 243T479 345Q479 382 476 409T467 458T452 495T431 525Q408 550 372 560T278 570H230V114ZM391 774H295L170 918L220 969L343 871L466 969L516 918L391 774Z"/>
<glyph unicode="ď" glyph-name="dcaron" horiz-adv-x="714" d="M35 244Q35 305 49 353T88 435T149 486T229 504Q261 504 295 495T359 468V715H502V0H378L375 35Q343 14 304 0T220 -14Q147 -14 103 28Q68 62 52 117T35 244ZM359 380Q342 385 324 388T291 391Q266 391 246 384T213 360T192 313T185 240Q185 199 190 172T205 129T233 105T274 98Q291 98 315 102T359 115V380ZM551 627Q551 697 619 697H626Q694 697 694 627V602Q694 578 693 552T688 501T681 455T673 422H606V554Q575 565 563 581T551 627Z"/>
<glyph unicode="Đ" glyph-name="Dcroat" horiz-adv-x="686" d="M74 0V288H2V390L74 402V684H285Q383 684 449 667T558 607Q600 566 620 502T641 345Q641 251 621 186T558 77Q520 38 459 19T306 0H74ZM230 288V114H296Q402 114 443 175Q463 205 471 243T479 345Q479 382 476 409T467 458T452 495T431 525Q408 550 372 560T278 570H230V405H369V288H230Z"/>
<glyph unicode="đ" glyph-name="dcroat" horiz-adv-x="562" d="M502 568V0H378L375 35Q343 14 304 0T220 -14Q147 -14 103 28Q68 62 52 117T35 244Q35 305 49 353T88 435T149 486T229 504Q261 504 295 495T359 468V568H200V650H359V715H502V646L581 640V568H502ZM359 380Q342 385 324 388T291 391Q266 391 246 384T213 360T192 313T185 240Q185 199 190 172T205 129T233 105T274 98Q291 98 315 102T359 115V380Z"/>
<glyph unicode="Ē" glyph-name="Emacron" horiz-adv-x="583" d="M230 113H541V0H74V684H536L524 571H230V405H465V288H230V113ZM164 805V903H459V805H164Z"/>
<glyph unicode="ē" glyph-name="emacron" horiz-adv-x="528" d="M185 201Q188 139 226 117T336 95Q362 95 396 98T458 107L469 3Q434 -4 392 -9T304 -14Q235 -14 184 2T101 49Q64 84 50 134T35 244Q35 374 97 439T273 504Q384 504 441 445T498 257V212Q498 201 486 201H185ZM358 294Q358 341 337 368T272 396Q228 396 208 369T185 294H358ZM126 605V703H421V605H126Z"/>
<glyph unicode="Ĕ" glyph-name="Ebreve" horiz-adv-x="583" d="M230 113H541V0H74V684H536L524 571H230V405H465V288H230V113ZM238 938Q243 901 260 882T312 862Q347 862 364 881T386 938L472 935Q472 903 464 874T438 823T388 788T312 775Q267 775 236 788T186 823T159 874T151 935L238 938V938Z"/>
<glyph unicode="ĕ" glyph-name="ebreve" horiz-adv-x="528" d="M185 201Q188 139 226 117T336 95Q362 95 396 98T458 107L469 3Q434 -4 392 -9T304 -14Q235 -14 184 2T101 49Q64 84 50 134T35 244Q35 374 97 439T273 504Q384 504 441 445T498 257V212Q498 201 486 201H185ZM358 294Q358 341 337 368T272 396Q228 396 208 369T185 294H358ZM200 738Q205 701 222 682T274 662Q309 662 326 681T348 738L434 735Q434 703 426 674T400 623T350 588T274 575Q229 575 198 588T148 623T121 674T113 735L200 738V738Z"/>
<glyph unicode="Ė" glyph-name="Edotaccent" horiz-adv-x="583" d="M230 113H541V0H74V684H536L524 571H230V405H465V288H230V113ZM386 856Q386 819 368 804T314 788H308Q272 788 254 803T236 856V867Q236 905 254 920T308 935H314Q349 935 367 920T386 867V856Z"/>
<glyph unicode="ė" glyph-name="edotaccent" horiz-adv-x="528" d="M185 201Q188 139 226 117T336 95Q362 95 396 98T458 107L469 3Q434 -4 392 -9T304 -14Q235 -14 184 2T101 49Q64 84 50 134T35 244Q35 374 97 439T273 504Q384 504 441 445T498 257V212Q498 201 486 201H185ZM358 294Q358 341 337 368T272 396Q228 396 208 369T185 294H358ZM349 656Q349 619 331 604T277 588H271Q235 588 217 603T199 656V667Q199 705 217 720T271 735H277Q312 735 330 720T349 667V656Z"/>
<glyph unicode="Ę" glyph-name="Eogonek" horiz-adv-x="583" d="M531 0Q508 0 487 -8T450 -30T424 -65T414 -110Q414 -167 475 -167Q489 -167 504 -165T531 -158V-235Q508 -242 484 -245T439 -249Q385 -249 350 -220T314 -132Q314 -95 333 -58T390 0H74V684H536L524 571H230V405H465V288H230V113H541V0H531Z"/>
<glyph unicode="ę" glyph-name="eogonek" horiz-adv-x="528" d="M261 -132Q261 -96 277 -66T321 -14H304Q235 -14 184 2T101 49Q64 84 50 134T35 244Q35 374 97 439T273 504Q384 504 441 445T498 257V212Q498 201 486 201H185Q188 139 226 117T336 95Q362 95 396 98T458 107L469 3Q449 -1 430 -9T396 -32T371 -65T361 -109Q361 -136 376 -151T422 -167Q436 -167 451 -165T478 -158V-235Q455 -242 431 -245T386 -249Q332 -249 297 -220T261 -132ZM358 294Q358 341 337 368T272 396Q228 396 208 369T185 294H358Z"/>
<glyph unicode="Ě" glyph-name="Ecaron" horiz-adv-x="583" d="M230 113H541V0H74V684H536L524 571H230V405H465V288H230V113ZM359 774H263L138 918L188 969L311 871L434 969L484 918L359 774Z"/>
<glyph unicode="ě" glyph-name="ecaron" horiz-adv-x="528" d="M185 201Q188 139 226 117T336 95Q362 95 396 98T458 107L469 3Q434 -4 392 -9T304 -14Q235 -14 184 2T101 49Q64 84 50 134T35 244Q35 374 97 439T273 504Q384 504 441 445T498 257V212Q498 201 486 201H185ZM358 294Q358 341 337 368T272 396Q228 396 208 369T185 294H358ZM322 574H226L101 718L151 769L274 671L397 769L447 718L322 574Z"/>
<glyph unicode="Ĝ" glyph-name="Gcircumflex" horiz-adv-x="671" d="M564 550Q527 561 485 568T402 575Q298 575 253 516T207 344Q207 286 215 240T247 162Q266 136 297 122T379 107Q398 107 421 109T462 114V258H366V370H617V21Q593 13 562 7T499 -4T434 -11T373 -14Q281 -14 219 10T118 80T62 191T45 338Q45 418 66 484T131 597T239 671T391 697Q416 697 443 695T496 688T544 677T584 664L564 550V550ZM550 813L500 762L377 860L254 762L204 813L329 957H425L550 813Z"/>
<glyph unicode="ĝ" glyph-name="gcircumflex" horiz-adv-x="541" d="M491 316Q491 217 433 172T271 127Q254 127 238 128T207 131Q200 119 197 108T194 92Q194 79 208 79H304Q375 79 419 67T489 27Q507 8 516 -17T525 -77Q525 -154 467 -196T276 -239H268Q141 -239 84 -208T27 -110Q27 -80 43 -58T85 -21Q60 0 60 43Q60 74 77 105T125 162Q90 185 70 222T50 316Q50 414 108 459T271 504Q305 504 333 499T387 485L449 556Q474 540 493 517T527 471L462 427Q476 405 484 378T492 316H491ZM443 613L393 562L270 660L147 562L97 613L222 757H318L443 613ZM362 316Q362 358 341 380T271 402Q221 402 200 380T179 316Q179 273 200 251T271 229Q320 229 341 251T362 316ZM168 -40Q160 -49 157 -58T154 -77Q154 -104 179 -117T272 -131H287Q397 -131 397 -83Q397 -59 379 -50T311 -40H168Z"/>
<glyph unicode="Ğ" glyph-name="Gbreve" horiz-adv-x="671" d="M564 550Q527 561 485 568T402 575Q298 575 253 516T207 344Q207 286 215 240T247 162Q266 136 297 122T379 107Q398 107 421 109T462 114V258H366V370H617V21Q593 13 562 7T499 -4T434 -11T373 -14Q281 -14 219 10T118 80T62 191T45 338Q45 418 66 484T131 597T239 671T391 697Q416 697 443 695T496 688T544 677T584 664L564 550V550ZM304 938Q309 901 326 882T378 862Q413 862 430 881T452 938L538 935Q538 903 530 874T504 823T454 788T378 775Q333 775 302 788T252 823T225 874T217 935L304 938V938Z"/>
<glyph unicode="ğ" glyph-name="gbreve" horiz-adv-x="541" d="M491 316Q491 217 433 172T271 127Q254 127 238 128T207 131Q200 119 197 108T194 92Q194 79 208 79H304Q375 79 419 67T489 27Q507 8 516 -17T525 -77Q525 -154 467 -196T276 -239H268Q141 -239 84 -208T27 -110Q27 -80 43 -58T85 -21Q60 0 60 43Q60 74 77 105T125 162Q90 185 70 222T50 316Q50 414 108 459T271 504Q305 504 333 499T387 485L449 556Q474 540 493 517T527 471L462 427Q476 405 484 378T492 316H491ZM362 316Q362 358 341 380T271 402Q221 402 200 380T179 316Q179 273 200 251T271 229Q320 229 341 251T362 316ZM168 -40Q160 -49 157 -58T154 -77Q154 -104 179 -117T272 -131H287Q397 -131 397 -83Q397 -59 379 -50T311 -40H168ZM197 738Q202 701 219 682T271 662Q306 662 323 681T345 738L431 735Q431 703 423 674T397 623T347 588T271 575Q226 575 195 588T145 623T118 674T110 735L197 738V738Z"/>
<glyph unicode="Ġ" glyph-name="Gdotaccent" horiz-adv-x="671" d="M564 550Q527 561 485 568T402 575Q298 575 253 516T207 344Q207 286 215 240T247 162Q266 136 297 122T379 107Q398 107 421 109T462 114V258H366V370H617V21Q593 13 562 7T499 -4T434 -11T373 -14Q281 -14 219 10T118 80T62 191T45 338Q45 418 66 484T131 597T239 671T391 697Q416 697 443 695T496 688T544 677T584 664L564 550V550ZM455 856Q455 819 437 804T383 788H377Q341 788 323 803T305 856V867Q305 905 323 920T377 935H383Q418 935 436 920T455 867V856Z"/>
<glyph unicode="ġ" glyph-name="gdotaccent" horiz-adv-x="541" d="M491 316Q491 217 433 172T271 127Q254 127 238 128T207 131Q200 119 197 108T194 92Q194 79 208 79H304Q375 79 419 67T489 27Q507 8 516 -17T525 -77Q525 -154 467 -196T276 -239H268Q141 -239 84 -208T27 -110Q27 -80 43 -58T85 -21Q60 0 60 43Q60 74 77 105T125 162Q90 185 70 222T50 316Q50 414 108 459T271 504Q305 504 333 499T387 485L449 556Q474 540 493 517T527 471L462 427Q476 405 484 378T492 316H491ZM362 316Q362 358 341 380T271 402Q221 402 200 380T179 316Q179 273 200 251T271 229Q320 229 341 251T362 316ZM168 -40Q160 -49 157 -58T154 -77Q154 -104 179 -117T272 -131H287Q397 -131 397 -83Q397 -59 379 -50T311 -40H168ZM345 656Q345 619 327 604T273 588H267Q231 588 213 603T195 656V667Q195 705 213 720T267 735H273Q308 735 326 720T345 667V656Z"/>
<glyph unicode="Ģ" glyph-name="Gcommaaccent" horiz-adv-x="671" d="M564 550Q527 561 485 568T402 575Q298 575 253 516T207 344Q207 286 215 240T247 162Q266 136 297 122T379 107Q398 107 421 109T462 114V258H366V370H617V21Q593 13 562 7T499 -4T434 -11T373 -14Q281 -14 219 10T118 80T62 191T45 338Q45 418 66 484T131 597T239 671T391 697Q416 697 443 695T496 688T544 677T584 664L564 550V550ZM299 -155Q299 -85 367 -85H374Q442 -85 442 -155V-180Q442 -204 441 -230T436 -281T429 -327T421 -360H354V-228Q323 -217 311 -201T299 -155Z"/>
<glyph unicode="ģ" glyph-name="gcommaaccent" horiz-adv-x="541" d="M491 316Q491 217 433 172T271 127Q254 127 238 128T207 131Q200 119 197 108T194 92Q194 79 208 79H304Q375 79 419 67T489 27Q507 8 516 -17T525 -77Q525 -154 467 -196T276 -239H268Q141 -239 84 -208T27 -110Q27 -80 43 -58T85 -21Q60 0 60 43Q60 74 77 105T125 162Q90 185 70 222T50 316Q50 414 108 459T271 504Q305 504 333 499T387 485L449 556Q474 540 493 517T527 471L462 427Q476 405 484 378T492 316H491ZM362 316Q362 358 341 380T271 402Q221 402 200 380T179 316Q179 273 200 251T271 229Q320 229 341 251T362 316ZM168 -40Q160 -49 157 -58T154 -77Q154 -104 179 -117T272 -131H287Q397 -131 397 -83Q397 -59 379 -50T311 -40H168ZM342 636Q342 566 274 566H267Q233 566 216 584T199 637V661Q199 685 200 711T205 762T212 808T220 841H287V709Q318 698 330 682T342 636Z"/>
<glyph unicode="Ĥ" glyph-name="Hcircumflex" horiz-adv-x="701" d="M471 405V684H627V0H471V288H230V0H74V684H230V405H471ZM523 813L473 762L350 860L227 762L177 813L302 957H398L523 813Z"/>
<glyph unicode="ĥ" glyph-name="hcircumflex" horiz-adv-x="573" d="M203 715V464Q241 485 281 494T356 504Q388 504 421 495T474 466Q497 444 506 412T516 337V0H373V320Q373 339 370 350T358 369Q348 378 333 381T296 385Q276 385 248 381T203 369V0H60V715H203ZM306 790L256 739L133 837L10 739L-40 790L85 934H181L306 790Z"/>
<glyph unicode="Ħ" glyph-name="Hbar" horiz-adv-x="736" d="M644 499V0H488V288H247V0H91V499H20V597H91V684H247V597H488V684H644V597H716V499H644ZM488 405V499H247V405H488Z"/>
<glyph unicode="ħ" glyph-name="hbar" horiz-adv-x="573" d="M203 715V650H362V568H203V464Q241 485 281 494T356 504Q388 504 421 495T474 466Q497 444 506 412T516 337V0H373V320Q373 339 370 350T358 369Q348 378 333 381T296 385Q276 385 248 381T203 369V0H60V568H-19V640L60 646V715H203Z"/>
<glyph unicode="Ĩ" glyph-name="Itilde" horiz-adv-x="308" d="M76 684H232V0H76V684ZM595 933Q595 867 567 832T489 796Q467 796 447 802T409 817T375 831T342 838Q309 838 300 792L229 803Q229 869 257 904T335 940Q357 940 377 934T415 919T450 905T482 898Q515 898 524 944L595 933Z"/>
<glyph unicode="ĩ" glyph-name="itilde" horiz-adv-x="269" d="M206 0H63V490H206V0ZM576 733Q576 667 548 632T470 596Q448 596 428 602T390 617T356 631T323 638Q290 638 281 592L210 603Q210 669 238 704T316 740Q338 740 358 734T396 719T431 705T463 698Q496 698 505 744L576 733Z"/>
<glyph unicode="Ī" glyph-name="Imacron" horiz-adv-x="308" d="M76 684H232V0H76V684ZM265 805V903H560V805H265Z"/>
<glyph unicode="ī" glyph-name="imacron" horiz-adv-x="269" d="M206 0H63V490H206V0ZM245 605V703H540V605H245Z"/>
<glyph unicode="Ĭ" glyph-name="Ibreve" horiz-adv-x="308" d="M76 684H232V0H76V684ZM339 938Q344 901 361 882T413 862Q448 862 465 881T487 938L573 935Q573 903 565 874T539 823T489 788T413 775Q368 775 337 788T287 823T260 874T252 935L339 938V938Z"/>
<glyph unicode="ĭ" glyph-name="ibreve" horiz-adv-x="269" d="M206 0H63V490H206V0ZM319 738Q324 701 341 682T393 662Q428 662 445 681T467 738L553 735Q553 703 545 674T519 623T469 588T393 575Q348 575 317 588T267 623T240 674T232 735L319 738V738Z"/>
<glyph unicode="Į" glyph-name="Iogonek" horiz-adv-x="308" d="M212 0Q189 0 168 -8T131 -30T105 -65T95 -110Q95 -167 156 -167Q170 -167 185 -165T212 -158V-235Q189 -242 165 -245T120 -249Q66 -249 31 -220T-5 -132Q-5 -94 17 -57T76 3V684H232V0H212Z"/>
<glyph unicode="į" glyph-name="iogonek" horiz-adv-x="269" d="M206 0H175Q166 0 161 -2T149 -11Q117 -43 105 -69T93 -121Q93 -167 154 -167Q168 -167 183 -165T210 -158V-235Q187 -242 163 -245T118 -249Q64 -249 29 -220T-7 -132Q-7 -97 12 -65T63 -6V490H206V0ZM213 640Q213 603 194 588T138 572H131Q94 572 75 587T56 640V653Q56 690 75 706T131 722H138Q175 722 194 706T213 653V640Z"/>
<glyph unicode="İ" glyph-name="Idotaccent" horiz-adv-x="308" d="M76 684H232V0H76V684ZM487 856Q487 819 469 804T415 788H409Q373 788 355 803T337 856V867Q337 905 355 920T409 935H415Q450 935 468 920T487 867V856Z"/>
<glyph unicode="ı" glyph-name="dotlessi" horiz-adv-x="269" d="M206 0H63V490H206V0Z"/>
<glyph unicode="Ĳ" glyph-name="IJ" horiz-adv-x="722" d="M76 684H232V0H76V684ZM328 114Q351 109 374 108T409 106Q434 106 450 110T477 124T491 153T496 200V684H652V196Q652 132 641 94T603 30Q558 -14 445 -14Q432 -14 421 -14T397 -12T371 -10T339 -5L328 114Z"/>
<glyph unicode="ĳ" glyph-name="ij" horiz-adv-x="538" d="M206 0H63V490H206V0ZM213 640Q213 603 194 588T138 572H131Q94 572 75 587T56 640V653Q56 690 75 706T131 722H138Q175 722 194 706T213 653V640ZM180 -128Q190 -129 202 -129T226 -130Q252 -130 275 -124T309 -107Q323 -94 327 -74T332 -28V490H475V23Q475 -42 465 -90T428 -171T359 -220T248 -237Q234 -237 221 -237T194 -235L180 -128ZM482 640Q482 603 463 588T407 572H400Q363 572 344 587T325 640V653Q325 690 344 706T400 722H407Q444 722 463 706T482 653V640Z"/>
<glyph unicode="Ĵ" glyph-name="Jcircumflex" horiz-adv-x="414" d="M20 114Q43 109 66 108T101 106Q126 106 142 110T169 124T183 153T188 200V684H344V196Q344 132 333 94T295 30Q250 -14 137 -14Q124 -14 113 -14T89 -12T63 -10T31 -5L20 114ZM439 813L389 762L266 860L143 762L93 813L218 957H314L439 813Z"/>
<glyph unicode="ĵ" glyph-name="jcircumflex" horiz-adv-x="269" d="M-89 -128Q-79 -129 -67 -129T-43 -130Q-17 -130 6 -124T40 -107Q54 -94 58 -74T63 -28V490H206V23Q206 -42 196 -90T159 -171T90 -220T-21 -237Q-35 -237 -48 -237T-75 -235L-89 -128ZM308 613L258 562L135 660L12 562L-38 613L87 757H183L308 613Z"/>
<glyph unicode="Ķ" glyph-name="Kcommaaccent" horiz-adv-x="652" d="M644 0H459L294 291L230 218V0H74V684H230V398L459 684H637L395 407L644 0ZM274 -155Q274 -85 342 -85H349Q417 -85 417 -155V-180Q417 -204 416 -230T411 -281T404 -327T396 -360H329V-228Q298 -217 286 -201T274 -155Z"/>
<glyph unicode="ķ" glyph-name="kcommaaccent" horiz-adv-x="544" d="M60 0V715H203V303L356 490H520L347 294L538 0H377L254 195L203 131V0H60ZM218 -155Q218 -85 286 -85H293Q361 -85 361 -155V-180Q361 -204 360 -230T355 -281T348 -327T340 -360H273V-228Q242 -217 230 -201T218 -155Z"/>
<glyph unicode="ĸ" glyph-name="kgreenlandic" horiz-adv-x="544" d="M60 0V490H203V303L356 490H520L347 294L538 0H377L254 195L203 131V0H60Z"/>
<glyph unicode="Ĺ" glyph-name="Lacute" horiz-adv-x="551" d="M74 0V684H230V113H533V0H74ZM309 821L492 991L562 896L359 759L309 821Z"/>
<glyph unicode="ĺ" glyph-name="lacute" horiz-adv-x="269" d="M206 715V0H63V715H206ZM10 811L193 981L263 886L60 749L10 811Z"/>
<glyph unicode="Ļ" glyph-name="Lcommaaccent" horiz-adv-x="551" d="M74 0V684H230V113H533V0H74ZM253 -155Q253 -85 321 -85H328Q396 -85 396 -155V-180Q396 -204 395 -230T390 -281T383 -327T375 -360H308V-228Q277 -217 265 -201T253 -155Z"/>
<glyph unicode="ļ" glyph-name="lcommaaccent" horiz-adv-x="269" d="M206 715V0H63V715H206ZM321 -155Q321 -85 389 -85H396Q464 -85 464 -155V-180Q464 -204 463 -230T458 -281T451 -327T443 -360H376V-228Q345 -217 333 -201T321 -155Z"/>
<glyph unicode="Ľ" glyph-name="Lcaron" horiz-adv-x="551" d="M74 0V684H230V113H533V0H74ZM304 627Q304 697 372 697H379Q447 697 447 627V602Q447 578 446 552T441 501T434 455T426 422H359V554Q328 565 316 581T304 627Z"/>
<glyph unicode="ľ" glyph-name="lcaron" horiz-adv-x="418" d="M206 715V0H63V715H206ZM255 627Q255 697 323 697H330Q398 697 398 627V602Q398 578 397 552T392 501T385 455T377 422H310V554Q279 565 267 581T255 627Z"/>
<glyph unicode="Ŀ" glyph-name="Ldot" horiz-adv-x="551" d="M74 0V684H230V113H533V0H74ZM493 393Q493 356 475 341T421 325H415Q379 325 361 340T343 393V404Q343 442 361 457T415 472H421Q456 472 474 457T493 404V393Z"/>
<glyph unicode="ŀ" glyph-name="ldot" horiz-adv-x="431" d="M206 715V0H63V715H206ZM421 341Q421 304 403 289T349 273H343Q307 273 289 288T271 341V352Q271 390 289 405T343 420H349Q384 420 402 405T421 352V341Z"/>
<glyph unicode="Ł" glyph-name="Lslash" horiz-adv-x="551" d="M74 0V183L40 161L-18 258L74 317V684H230V418L329 485L386 388L230 285V113H533V0H74Z"/>
<glyph unicode="ł" glyph-name="lslash" horiz-adv-x="378" d="M249 715V478L314 519L368 426L249 349V0H106V256L65 229L10 322L106 384V715H249Z"/>
<glyph unicode="Ń" glyph-name="Nacute" horiz-adv-x="724" d="M74 684H189L513 246V684H650V0H525L211 415V0H74V684ZM255 821L438 991L508 896L305 759L255 821Z"/>
<glyph unicode="ń" glyph-name="nacute" horiz-adv-x="573" d="M184 490L187 455Q228 481 272 492T356 504Q388 504 421 495T474 466Q497 444 506 412T516 337V0H373V320Q373 339 370 350T358 369Q348 378 333 381T296 385Q276 385 248 381T203 369V0H60V490H184ZM208 621L391 791L461 696L258 559L208 621Z"/>
<glyph unicode="Ņ" glyph-name="Ncommaaccent" horiz-adv-x="724" d="M74 684H189L513 246V684H650V0H525L211 415V0H74V684ZM300 -155Q300 -85 368 -85H375Q443 -85 443 -155V-180Q443 -204 442 -230T437 -281T430 -327T422 -360H355V-228Q324 -217 312 -201T300 -155Z"/>
<glyph unicode="ņ" glyph-name="ncommaaccent" horiz-adv-x="573" d="M184 490L187 455Q228 481 272 492T356 504Q388 504 421 495T474 466Q497 444 506 412T516 337V0H373V320Q373 339 370 350T358 369Q348 378 333 381T296 385Q276 385 248 381T203 369V0H60V490H184ZM219 -155Q219 -85 287 -85H294Q362 -85 362 -155V-180Q362 -204 361 -230T356 -281T349 -327T341 -360H274V-228Q243 -217 231 -201T219 -155Z"/>
<glyph unicode="Ň" glyph-name="Ncaron" horiz-adv-x="724" d="M74 684H189L513 246V684H650V0H525L211 415V0H74V684ZM410 774H314L189 918L239 969L362 871L485 969L535 918L410 774Z"/>
<glyph unicode="ň" glyph-name="ncaron" horiz-adv-x="573" d="M184 490L187 455Q228 481 272 492T356 504Q388 504 421 495T474 466Q497 444 506 412T516 337V0H373V320Q373 339 370 350T358 369Q348 378 333 381T296 385Q276 385 248 381T203 369V0H60V490H184ZM364 574H268L143 718L193 769L316 671L439 769L489 718L364 574Z"/>
<glyph unicode="ŉ" glyph-name="napostrophe" horiz-adv-x="735" d="M346 490L349 455Q390 481 434 492T518 504Q550 504 583 495T636 466Q659 444 668 412T678 337V0H535V320Q535 339 532 350T520 369Q510 378 495 381T458 385Q438 385 410 381T365 369V0H222V490H346ZM278 622Q278 658 296 677T351 697H358Q432 697 432 622V595Q432 542 429 497T416 426Q412 414 403 408T377 402H337V544Q304 555 291 572T278 621V622Z"/>
<glyph unicode="Ŋ" glyph-name="Eng" horiz-adv-x="724" d="M326 -121Q338 -123 353 -124T382 -127T408 -128T426 -129Q451 -129 467 -125T494 -111T508 -82T513 -35V16L211 415V0H74V684H189L513 246V684H650V-29Q650 -93 639 -131T601 -195Q556 -239 443 -239Q430 -239 419 -239T395 -237T369 -235T337 -230L326 -121Z"/>
<glyph unicode="ŋ" glyph-name="eng" horiz-adv-x="573" d="M221 -128Q231 -129 243 -129T267 -130Q293 -130 316 -124T350 -107Q364 -94 368 -74T373 -28V320Q373 339 370 350T358 369Q348 378 333 381T296 385Q276 385 248 381T203 369V0H60V490H184L187 455Q228 481 272 492T356 504Q388 504 421 495T474 466Q497 444 506 412T516 337V23Q516 -42 506 -90T469 -171T400 -220T289 -237Q275 -237 262 -237T235 -235L221 -128Z"/>
<glyph unicode="Ō" glyph-name="Omacron" horiz-adv-x="696" d="M651 341Q651 168 578 77T348 -14Q191 -14 118 77T45 341Q45 514 118 605T348 697Q505 697 578 606T651 341ZM489 341Q489 465 457 520T348 575Q272 575 240 520T207 341Q207 217 239 163T348 108Q424 108 456 162T489 341ZM200 805V903H495V805H200Z"/>
<glyph unicode="ō" glyph-name="omacron" horiz-adv-x="568" d="M533 245Q533 186 518 138T472 57T395 5T284 -14Q220 -14 173 4T96 56T50 138T35 245Q35 304 50 352T95 433T173 485T284 504Q348 504 394 486T472 434T518 352T533 245ZM384 245Q384 321 361 358T284 395Q230 395 207 358T184 245Q184 169 207 132T284 95Q338 95 361 132T384 245ZM136 605V703H431V605H136Z"/>
<glyph unicode="Ŏ" glyph-name="Obreve" horiz-adv-x="696" d="M651 341Q651 168 578 77T348 -14Q191 -14 118 77T45 341Q45 514 118 605T348 697Q505 697 578 606T651 341ZM489 341Q489 465 457 520T348 575Q272 575 240 520T207 341Q207 217 239 163T348 108Q424 108 456 162T489 341ZM274 938Q279 901 296 882T348 862Q383 862 400 881T422 938L508 935Q508 903 500 874T474 823T424 788T348 775Q303 775 272 788T222 823T195 874T187 935L274 938V938Z"/>
<glyph unicode="ŏ" glyph-name="obreve" horiz-adv-x="568" d="M533 245Q533 186 518 138T472 57T395 5T284 -14Q220 -14 173 4T96 56T50 138T35 245Q35 304 50 352T95 433T173 485T284 504Q348 504 394 486T472 434T518 352T533 245ZM384 245Q384 321 361 358T284 395Q230 395 207 358T184 245Q184 169 207 132T284 95Q338 95 361 132T384 245ZM210 738Q215 701 232 682T284 662Q319 662 336 681T358 738L444 735Q444 703 436 674T410 623T360 588T284 575Q239 575 208 588T158 623T131 674T123 735L210 738V738Z"/>
<glyph unicode="Ő" glyph-name="Ohungarumlaut" horiz-adv-x="696" d="M651 341Q651 168 578 77T348 -14Q191 -14 118 77T45 341Q45 514 118 605T348 697Q505 697 578 606T651 341ZM489 341Q489 465 457 520T348 575Q272 575 240 520T207 341Q207 217 239 163T348 108Q424 108 456 162T489 341ZM347 810L488 1012L564 936L402 768L347 810ZM160 810L301 1012L377 936L215 768L160 810Z"/>
<glyph unicode="ő" glyph-name="ohungarumlaut" horiz-adv-x="568" d="M533 245Q533 186 518 138T472 57T395 5T284 -14Q220 -14 173 4T96 56T50 138T35 245Q35 304 50 352T95 433T173 485T284 504Q348 504 394 486T472 434T518 352T533 245ZM384 245Q384 321 361 358T284 395Q230 395 207 358T184 245Q184 169 207 132T284 95Q338 95 361 132T384 245ZM282 610L423 812L499 736L337 568L282 610ZM95 610L236 812L312 736L150 568L95 610Z"/>
<glyph unicode="Œ" glyph-name="OE" horiz-adv-x="980" d="M933 684L921 572H627V406H862V287H627V112H938V0H379Q288 0 227 19T127 77Q85 119 65 185T45 345Q45 439 67 503T130 607Q172 650 239 667T404 684H933ZM471 583H410Q352 583 317 573T259 538Q233 510 220 464T207 345Q207 282 215 238T244 162Q265 132 300 117T389 101H471V583Z"/>
<glyph unicode="œ" glyph-name="oe" horiz-adv-x="877" d="M534 201Q535 179 542 159T563 125Q594 95 687 95Q718 95 745 98T802 106L813 2Q778 -5 741 -9T653 -14Q521 -14 456 43Q394 -14 284 -14Q220 -14 173 4T96 56T50 138T35 245Q35 304 50 352T95 433T173 485T284 504Q341 504 383 490T455 447Q515 504 622 504Q734 504 790 445T847 257V212Q847 201 835 201H534ZM284 395Q230 395 207 358T184 245Q184 169 207 132T284 95Q336 95 359 129T384 232V245Q384 321 361 358T284 395ZM707 294Q707 341 686 368T621 396Q577 396 557 369T534 294H707Z"/>
<glyph unicode="Ŕ" glyph-name="Racute" horiz-adv-x="648" d="M230 0H74V684H309Q392 684 443 673T529 629Q555 604 570 565T586 472Q586 402 557 349T470 269L618 0H442L316 248H230V0ZM230 361H299Q338 361 361 366T399 385Q414 398 421 419T428 470Q428 522 404 546Q389 560 364 565T300 571H230V361ZM207 821L390 991L460 896L257 759L207 821Z"/>
<glyph unicode="ŕ" glyph-name="racute" horiz-adv-x="380" d="M184 490L189 450Q203 463 221 473T260 489T301 499T339 503Q345 503 352 503T364 501V376Q352 378 335 379T301 380Q272 380 249 377T203 368V0H60V490H184ZM94 621L277 791L347 696L144 559L94 621Z"/>
<glyph unicode="Ŗ" glyph-name="Rcommaaccent" horiz-adv-x="648" d="M230 0H74V684H309Q392 684 443 673T529 629Q555 604 570 565T586 472Q586 402 557 349T470 269L618 0H442L316 248H230V0ZM230 361H299Q338 361 361 366T399 385Q414 398 421 419T428 470Q428 522 404 546Q389 560 364 565T300 571H230V361ZM264 -155Q264 -85 332 -85H339Q407 -85 407 -155V-180Q407 -204 406 -230T401 -281T394 -327T386 -360H319V-228Q288 -217 276 -201T264 -155Z"/>
<glyph unicode="ŗ" glyph-name="rcommaaccent" horiz-adv-x="380" d="M184 490L189 450Q203 463 221 473T260 489T301 499T339 503Q345 503 352 503T364 501V376Q352 378 335 379T301 380Q272 380 249 377T203 368V0H60V490H184ZM316 -155Q316 -85 384 -85H391Q459 -85 459 -155V-180Q459 -204 458 -230T453 -281T446 -327T438 -360H371V-228Q340 -217 328 -201T316 -155Z"/>
<glyph unicode="Ř" glyph-name="Rcaron" horiz-adv-x="648" d="M230 0H74V684H309Q392 684 443 673T529 629Q555 604 570 565T586 472Q586 402 557 349T470 269L618 0H442L316 248H230V0ZM230 361H299Q338 361 361 366T399 385Q414 398 421 419T428 470Q428 522 404 546Q389 560 364 565T300 571H230V361ZM380 774H284L159 918L209 969L332 871L455 969L505 918L380 774Z"/>
<glyph unicode="ř" glyph-name="rcaron" horiz-adv-x="380" d="M184 490L189 450Q203 463 221 473T260 489T301 499T339 503Q345 503 352 503T364 501V376Q352 378 335 379T301 380Q272 380 249 377T203 368V0H60V490H184ZM268 574H172L47 718L97 769L220 671L343 769L393 718L268 574Z"/>
<glyph unicode="Ś" glyph-name="Sacute" horiz-adv-x="590" d="M48 497Q48 549 67 587T121 649T201 685T303 697Q353 697 403 690T494 669L470 553Q428 564 385 570T306 577Q243 577 219 557T195 504Q195 470 221 453T285 424T369 400T453 364T518 302T544 195Q544 149 529 113T487 51Q451 17 401 2T276 -14Q210 -14 156 -6T49 21L73 140Q95 132 120 126T171 116T219 109T262 106Q331 106 364 125T397 193Q397 225 371 241T307 269T223 292T139 327T74 390T48 497ZM178 821L361 991L431 896L228 759L178 821Z"/>
<glyph unicode="ś" glyph-name="sacute" horiz-adv-x="475" d="M250 504Q287 504 330 498T413 477L402 372Q364 383 323 388T251 394Q172 394 172 354Q172 333 192 324T241 309T306 296T370 273T420 227T440 147Q440 70 385 28T219 -14Q197 -14 173 -12T126 -6T83 3T47 13L58 119Q86 110 131 103T216 96Q257 96 280 105T304 141Q304 163 284 172T235 188T171 200T107 221T57 266T37 346Q37 380 49 409T88 459T155 492T250 504ZM131 621L314 791L384 696L181 559L131 621Z"/>
<glyph unicode="Ŝ" glyph-name="Scircumflex" horiz-adv-x="590" d="M48 497Q48 549 67 587T121 649T201 685T303 697Q353 697 403 690T494 669L470 553Q428 564 385 570T306 577Q243 577 219 557T195 504Q195 470 221 453T285 424T369 400T453 364T518 302T544 195Q544 149 529 113T487 51Q451 17 401 2T276 -14Q210 -14 156 -6T49 21L73 140Q95 132 120 126T171 116T219 109T262 106Q331 106 364 125T397 193Q397 225 371 241T307 269T223 292T139 327T74 390T48 497ZM468 813L418 762L295 860L172 762L122 813L247 957H343L468 813Z"/>
<glyph unicode="ŝ" glyph-name="scircumflex" horiz-adv-x="475" d="M250 504Q287 504 330 498T413 477L402 372Q364 383 323 388T251 394Q172 394 172 354Q172 333 192 324T241 309T306 296T370 273T420 227T440 147Q440 70 385 28T219 -14Q197 -14 173 -12T126 -6T83 3T47 13L58 119Q86 110 131 103T216 96Q257 96 280 105T304 141Q304 163 284 172T235 188T171 200T107 221T57 266T37 346Q37 380 49 409T88 459T155 492T250 504ZM412 613L362 562L239 660L116 562L66 613L191 757H287L412 613Z"/>
<glyph unicode="Ş" glyph-name="Scedilla" horiz-adv-x="590" d="M336 -49Q384 -67 401 -86T418 -140Q418 -188 391 -218Q377 -235 352 -243T299 -252Q249 -252 210 -238V-163Q227 -168 246 -170T279 -173Q323 -173 323 -150Q323 -141 314 -133T267 -113Q238 -104 225 -91T212 -53Q212 -35 222 -12Q174 -9 132 -1T49 21L73 140Q95 132 120 126T171 116T219 109T262 106Q331 106 364 125T397 193Q397 225 371 241T307 269T223 292T139 327T74 390T48 497Q48 549 67 587T121 649T201 685T303 697Q353 697 403 690T494 669L470 553Q428 564 385 570T306 577Q243 577 219 557T195 504Q195 470 221 453T285 424T369 400T453 364T518 302T544 195Q544 149 529 113T487 51Q454 19 409 4T299 -13V-21Q299 -29 305 -34T336 -49Z"/>
<glyph unicode="ş" glyph-name="scedilla" horiz-adv-x="475" d="M290 -49Q338 -67 355 -86T372 -140Q372 -188 345 -218Q331 -235 306 -243T253 -252Q203 -252 164 -238V-163Q181 -168 200 -170T233 -173Q277 -173 277 -150Q277 -141 268 -133T221 -113Q192 -104 179 -91T166 -53Q166 -34 176 -12Q140 -9 105 -2T47 13L58 119Q86 110 131 103T216 96Q257 96 280 105T304 141Q304 163 284 172T235 188T171 200T107 221T57 266T37 346Q37 380 49 409T88 459T155 492T250 504Q287 504 330 498T413 477L402 372Q364 383 323 388T251 394Q172 394 172 354Q172 333 192 324T241 309T306 296T370 273T420 227T440 147Q440 76 394 35T254 -13Q253 -16 253 -21Q253 -29 259 -34T290 -49Z"/>
<glyph unicode="Š" glyph-name="Scaron" horiz-adv-x="590" d="M48 497Q48 549 67 587T121 649T201 685T303 697Q353 697 403 690T494 669L470 553Q428 564 385 570T306 577Q243 577 219 557T195 504Q195 470 221 453T285 424T369 400T453 364T518 302T544 195Q544 149 529 113T487 51Q451 17 401 2T276 -14Q210 -14 156 -6T49 21L73 140Q95 132 120 126T171 116T219 109T262 106Q331 106 364 125T397 193Q397 225 371 241T307 269T223 292T139 327T74 390T48 497ZM348 774H252L127 918L177 969L300 871L423 969L473 918L348 774Z"/>
<glyph unicode="š" glyph-name="scaron" horiz-adv-x="475" d="M250 504Q287 504 330 498T413 477L402 372Q364 383 323 388T251 394Q172 394 172 354Q172 333 192 324T241 309T306 296T370 273T420 227T440 147Q440 70 385 28T219 -14Q197 -14 173 -12T126 -6T83 3T47 13L58 119Q86 110 131 103T216 96Q257 96 280 105T304 141Q304 163 284 172T235 188T171 200T107 221T57 266T37 346Q37 380 49 409T88 459T155 492T250 504ZM285 574H189L64 718L114 769L237 671L360 769L410 718L285 574Z"/>
<glyph unicode="Ţ" glyph-name="Tcommaaccent" horiz-adv-x="608" d="M14 571V684H601L589 571H382V0H226V571H14ZM232 -155Q232 -85 300 -85H307Q375 -85 375 -155V-180Q375 -204 374 -230T369 -281T362 -327T354 -360H287V-228Q256 -217 244 -201T232 -155Z"/>
<glyph unicode="ţ" glyph-name="tcommaaccent" horiz-adv-x="401" d="M8 475L91 490V599Q123 609 161 614T234 620V490H361V397H234V168Q234 147 236 133T246 110T267 97T303 93Q318 93 338 95T372 99L377 -2Q353 -7 319 -10T252 -14Q206 -14 175 -4T126 26T99 77T91 148V397H8V475ZM170 -155Q170 -85 238 -85H245Q313 -85 313 -155V-180Q313 -204 312 -230T307 -281T300 -327T292 -360H225V-228Q194 -217 182 -201T170 -155Z"/>
<glyph unicode="Ť" glyph-name="Tcaron" horiz-adv-x="608" d="M14 571V684H601L589 571H382V0H226V571H14ZM352 774H256L131 918L181 969L304 871L427 969L477 918L352 774Z"/>
<glyph unicode="ť" glyph-name="tcaron" horiz-adv-x="401" d="M8 475L91 490V599Q123 609 161 614T234 620V490H361V397H234V168Q234 147 236 133T246 110T267 97T303 93Q318 93 338 95T372 99L377 -2Q353 -7 319 -10T252 -14Q206 -14 175 -4T126 26T99 77T91 148V397H8V475ZM247 771Q247 841 315 841H322Q390 841 390 771V746Q390 722 389 696T384 645T377 599T369 566H302V698Q271 709 259 725T247 771Z"/>
<glyph unicode="Ŧ" glyph-name="Tbar" horiz-adv-x="608" d="M14 571V684H601L589 571H382V364H507V266H382V0H226V266H101V364H226V571H14Z"/>
<glyph unicode="ŧ" glyph-name="tbar" horiz-adv-x="405" d="M12 475L95 490V599Q127 609 165 614T238 620V490H365V397H238V294H347V212H238V168Q238 147 240 133T250 110T271 97T307 93Q322 93 342 95T376 99L381 -2Q357 -7 323 -10T256 -14Q210 -14 179 -4T130 26T103 77T95 148V212H22V284L95 289V397H12V475Z"/>
<glyph unicode="Ũ" glyph-name="Utilde" horiz-adv-x="694" d="M488 684H626V258Q626 192 612 141T559 54Q525 22 470 4T349 -14Q277 -14 223 2T134 52Q100 85 84 131T68 251V684H223V251Q223 212 230 184T256 138Q287 105 356 105Q424 105 455 137Q473 155 480 182T488 250V684ZM540 933Q540 867 512 832T434 796Q412 796 392 802T354 817T320 831T287 838Q254 838 245 792L174 803Q174 869 202 904T280 940Q302 940 322 934T360 919T395 905T427 898Q460 898 469 944L540 933Z"/>
<glyph unicode="ũ" glyph-name="utilde" horiz-adv-x="569" d="M385 0L381 33Q341 8 298 -3T217 -14Q185 -14 152 -5T99 24Q76 46 67 78T57 153V490H200V173Q200 136 215 121Q225 112 240 109T277 105Q296 105 322 109T366 119V490H509V0H385ZM477 733Q477 667 449 632T371 596Q349 596 329 602T291 617T257 631T224 638Q191 638 182 592L111 603Q111 669 139 704T217 740Q239 740 259 734T297 719T332 705T364 698Q397 698 406 744L477 733Z"/>
<glyph unicode="Ū" glyph-name="Umacron" horiz-adv-x="694" d="M488 684H626V258Q626 192 612 141T559 54Q525 22 470 4T349 -14Q277 -14 223 2T134 52Q100 85 84 131T68 251V684H223V251Q223 212 230 184T256 138Q287 105 356 105Q424 105 455 137Q473 155 480 182T488 250V684ZM209 805V903H504V805H209Z"/>
<glyph unicode="ū" glyph-name="umacron" horiz-adv-x="569" d="M385 0L381 33Q341 8 298 -3T217 -14Q185 -14 152 -5T99 24Q76 46 67 78T57 153V490H200V173Q200 136 215 121Q225 112 240 109T277 105Q296 105 322 109T366 119V490H509V0H385ZM142 605V703H437V605H142Z"/>
<glyph unicode="Ŭ" glyph-name="Ubreve" horiz-adv-x="694" d="M488 684H626V258Q626 192 612 141T559 54Q525 22 470 4T349 -14Q277 -14 223 2T134 52Q100 85 84 131T68 251V684H223V251Q223 212 230 184T256 138Q287 105 356 105Q424 105 455 137Q473 155 480 182T488 250V684ZM283 938Q288 901 305 882T357 862Q392 862 409 881T431 938L517 935Q517 903 509 874T483 823T433 788T357 775Q312 775 281 788T231 823T204 874T196 935L283 938V938Z"/>
<glyph unicode="ŭ" glyph-name="ubreve" horiz-adv-x="569" d="M385 0L381 33Q341 8 298 -3T217 -14Q185 -14 152 -5T99 24Q76 46 67 78T57 153V490H200V173Q200 136 215 121Q225 112 240 109T277 105Q296 105 322 109T366 119V490H509V0H385ZM215 738Q220 701 237 682T289 662Q324 662 341 681T363 738L449 735Q449 703 441 674T415 623T365 588T289 575Q244 575 213 588T163 623T136 674T128 735L215 738V738Z"/>
<glyph unicode="Ů" glyph-name="Uring" horiz-adv-x="694" d="M488 684H626V258Q626 192 612 141T559 54Q525 22 470 4T349 -14Q277 -14 223 2T134 52Q100 85 84 131T68 251V684H223V251Q223 212 230 184T256 138Q287 105 356 105Q424 105 455 137Q473 155 480 182T488 250V684ZM359 832Q385 832 397 843T410 884V888Q410 918 398 928T359 939H356Q329 939 316 929T303 888V884Q303 855 316 844T356 832H359ZM361 1005Q419 1005 450 980T481 894V880Q481 821 450 795T361 769H354Q295 769 264 795T233 880V894Q233 954 264 979T354 1005H361Z"/>
<glyph unicode="ů" glyph-name="uring" horiz-adv-x="569" d="M385 0L381 33Q341 8 298 -3T217 -14Q185 -14 152 -5T99 24Q76 46 67 78T57 153V490H200V173Q200 136 215 121Q225 112 240 109T277 105Q296 105 322 109T366 119V490H509V0H385ZM290 632Q316 632 328 643T341 684V688Q341 718 329 728T290 739H287Q260 739 247 729T234 688V684Q234 655 247 644T287 632H290ZM292 805Q350 805 381 780T412 694V680Q412 621 381 595T292 569H285Q226 569 195 595T164 680V694Q164 754 195 779T285 805H292Z"/>
<glyph unicode="Ű" glyph-name="Uhungarumlaut" horiz-adv-x="694" d="M488 684H626V258Q626 192 612 141T559 54Q525 22 470 4T349 -14Q277 -14 223 2T134 52Q100 85 84 131T68 251V684H223V251Q223 212 230 184T256 138Q287 105 356 105Q424 105 455 137Q473 155 480 182T488 250V684ZM346 810L487 1012L563 936L401 768L346 810ZM159 810L300 1012L376 936L214 768L159 810Z"/>
<glyph unicode="ű" glyph-name="uhungarumlaut" horiz-adv-x="569" d="M385 0L381 33Q341 8 298 -3T217 -14Q185 -14 152 -5T99 24Q76 46 67 78T57 153V490H200V173Q200 136 215 121Q225 112 240 109T277 105Q296 105 322 109T366 119V490H509V0H385ZM291 610L432 812L508 736L346 568L291 610ZM104 610L245 812L321 736L159 568L104 610Z"/>
<glyph unicode="Ų" glyph-name="Uogonek" horiz-adv-x="694" d="M249 -132Q249 -99 266 -69T311 -12Q253 -8 208 7T134 52Q100 85 84 131T68 251V684H223V251Q223 212 230 184T256 138Q287 105 356 105Q424 105 455 137Q473 155 480 182T488 250V684H626V258Q626 192 612 141T559 54Q533 29 494 13T407 -10Q377 -43 363 -69T349 -122Q349 -167 410 -167Q424 -167 439 -165T466 -158V-235Q443 -242 419 -245T374 -249Q320 -249 285 -220T249 -132Z"/>
<glyph unicode="ų" glyph-name="uogonek" horiz-adv-x="569" d="M381 33Q341 8 298 -3T217 -14Q185 -14 152 -5T99 24Q76 46 67 78T57 153V490H200V173Q200 136 215 121Q225 112 240 109T277 105Q296 105 322 109T366 119V490H509V0H494Q478 0 467 -11Q438 -40 425 -67T412 -118Q412 -142 425 -154T473 -167Q487 -167 502 -165T529 -158V-235Q506 -242 482 -245T437 -249Q383 -249 348 -220T312 -132Q312 -89 335 -57T394 4L381 33Z"/>
<glyph unicode="Ŵ" glyph-name="Wcircumflex" horiz-adv-x="963" d="M688 191L810 684H951L766 0H596L484 399L381 0H212L12 684H177L304 190L427 684H554L688 191ZM662 813L612 762L489 860L366 762L316 813L441 957H537L662 813Z"/>
<glyph unicode="ŵ" glyph-name="wcircumflex" horiz-adv-x="791" d="M396 260L319 0H154L10 490H161L248 141L335 490H464L558 141L640 490H781L640 0H474L396 260ZM568 613L518 562L395 660L272 562L222 613L347 757H443L568 613Z"/>
<glyph unicode="Ŷ" glyph-name="Ycircumflex" horiz-adv-x="662" d="M12 684H188L338 408L494 684H650L404 278V0H248V279L12 684ZM504 813L454 762L331 860L208 762L158 813L283 957H379L504 813Z"/>
<glyph unicode="ŷ" glyph-name="ycircumflex" horiz-adv-x="571" d="M214 -9Q182 -9 151 0T100 29Q78 51 68 80T57 153V490H200V173Q200 154 203 143T215 124Q225 115 239 112T276 108Q296 108 323 113T368 126V490H511V21Q511 -44 501 -92T464 -173T395 -222T284 -239Q248 -239 218 -236T159 -226L149 -120Q174 -125 199 -128T261 -131Q287 -131 310 -125T344 -108Q358 -95 363 -75T368 -29V31Q332 11 292 1T214 -9ZM458 613L408 562L285 660L162 562L112 613L237 757H333L458 613Z"/>
<glyph unicode="Ÿ" glyph-name="Ydieresis" horiz-adv-x="662" d="M12 684H188L338 408L494 684H650L404 278V0H248V279L12 684ZM297 854Q297 820 280 805T229 790H223Q189 790 173 805T156 854V865Q156 900 172 914T223 929H229Q262 929 279 915T297 865V854ZM505 854Q505 820 489 805T438 790H432Q400 790 382 805T364 854V865Q364 900 382 914T432 929H438Q472 929 488 915T505 865V854Z"/>
<glyph unicode="Ź" glyph-name="Zacute" horiz-adv-x="596" d="M34 0V92L366 569H44V684H558V588L231 115H560V0H34ZM191 821L374 991L444 896L241 759L191 821Z"/>
<glyph unicode="ź" glyph-name="zacute" horiz-adv-x="442" d="M18 0V81L246 399H24V490H414V407L187 91H426V0H18ZM104 621L287 791L357 696L154 559L104 621Z"/>
<glyph unicode="Ż" glyph-name="Zdotaccent" horiz-adv-x="596" d="M34 0V92L366 569H44V684H558V588L231 115H560V0H34ZM378 856Q378 819 360 804T306 788H300Q264 788 246 803T228 856V867Q228 905 246 920T300 935H306Q341 935 359 920T378 867V856Z"/>
<glyph unicode="ż" glyph-name="zdotaccent" horiz-adv-x="442" d="M18 0V81L246 399H24V490H414V407L187 91H426V0H18ZM296 656Q296 619 278 604T224 588H218Q182 588 164 603T146 656V667Q146 705 164 720T218 735H224Q259 735 277 720T296 667V656Z"/>
<glyph unicode="Ž" glyph-name="Zcaron" horiz-adv-x="596" d="M34 0V92L366 569H44V684H558V588L231 115H560V0H34ZM346 774H250L125 918L175 969L298 871L421 969L471 918L346 774Z"/>
<glyph unicode="ž" glyph-name="zcaron" horiz-adv-x="448" d="M24 0V81L252 399H30V490H420V407L193 91H432V0H24ZM272 574H176L51 718L101 769L224 671L347 769L397 718L272 574Z"/>
<glyph unicode="ſ" glyph-name="longs" horiz-adv-x="359" d="M241 0H98V397H14V474L98 489V557Q98 602 107 633T139 687Q159 708 196 720T285 732Q313 732 338 729T389 721V619Q374 621 356 623T322 625Q273 625 255 607Q248 600 245 588T241 549V0Z"/>
<glyph unicode="ƒ" glyph-name="florin" horiz-adv-x="600" d="M336 -78Q329 -166 282 -211T134 -256Q106 -256 81 -253T30 -245V-143Q45 -145 63 -147T97 -149Q145 -149 167 -131T192 -70L220 277H115V353L226 357L245 567Q252 654 299 698T446 743Q474 743 499 740T550 732V630Q535 632 517 634T483 636Q435 636 414 618T388 557L370 358H491V277H364L336 -78Z"/>
<glyph unicode="Ǻ" glyph-name="Aringacute" horiz-adv-x="658" d="M429 172H207L154 0H5L234 684H406L653 0H486L429 172ZM243 285H391L316 513H314L243 285ZM319 806Q345 806 357 817T370 858V862Q370 892 358 902T319 913H316Q289 913 276 903T263 862V858Q263 829 276 818T316 806H319ZM321 979Q379 979 410 954T441 868V854Q441 795 410 769T321 743H314Q255 743 224 769T193 854V868Q193 928 224 953T314 979H321ZM192 1071L375 1241L445 1146L242 1009L192 1071Z"/>
<glyph unicode="ǻ" glyph-name="aringacute" horiz-adv-x="531" d="M331 211H255Q229 211 213 208T187 194Q173 180 173 153Q173 126 188 111T243 95Q263 95 288 100T331 110V211ZM349 30Q317 10 279 -2T202 -14Q118 -14 74 31T30 147Q30 180 41 209T73 258Q99 283 141 293T253 303H331V319Q331 357 313 374Q300 385 280 389T230 394Q195 394 157 390T93 381L86 486Q124 494 169 499T260 504Q317 504 363 491T436 448Q474 404 474 318V0H361L349 30ZM267 870Q293 870 305 881T318 922V926Q318 956 306 966T267 977H264Q237 977 224 967T211 926V922Q211 893 224 882T264 870H267ZM269 1043Q327 1043 358 1018T389 932V918Q389 859 358 833T269 807H262Q203 807 172 833T141 918V932Q141 992 172 1017T262 1043H269ZM139 875L322 1045L392 950L189 813L139 875Z"/>
<glyph unicode="Ǽ" glyph-name="AEacute" horiz-adv-x="1003" d="M494 298V561L340 298H494ZM162 0H2L424 684H956L944 572H650V406H885V287H650V112H961V0H494V187H272L162 0ZM574 821L757 991L827 896L624 759L574 821Z"/>
<glyph unicode="ǽ" glyph-name="aeacute" horiz-adv-x="817" d="M593 -14Q525 -14 475 1T392 46Q375 34 353 23T305 4T253 -9T202 -14Q118 -14 74 31T30 147Q30 180 41 209T73 258Q99 283 141 293T253 303H331V321Q330 341 326 353T313 374Q300 385 280 389T230 394Q195 394 157 390T93 381L86 486Q124 494 169 499T260 504Q308 504 349 495T418 465Q475 504 562 504Q673 504 730 445T787 257V212Q787 201 775 201H474Q477 139 515 117T625 95Q651 95 685 98T747 107L758 3Q723 -4 681 -9T593 -14ZM243 95Q263 95 291 100T346 114Q339 133 336 156T331 211H255Q229 211 213 208T187 194Q173 180 173 153Q173 126 188 111T243 95ZM647 294Q647 341 626 368T561 396Q517 396 497 369T474 294H647ZM340 621L523 791L593 696L390 559L340 621Z"/>
<glyph unicode="Ǿ" glyph-name="Oslashacute" horiz-adv-x="698" d="M653 341Q653 168 580 77T349 -14Q306 -14 266 -6L242 -74H155L189 20Q115 58 80 139T45 341Q45 514 118 605T349 697Q372 697 392 695T431 689L456 757H543L509 663Q583 624 618 543T653 341ZM491 341Q491 404 483 448T457 521L309 112Q325 108 349 108Q425 108 458 162T491 341ZM207 341Q207 278 215 234T240 162L388 571Q372 575 349 575Q273 575 240 520T207 341ZM222 821L405 991L475 896L272 759L222 821Z"/>
<glyph unicode="ǿ" glyph-name="oslashacute" horiz-adv-x="568" d="M533 245Q533 186 518 138T472 57T395 5T284 -14Q270 -14 257 -13T232 -10L205 -84H121L156 12Q94 41 65 101T35 245Q35 304 50 352T95 433T173 485T284 504Q298 504 311 503T336 500L363 574H447L412 478Q474 448 503 388T533 245ZM384 245Q384 314 365 351L271 95H284Q338 95 361 132T384 245ZM184 245Q184 176 203 139L297 394Q294 395 291 395T284 395Q230 395 207 358T184 245ZM157 621L340 791L410 696L207 559L157 621Z"/>
<glyph unicode="Ș" glyph-name="Scommaaccent" horiz-adv-x="590" d="M48 497Q48 549 67 587T121 649T201 685T303 697Q353 697 403 690T494 669L470 553Q428 564 385 570T306 577Q243 577 219 557T195 504Q195 470 221 453T285 424T369 400T453 364T518 302T544 195Q544 149 529 113T487 51Q451 17 401 2T276 -14Q210 -14 156 -6T49 21L73 140Q95 132 120 126T171 116T219 109T262 106Q331 106 364 125T397 193Q397 225 371 241T307 269T223 292T139 327T74 390T48 497ZM223 -155Q223 -85 291 -85H298Q366 -85 366 -155V-180Q366 -204 365 -230T360 -281T353 -327T345 -360H278V-228Q247 -217 235 -201T223 -155Z"/>
<glyph unicode="ș" glyph-name="scommaaccent" horiz-adv-x="475" d="M250 504Q287 504 330 498T413 477L402 372Q364 383 323 388T251 394Q172 394 172 354Q172 333 192 324T241 309T306 296T370 273T420 227T440 147Q440 70 385 28T219 -14Q197 -14 173 -12T126 -6T83 3T47 13L58 119Q86 110 131 103T216 96Q257 96 280 105T304 141Q304 163 284 172T235 188T171 200T107 221T57 266T37 346Q37 380 49 409T88 459T155 492T250 504ZM166 -155Q166 -85 234 -85H241Q309 -85 309 -155V-180Q309 -204 308 -230T303 -281T296 -327T288 -360H221V-228Q190 -217 178 -201T166 -155Z"/>
<glyph unicode="Ț" glyph-name="uni021A" horiz-adv-x="608" d="M14 571V684H601L589 571H382V0H226V571H14ZM232 -155Q232 -85 300 -85H307Q375 -85 375 -155V-180Q375 -204 374 -230T369 -281T362 -327T354 -360H287V-228Q256 -217 244 -201T232 -155Z"/>
<glyph unicode="ț" glyph-name="uni021B" horiz-adv-x="401" d="M8 475L91 490V599Q123 609 161 614T234 620V490H361V397H234V168Q234 147 236 133T246 110T267 97T303 93Q318 93 338 95T372 99L377 -2Q353 -7 319 -10T252 -14Q206 -14 175 -4T126 26T99 77T91 148V397H8V475ZM170 -155Q170 -85 238 -85H245Q313 -85 313 -155V-180Q313 -204 312 -230T307 -281T300 -327T292 -360H225V-228Q194 -217 182 -201T170 -155Z"/>
<glyph unicode="ˆ" glyph-name="circumflex" horiz-adv-x="428" d="M387 613L337 562L214 660L91 562L41 613L166 757H262L387 613Z"/>
<glyph unicode="ˇ" glyph-name="caron" horiz-adv-x="428" d="M262 574H166L41 718L91 769L214 671L337 769L387 718L262 574Z"/>
<glyph unicode="˘" glyph-name="breve" horiz-adv-x="428" d="M140 738Q145 701 162 682T214 662Q249 662 266 681T288 738L374 735Q374 703 366 674T340 623T290 588T214 575Q169 575 138 588T88 623T61 674T53 735L140 738V738Z"/>
<glyph unicode="˙" glyph-name="dotaccent" horiz-adv-x="428" d="M289 656Q289 619 271 604T217 588H211Q175 588 157 603T139 656V667Q139 705 157 720T211 735H217Q252 735 270 720T289 667V656Z"/>
<glyph unicode="˚" glyph-name="ring" horiz-adv-x="428" d="M216 632Q242 632 254 643T267 684V688Q267 718 255 728T216 739H213Q186 739 173 729T160 688V684Q160 655 173 644T213 632H216ZM218 805Q276 805 307 780T338 694V680Q338 621 307 595T218 569H211Q152 569 121 595T90 680V694Q90 754 121 779T211 805H218Z"/>
<glyph unicode="˛" glyph-name="ogonek" horiz-adv-x="428" d="M105 -132Q105 -90 132 -52T201 15H287Q245 -28 225 -60T205 -122Q205 -167 266 -167Q280 -167 295 -165T322 -158V-235Q299 -242 275 -245T230 -249Q176 -249 141 -220T105 -132Z"/>
<glyph unicode="˜" glyph-name="tilde" horiz-adv-x="428" d="M397 733Q397 667 369 632T291 596Q269 596 249 602T211 617T177 631T144 638Q111 638 102 592L31 603Q31 669 59 704T137 740Q159 740 179 734T217 719T252 705T284 698Q317 698 326 744L397 733Z"/>
<glyph unicode="˝" glyph-name="hungarumlaut" horiz-adv-x="428" d="M199 610L340 812L416 736L254 568L199 610ZM12 610L153 812L229 736L67 568L12 610Z"/>
<glyph unicode="Δ" glyph-name="Delta" horiz-adv-x="673" d="M44 76Q44 90 45 98T53 124L251 684H414L618 127Q623 113 626 100T629 69V0H44V76ZM327 526L184 99H472L327 526Z"/>
<glyph unicode="Ω" glyph-name="Omega" horiz-adv-x="728" d="M397 65Q397 72 398 78T402 91T410 104T423 121Q471 178 494 238T517 374Q517 474 479 525T364 577Q287 577 249 526T211 374Q211 299 234 239T305 121Q321 101 326 91T331 65V0H70V99H185Q116 150 86 225T56 383Q56 453 76 510T135 609T231 674T364 697Q439 697 496 674T593 610T652 511T672 383Q672 300 642 225T543 99H658V0H397V65Z"/>
<glyph unicode="μ" glyph-name="mu" horiz-adv-x="572" d="M199 -225H60V490H203V174Q203 137 218 122Q228 113 243 110T280 106Q299 106 325 110T369 120V490H512V0H388L384 33Q344 8 301 -2T220 -13H213Q210 -13 207 -13T199 -12V-225Z"/>
<glyph unicode="π" glyph-name="pi" horiz-adv-x="646" d="M408 394H238V0H95V394H16V490H630V394H551V0H408V394Z"/>
<glyph unicode="Ẁ" glyph-name="Wgrave" horiz-adv-x="963" d="M688 191L810 684H951L766 0H596L484 399L381 0H212L12 684H177L304 190L427 684H554L688 191ZM558 759L355 896L425 991L608 821L558 759Z"/>
<glyph unicode="ẁ" glyph-name="wgrave" horiz-adv-x="791" d="M396 260L319 0H154L10 490H161L248 141L335 490H464L558 141L640 490H781L640 0H474L396 260ZM472 559L269 696L339 791L522 621L472 559Z"/>
<glyph unicode="Ẃ" glyph-name="Wacute" horiz-adv-x="963" d="M688 191L810 684H951L766 0H596L484 399L381 0H212L12 684H177L304 190L427 684H554L688 191ZM385 821L568 991L638 896L435 759L385 821Z"/>
<glyph unicode="ẃ" glyph-name="wacute" horiz-adv-x="791" d="M396 260L319 0H154L10 490H161L248 141L335 490H464L558 141L640 490H781L640 0H474L396 260ZM289 621L472 791L542 696L339 559L289 621Z"/>
<glyph unicode="Ẅ" glyph-name="Wdieresis" horiz-adv-x="963" d="M688 191L810 684H951L766 0H596L484 399L381 0H212L12 684H177L304 190L427 684H554L688 191ZM456 854Q456 820 439 805T388 790H382Q348 790 332 805T315 854V865Q315 900 331 914T382 929H388Q421 929 438 915T456 865V854ZM664 854Q664 820 648 805T597 790H591Q559 790 541 805T523 854V865Q523 900 541 914T591 929H597Q631 929 647 915T664 865V854Z"/>
<glyph unicode="ẅ" glyph-name="wdieresis" horiz-adv-x="791" d="M396 260L319 0H154L10 490H161L248 141L335 490H464L558 141L640 490H781L640 0H474L396 260ZM362 654Q362 620 345 605T294 590H288Q254 590 238 605T221 654V665Q221 700 237 714T288 729H294Q327 729 344 715T362 665V654ZM570 654Q570 620 554 605T503 590H497Q465 590 447 605T429 654V665Q429 700 447 714T497 729H503Q537 729 553 715T570 665V654Z"/>
<glyph unicode="Ỳ" glyph-name="Ygrave" horiz-adv-x="662" d="M12 684H188L338 408L494 684H650L404 278V0H248V279L12 684ZM377 759L174 896L244 991L427 821L377 759Z"/>
<glyph unicode="ỳ" glyph-name="ygrave" horiz-adv-x="571" d="M214 -9Q182 -9 151 0T100 29Q78 51 68 80T57 153V490H200V173Q200 154 203 143T215 124Q225 115 239 112T276 108Q296 108 323 113T368 126V490H511V21Q511 -44 501 -92T464 -173T395 -222T284 -239Q248 -239 218 -236T159 -226L149 -120Q174 -125 199 -128T261 -131Q287 -131 310 -125T344 -108Q358 -95 363 -75T368 -29V31Q332 11 292 1T214 -9ZM332 559L129 696L199 791L382 621L332 559Z"/>
<glyph unicode="–" glyph-name="endash" horiz-adv-x="500" d="M0 200V319H500V200H0Z"/>
<glyph unicode="—" glyph-name="emdash" horiz-adv-x="1000" d="M0 200V319H1000V200H0Z"/>
<glyph unicode="‘" glyph-name="quoteleft" horiz-adv-x="231" d="M197 477Q197 441 179 422T124 402H117Q81 402 63 421T44 477V504Q44 529 46 558T51 613T58 662T66 697H138V555Q171 544 184 527T197 477Z"/>
<glyph unicode="’" glyph-name="quoteright" horiz-adv-x="231" d="M34 622Q34 658 52 677T107 697H114Q188 697 188 622V595Q188 542 185 497T172 426Q168 414 159 408T133 402H93V544Q60 555 47 572T34 621V622Z"/>
<glyph unicode="‚" glyph-name="quotesinglbase" horiz-adv-x="231" d="M34 61Q34 97 52 116T107 136H114Q150 136 168 117T187 61V34Q187 8 185 -20T180 -75T173 -124T165 -159H93V-17Q60 -6 47 11T34 61Z"/>
<glyph unicode="“" glyph-name="quotedblleft" horiz-adv-x="435" d="M197 477Q197 441 179 422T124 402H117Q81 402 63 421T44 477V504Q44 529 46 558T51 613T58 662T66 697H138V555Q171 544 184 527T197 477ZM401 477Q401 441 383 422T328 402H321Q285 402 267 421T248 477V504Q248 529 250 558T255 613T262 662T270 697H342V555Q375 544 388 527T401 477Z"/>
<glyph unicode="”" glyph-name="quotedblright" horiz-adv-x="435" d="M238 622Q238 658 256 677T311 697H318Q354 697 372 678T391 622V595Q391 569 389 541T384 486T377 437T369 402H297V544Q264 555 251 572T238 622ZM34 622Q34 658 52 677T107 697H114Q150 697 168 678T187 622V595Q187 569 185 541T180 486T173 437T165 402H93V544Q60 555 47 572T34 622Z"/>
<glyph unicode="„" glyph-name="quotedblbase" horiz-adv-x="435" d="M238 61Q238 97 256 116T311 136H318Q354 136 372 117T391 61V34Q391 8 389 -20T384 -75T377 -124T369 -159H297V-17Q264 -6 251 11T238 61ZM34 61Q34 97 52 116T107 136H114Q150 136 168 117T187 61V34Q187 8 185 -20T180 -75T173 -124T165 -159H93V-17Q60 -6 47 11T34 61Z"/>
<glyph unicode="†" glyph-name="dagger" horiz-adv-x="561" d="M346 -237H214L229 351L42 342V472L230 457L211 684H351L332 457L519 466V336L331 351L346 -237Z"/>
<glyph unicode="‡" glyph-name="daggerdbl" horiz-adv-x="562" d="M519 102V-27L331 -12L348 -237H210L229 -12L42 -20V109L230 94V351L43 343V472L231 457L213 684H352L333 457L520 465V336L332 351V94L519 102Z"/>
<glyph unicode="•" glyph-name="bullet" horiz-adv-x="377" d="M335 329Q335 258 300 229T195 199H182Q113 199 78 228T42 329V354Q42 425 77 454T182 484H195Q264 484 299 455T335 354V329Z"/>
<glyph unicode="…" glyph-name="ellipsis" horiz-adv-x="715" d="M195 55Q195 17 177 2T123 -14H115Q79 -14 61 1T42 55V67Q42 105 60 120T115 136H123Q159 136 177 121T195 67V55ZM434 55Q434 17 416 2T361 -14H354Q318 -14 300 1T281 55V67Q281 105 299 120T354 136H361Q397 136 415 121T434 67V55ZM673 55Q673 17 655 2T600 -14H592Q556 -14 538 1T520 55V67Q520 105 538 120T592 136H600Q636 136 654 121T673 67V55Z"/>
<glyph unicode="‰" glyph-name="perthousand" horiz-adv-x="1403" d="M379 -14H256L621 697H744L379 -14ZM409 489Q409 388 365 334T229 280Q138 280 94 334T50 489Q50 589 94 643T229 697Q320 697 364 643T409 489ZM292 489Q292 543 279 572T229 602Q192 602 180 573T167 489Q167 434 179 405T229 375Q266 375 279 404T292 489ZM950 194Q950 94 906 40T771 -14Q680 -14 636 40T592 194Q592 295 636 349T771 403Q861 403 905 349T950 194ZM834 194Q834 249 821 278T771 308Q733 308 721 279T708 194Q708 140 720 111T771 81Q808 81 821 110T834 194ZM1353 194Q1353 94 1309 40T1173 -14Q1082 -14 1038 40T994 194Q994 295 1038 349T1173 403Q1264 403 1308 349T1353 194ZM1236 194Q1236 249 1223 278T1173 308Q1136 308 1124 279T1111 194Q1111 140 1123 111T1173 81Q1210 81 1223 110T1236 194Z"/>
<glyph unicode="‹" glyph-name="guilsinglleft" horiz-adv-x="342" d="M45 261Q45 280 54 294T81 328L229 489L288 433L171 261L288 89L229 33L81 194Q64 213 55 227T45 261Z"/>
<glyph unicode="›" glyph-name="guilsinglright" horiz-adv-x="342" d="M297 261Q297 242 288 228T261 194L113 33L54 89L171 261L54 433L113 489L261 328Q278 309 287 295T297 261Z"/>
<glyph unicode="⁄" glyph-name="fraction" horiz-adv-x="480" d="M119 -14H-4L361 697H484L119 -14Z"/>
<glyph unicode="€" glyph-name="Euro" horiz-adv-x="600" d="M257 220Q271 159 313 133T421 106Q459 106 497 111T564 123V9Q533 0 488 -7T398 -14Q330 -14 278 1T189 46T129 119T94 220H9V290L84 300Q83 309 83 320T83 350H9V421L89 431Q112 569 187 633T386 697Q421 697 466 691T546 674V562Q517 568 480 572T414 577Q334 577 297 542T249 431H400V350H242Q242 333 242 322T243 300H400V220H257Z"/>
<glyph unicode="ℓ" glyph-name="litre" horiz-adv-x="269" d="M206 715V0H63V715H206Z"/>
<glyph unicode="№" glyph-name="numero" horiz-adv-x="1156" d="M1116 419Q1116 331 1064 280T917 229Q822 229 770 280T718 419Q718 507 770 558T917 609Q1012 609 1064 558T1116 419ZM993 419Q993 467 971 488T917 509Q885 509 863 488T841 419Q841 371 863 350T917 329Q949 329 971 350T993 419ZM74 684H189L513 246V684H650V0H525L211 415V0H74V684Z"/>
<glyph unicode="™" glyph-name="trademark" horiz-adv-x="746" d="M525 497L613 684H698V352H608V507L554 397H494L437 509V352H351V684H439L525 497ZM12 612V684H310V612H210V352H110V612H12Z"/>
<glyph unicode="Ω" glyph-name="Omega" horiz-adv-x="728" d="M397 65Q397 72 398 78T402 91T410 104T423 121Q471 178 494 238T517 374Q517 474 479 525T364 577Q287 577 249 526T211 374Q211 299 234 239T305 121Q321 101 326 91T331 65V0H70V99H185Q116 150 86 225T56 383Q56 453 76 510T135 609T231 674T364 697Q439 697 496 674T593 610T652 511T672 383Q672 300 642 225T543 99H658V0H397V65Z"/>
<glyph unicode="℮" glyph-name="estimated" horiz-adv-x="874" d="M192 333Q185 333 185 327V133Q185 126 188 121T196 110Q241 63 304 36T439 8Q517 8 582 39T693 124H752Q696 61 615 24T438 -14Q356 -14 284 14T157 90T72 202T40 341Q40 415 71 480T157 593T283 669T438 697Q519 697 591 669T717 593T802 480T834 341V333H192ZM689 554Q689 566 677 578Q631 624 570 650T439 676Q367 676 305 650T196 575Q185 562 185 549V358Q185 352 192 352H682Q689 352 689 358V554Z"/>
<glyph unicode="∂" glyph-name="partialdiff" horiz-adv-x="600" d="M390 320Q369 325 341 327T290 330Q263 330 244 325T213 308T196 274T191 220Q191 95 286 95Q345 95 367 139T390 282V320ZM445 631Q490 586 514 508T538 310Q538 232 525 172T483 71T406 8T289 -14Q169 -14 108 47T47 225Q47 331 97 384T240 438Q275 438 314 430T388 403Q386 455 377 490T345 549Q325 569 294 577T212 585Q185 585 158 583T103 575V684Q138 691 173 694T246 697Q314 697 362 682T445 631Z"/>
<glyph unicode="∆" glyph-name="Delta" horiz-adv-x="673" d="M44 76Q44 90 45 98T53 124L251 684H414L618 127Q623 113 626 100T629 69V0H44V76ZM327 526L184 99H472L327 526Z"/>
<glyph unicode="∏" glyph-name="product" horiz-adv-x="746" d="M704 582H625V-225H470V582H276V-225H121V582H42V684H704V582Z"/>
<glyph unicode="∑" glyph-name="summation" horiz-adv-x="650" d="M56 -225V-131L341 226L54 591V684H581V585H225L492 238L213 -114H584V-225H56Z"/>
<glyph unicode="−" glyph-name="minus" horiz-adv-x="600" d="M113 277V371H487V277H113Z"/>
<glyph unicode="√" glyph-name="radical" horiz-adv-x="699" d="M73 397V490H267L382 134L562 730H690L454 0H300L153 397H73Z"/>
<glyph unicode="∞" glyph-name="infinity" horiz-adv-x="690" d="M467 141Q423 141 391 159T340 212Q316 180 285 161T212 141Q179 141 150 154T100 193T67 255T54 339Q54 384 66 421T100 485T154 526T224 541Q306 541 349 469Q373 501 405 521T478 541Q511 541 540 528T590 489T623 426T636 342Q636 297 624 260T590 197T536 156T467 141ZM218 414Q191 414 178 393T164 336Q164 301 180 281T223 260Q261 260 299 302Q277 359 261 386T218 414ZM472 267Q499 267 512 289T526 345Q526 380 510 400T467 421Q447 421 429 412T391 380Q413 323 429 295T472 267Z"/>
<glyph unicode="∫" glyph-name="integral'" horiz-adv-x="535" d="M338 -63Q338 -152 297 -194Q277 -214 245 -226T163 -239Q136 -239 105 -236T50 -228V-126Q63 -129 82 -131T115 -133Q143 -133 157 -129T181 -116Q190 -107 194 -93T198 -56V567Q198 656 239 698Q259 718 291 730T373 743Q400 743 431 740T486 732V630Q473 633 454 635T421 637Q393 637 379 633T355 620Q346 611 342 597T338 560V-63Z"/>
<glyph unicode="≈" glyph-name="approxequal" horiz-adv-x="600" d="M475 489Q475 429 450 398T379 367Q359 367 338 373T296 386T257 400T224 406Q193 406 186 364L122 374Q122 433 147 463T218 494Q237 494 259 488T302 476T341 463T373 457Q403 457 411 498L475 489ZM475 298Q475 238 450 207T379 176Q359 176 338 182T296 195T257 208T224 214Q193 214 186 172L122 182Q122 241 147 272T218 303Q237 303 259 297T302 284T341 271T373 265Q403 265 411 306L475 298Z"/>
<glyph unicode="≠" glyph-name="notequal" horiz-adv-x="600" d="M360 373L327 275H487V181H295L249 47H154L200 181H113V275H233L266 373H113V467H299L345 601H439L393 467H487V373H360Z"/>
<glyph unicode="≤" glyph-name="lessequal" horiz-adv-x="600" d="M113 0V94H487V0H113ZM113 332V424L487 609V503L218 379L487 259V147L113 332Z"/>
<glyph unicode="≥" glyph-name="greaterequal" horiz-adv-x="600" d="M113 147V259L382 379L113 503V609L487 424V332L113 147ZM113 0V94H487V0H113Z"/>
<glyph unicode="◊" glyph-name="lozenge" horiz-adv-x="600" d="M569 343Q569 324 563 308T544 269L375 0H226L57 269Q44 291 38 307T32 343Q32 360 38 376T57 415L226 684H375L544 415Q557 393 563 377T569 343ZM300 562L161 342L300 122L440 342L300 562Z"/>
<glyph unicode="ﬁ" glyph-name="fi" horiz-adv-x="618" d="M241 490H555V0H412V397H241V0H98V397H14V484L98 489V557Q98 597 107 624T134 672Q162 704 207 718T325 732Q339 732 356 732T392 730T428 726T459 721V619Q451 620 438 621T411 623T384 624T362 625Q296 625 269 609T241 549V490Z"/>
<glyph unicode="ﬂ" glyph-name="fl" horiz-adv-x="618" d="M412 0V620Q403 621 391 621T365 623T341 624T322 625Q293 625 278 621T255 607Q248 600 245 588T241 549V490H347V397H241V0H98V397H14V484L98 489V557Q98 602 107 633T139 687Q149 697 163 705T198 720T251 729T329 732Q358 732 390 731T452 729T509 725T555 720V0H412Z"/>
</font>
</defs>
</svg>
