<?xml version="1.0" standalone="no"?>
<!DOCTYPE svg PUBLIC "-//W3C//DTD SVG 1.1//EN" "http://www.w3.org/Graphics/SVG/1.1/DTD/svg11.dtd" >
<svg xmlns="http://www.w3.org/2000/svg">
<metadata>
This is a custom SVG webfont generated by Font Squirrel.
Copyright   : Copyright c 2009 by Fontsmith Ltd All rights reserved
Designer    : Phil Garnham Jason Smith
Foundry     : Fontsmith Ltd
Foundry URL : httpwwwfontsmithcom
</metadata>
<defs>
<font id="webfontZhAFkZ39" horiz-adv-x="913" >
<font-face units-per-em="2048" ascent="1536" descent="-512" />
<missing-glyph horiz-adv-x="460" />
<glyph unicode=" "  horiz-adv-x="460" />
<glyph unicode="&#x09;" horiz-adv-x="460" />
<glyph unicode="&#xa0;" horiz-adv-x="460" />
<glyph unicode="!" horiz-adv-x="593" d="M453 113q0 -78 -38 -110t-112 -32h-14q-74 0 -112 32t-38 110v24q0 78 38 110t112 32h14q74 0 112 -32t38 -110v-24zM182 438l-45 963h307l-45 -940q0 -23 -22 -23h-195z" />
<glyph unicode="&#x22;" horiz-adv-x="976" d="M162 860l-31 488q-6 53 70 53h211l-31 -512q-4 -20 -11.5 -24.5t-29.5 -4.5h-178zM600 860l-31 488q-6 53 70 53h211l-31 -512q-4 -20 -11 -24.5t-30 -4.5h-178z" />
<glyph unicode="#" horiz-adv-x="1220" d="M788 0h-219l74 418h-184l-78 -418h-219l78 418h-131v186h163l35 193h-198v186h247l78 418h219l-78 -418h189l78 418h219l-78 -418h127v-186h-176l-33 -193h211v-186h-246zM680 604l35 193h-189l-32 -193h186z" />
<glyph unicode="$" horiz-adv-x="1261" d="M143 1018q0 92 28 159.5t79 118.5q102 102 311 125v217h205v-215q82 -6 156.5 -19t119.5 -30q35 -12 44.5 -25.5t9.5 -43.5v-287h-207q-12 27 -23.5 78t-15.5 92q-80 12 -178 12q-61 0 -112.5 -10t-86.5 -41q-43 -37 -43 -107q0 -72 46 -108.5t157 -71.5l160 -47 q104 -31 175.5 -67.5t118.5 -90.5q84 -96 84 -258q0 -90 -27.5 -163.5t-80.5 -126.5q-98 -102 -297 -129v-242h-205v235q-92 4 -181 15.5t-147 25.5q-41 10 -52 29.5t-11 52.5v291h215q12 -25 22.5 -76t16.5 -90q29 -10 88 -15t117 -5q147 0 209 55q47 41 47 117 q0 70 -41 106.5t-135 65.5l-185 53q-94 29 -164.5 61.5t-115.5 77.5q-47 47 -74 117t-27 164z" />
<glyph unicode="%" horiz-adv-x="2045" d="M774 -29h-252l748 1456h252zM836 1001q0 -207 -91.5 -317.5t-277.5 -110.5t-275.5 111t-89.5 317q0 205 89.5 315.5t275.5 110.5t277.5 -110.5t91.5 -315.5zM596 1001q0 111 -26.5 171.5t-102.5 60.5t-101.5 -60.5t-25.5 -171.5q0 -113 25.5 -173t101.5 -60t102.5 60 t26.5 173zM1944 397q0 -205 -90.5 -315.5t-276.5 -110.5t-276.5 111t-90.5 315q0 207 90.5 317.5t276.5 110.5t276.5 -110.5t90.5 -317.5zM1706 397q0 113 -26.5 173.5t-102.5 60.5q-78 0 -102.5 -60.5t-24.5 -173.5q0 -111 24.5 -171t102.5 -60q76 0 102.5 60t26.5 171z " />
<glyph unicode="&#x26;" horiz-adv-x="1546" d="M954 1110q0 -102 -66.5 -188t-182.5 -142l317 -336q47 92 71.5 217t24.5 271q0 41 17.5 54t58.5 13h276v-186h-159q-10 -152 -45 -285t-99 -237l90 -96h195v-187q-23 -4 -52 -7l-62 -6q-32 -3 -61.5 -5t-49.5 -2q-59 0 -98 19.5t-82 62.5l-39 39q-86 -66 -196 -102 t-241 -36q-109 0 -199.5 29t-156 82t-102.5 130t-37 173q0 135 80 232.5t215 154.5q-82 90 -114 164t-32 154q0 76 27 137t76 106t117.5 69.5t152.5 24.5q164 0 260 -86t96 -231zM483 655q-59 -43 -92 -102t-33 -131q0 -98 64.5 -159.5t189.5 -61.5q66 0 133.5 17.5 t112.5 45.5zM467 1106q0 -45 22.5 -84t61.5 -80l45 -49l22 18q55 45 85 90.5t30 102.5q0 55 -33.5 88t-99.5 33q-61 0 -97 -33t-36 -86z" />
<glyph unicode="'" horiz-adv-x="538" d="M162 860l-31 488q-6 53 70 53h211l-31 -512q-4 -20 -11.5 -24.5t-29.5 -4.5h-178z" />
<glyph unicode="(" horiz-adv-x="735" d="M84 532q0 317 122 575.5t372 424.5l135 -154q-68 -70 -124.5 -153.5t-97 -188t-63 -229.5t-22.5 -275t22.5 -274.5t63 -228t97 -187.5t124.5 -153l-135 -154q-250 166 -372 423t-122 574z" />
<glyph unicode=")" horiz-adv-x="735" d="M651 532q0 -317 -121.5 -574t-371.5 -423l-135 154q68 70 124 153.5t97 187t63.5 228.5t22.5 274q0 150 -22.5 275t-63.5 228.5t-97.5 187.5t-123.5 153l135 154q250 -166 371.5 -423.5t121.5 -574.5z" />
<glyph unicode="*" horiz-adv-x="942" d="M301 592l-147 123l196 239l-293 82l74 181l264 -115l-22 299h190l-16 -299l264 115l74 -181l-293 -82l196 -239l-147 -123l-170 260z" />
<glyph unicode="+" horiz-adv-x="1095" d="M645 567v-286h-192v286h-287v193h287v287h192v-287h287v-193h-287z" />
<glyph unicode="," horiz-adv-x="489" d="M86 125q0 74 38 114t112 40h14q74 0 113.5 -40t39.5 -118v-51q0 -109 -7 -201t-25 -145q-8 -25 -26.5 -37.5t-53.5 -12.5h-84v291q-68 23 -94.5 58.5t-26.5 99.5v2z" />
<glyph unicode="-" horiz-adv-x="684" d="M94 410v243h496v-243h-496z" />
<glyph unicode="." horiz-adv-x="489" d="M401 113q0 -78 -37.5 -110t-111.5 -32h-14q-74 0 -112 32t-38 110v24q0 78 38 110t112 32h14q74 0 111.5 -32t37.5 -110v-24z" />
<glyph unicode="/" horiz-adv-x="983" d="M313 -29h-260l617 1456h260z" />
<glyph unicode="0" horiz-adv-x="1212" d="M838 698q0 145 -13.5 241.5t-41 153t-71.5 80t-106 23.5q-61 0 -105 -23.5t-72 -80t-41 -152.5t-13 -242q0 -145 13 -240.5t41 -152.5t72 -79.5t105 -22.5t105.5 22.5t72 79.5t41 152.5t13.5 240.5zM1143 698q0 -180 -29 -316t-93.5 -227.5t-166.5 -137.5t-248 -46 q-145 0 -247.5 46t-167 137.5t-93 227.5t-28.5 316t28.5 316.5t93 228.5t167 138t247.5 46t247.5 -46t167 -138t93.5 -228.5t29 -316.5z" />
<glyph unicode="1" horiz-adv-x="872" d="M827 203v-203h-733v203h240v995h-228v199q31 4 74 9t89 8t92.5 5t82.5 2q104 0 142.5 -30.5t38.5 -108.5v-1079h202z" />
<glyph unicode="2" horiz-adv-x="1048" d="M365 209h366q0 23 2 50l4 54q2 27 5 47.5t6 26.5h210v-350q0 -25 -14 -31t-63 -6h-828q-4 12 -6 43t-2 47q0 70 28.5 126t102.5 140l238 271q66 74 107.5 128t66 97t35 81t10.5 81q0 94 -53 137q-37 31 -96.5 39t-137.5 8h-262v191q37 8 83 15t94 12t96.5 8t88.5 3 q127 0 224.5 -27.5t160.5 -84.5q106 -96 107 -264q0 -78 -17.5 -141.5t-54.5 -127t-95 -132t-138 -154.5z" />
<glyph unicode="3" horiz-adv-x="1091" d="M631 829q186 -29 282.5 -134t96.5 -271q0 -94 -30 -179t-97 -149q-63 -59 -174 -92t-252 -33q-96 0 -193.5 9.5t-163.5 23.5v199h256q100 0 177 9t124 58q49 49 50 140q0 104 -60 153q-37 31 -96 41t-158 10h-100q-4 16 -5 39t-1 41q0 35 12 69t51 77l309 352h-362 q-2 -29 -8 -70t-15 -63h-204v305q0 25 14 31t63 6h805q8 -12 11.5 -39t3.5 -62q0 -63 -26 -115t-75 -104z" />
<glyph unicode="4" horiz-adv-x="1169" d="M63 322q-4 10 -6 30.5t-2 40.5q0 43 9.5 94.5t33.5 118.5l260 725q14 41 32 55.5t59 14.5h219l-310 -860h316v333h293v-333h155v-219h-155v-322h-293v322h-611z" />
<glyph unicode="5" horiz-adv-x="1089" d="M745 1059q-8 23 -14 63.5t-8 69.5h-334l-4 -338h92q281 0 406 -101.5t125 -324.5t-126 -340t-401 -117q-92 0 -187 8.5t-169 24.5v199h274q166 0 236 47t70 164q0 61 -13.5 102t-45.5 65.5t-84 35t-130 10.5h-213q-66 0 -81 11t-15 40l10 723h739q49 0 63.5 -6t14.5 -31 v-305h-205z" />
<glyph unicode="6" horiz-adv-x="1155" d="M399 838q172 59 303 59q186 0 288 -109.5t102 -326.5q0 -229 -124 -359.5t-370 -130.5q-141 0 -237.5 43t-156 127t-85 208t-25.5 286v39q0 399 150.5 576t453.5 177q72 0 153 -11t132 -27v-191h-207q-104 0 -175 -15.5t-118 -56.5q-45 -41 -63.5 -112.5t-20.5 -175.5z M395 578q0 -201 43 -292t170 -91q98 0 147.5 65.5t49.5 190.5q0 127 -50 176t-175 49q-41 0 -91.5 -5t-93.5 -16v-77z" />
<glyph unicode="7" horiz-adv-x="1064" d="M289 1186q0 -25 -2 -53l-4 -57q-2 -28 -5.5 -50t-5.5 -31h-211v369q0 25 14.5 31t65.5 6h873q8 -12 11 -39t3 -62q0 -63 -12 -115t-37 -118l-381 -991q-10 -25 -18.5 -40.5t-19.5 -23.5t-28.5 -10t-44.5 -2h-243l512 1186h-467z" />
<glyph unicode="8" horiz-adv-x="1150" d="M1077 385q0 -195 -133 -304.5t-375 -109.5q-125 0 -218 30t-154.5 80t-92 119.5t-30.5 149.5q0 129 64.5 216t170.5 143q-102 66 -145 142.5t-43 182.5q0 90 32.5 163t92 124t142.5 78.5t185 27.5t184.5 -25.5t138.5 -71.5t87 -111.5t31 -145.5q0 -100 -56.5 -183 t-144.5 -138q143 -72 203.5 -155t60.5 -212zM362 375q0 -80 53.5 -128t157.5 -48t158.5 47t54.5 116q0 31 -9 57.5t-31.5 51.5t-62.5 49.5t-101 52.5l-90 41q-59 -53 -94.5 -113t-35.5 -126zM748 1047q0 70 -45.5 114.5t-131.5 44.5q-72 0 -124 -36.5t-52 -108.5 q0 -59 43 -106.5t148 -96.5l30 -14q59 45 95.5 97.5t36.5 105.5z" />
<glyph unicode="9" horiz-adv-x="1155" d="M756 561q-172 -59 -303 -59q-186 0 -288 109.5t-102 326.5q0 229 124 359t370 130q141 0 237.5 -43t156 -126.5t85 -207.5t25.5 -286v-39q0 -399 -150.5 -576.5t-453.5 -177.5q-72 0 -153 11.5t-132 27.5v191h207q104 0 175 15t118 56q45 41 63.5 113t20.5 176zM760 821 q0 201 -43 292t-170 91q-98 0 -147.5 -65.5t-49.5 -190.5q0 -127 50.5 -176t174.5 -49q41 0 91.5 5t93.5 15v78z" />
<glyph unicode=":" horiz-adv-x="489" d="M401 686q0 -76 -37.5 -108.5t-111.5 -32.5h-14q-74 0 -112 32.5t-38 108.5v27q0 76 38 107.5t112 31.5h14q74 0 111.5 -32t37.5 -107v-27zM401 113q0 -78 -37.5 -110t-111.5 -32h-14q-74 0 -112 32t-38 110v24q0 78 38 110t112 32h14q74 0 111.5 -32t37.5 -110v-24z" />
<glyph unicode=";" horiz-adv-x="489" d="M401 684q0 -76 -37.5 -107.5t-111.5 -31.5h-14q-74 0 -112 31.5t-38 107.5v27q0 78 38 109.5t112 31.5h14q74 0 111.5 -32t37.5 -109v-27zM88 125q0 74 38 114t112 40h14q74 0 114 -40t40 -118v-51q0 -109 -7.5 -201t-25.5 -145q-8 -25 -26.5 -37.5t-53.5 -12.5h-84v291 q-68 23 -94.5 58.5t-26.5 99.5v2z" />
<glyph unicode="&#x3c;" horiz-adv-x="1095" d="M166 569v189l766 379v-217l-551 -254l551 -246v-230z" />
<glyph unicode="=" horiz-adv-x="1095" d="M166 764v192h766v-192h-766zM932 563v-192h-766v192h766z" />
<glyph unicode="&#x3e;" horiz-adv-x="1095" d="M166 190v230l551 246l-551 254v217l766 -379v-189z" />
<glyph unicode="?" horiz-adv-x="897" d="M61 1389q72 16 161 27t175 11q123 0 213 -28.5t142 -81.5q92 -92 92 -254q0 -78 -21.5 -135.5t-54.5 -105.5t-74 -89t-77.5 -85t-66.5 -94t-42 -114h-162q-29 0 -38 15.5t-9 48.5q0 37 12.5 74.5t32.5 72.5l43 70q23 35 45 65q41 55 70.5 111.5t29.5 128.5q0 78 -40 119 q-29 27 -72 36t-113 9h-246v199zM565 113q0 -78 -38 -110t-111 -32h-15q-74 0 -111.5 32t-37.5 110v24q0 78 38 110t111 32h15q74 0 111.5 -32t37.5 -110v-24z" />
<glyph unicode="@" horiz-adv-x="1640" d="M932 641h-98q-66 0 -96.5 -16.5t-30.5 -63.5q0 -39 23.5 -60.5t80.5 -21.5q31 0 62.5 6.5t58.5 16.5v139zM932 795q0 68 -25 90q-14 14 -40.5 18t-71.5 4h-224v148q23 6 55.5 12t68.5 10t70 7t56 3q162 0 237 -64.5t75 -221.5v-326q10 -2 23 -2h24q82 0 119.5 64.5 t37.5 187.5q0 242 -128 376t-380 134q-250 0 -389 -137t-139 -393q0 -133 36 -238t114 -174q76 -70 191.5 -104.5t289.5 -34.5h352v-129q-84 -20 -193.5 -37t-236.5 -17q-176 0 -316.5 44t-238.5 130q-104 92 -162.5 228.5t-58.5 320.5q0 166 51 302.5t148.5 231.5 t237.5 147t319 52q172 0 303 -51t221 -140t136 -210t46 -260q0 -98 -21.5 -182t-68.5 -147.5t-120 -99.5t-175 -36q-70 0 -125 18.5t-78 53.5q-39 -29 -95 -48.5t-114 -19.5q-109 0 -177 62.5t-68 177.5q0 135 76.5 192.5t228.5 57.5h129z" />
<glyph unicode="A" horiz-adv-x="1419" d="M840 203h123l-68 203h-457l-65 -203h129v-203h-498v203h119l424 1198h229q51 0 70.5 -9.5t30.5 -41.5l417 -1147h121v-203h-575v203zM508 610h317l-159 484z" />
<glyph unicode="B" horiz-adv-x="1361" d="M102 203h140v995h-140v203h605q137 0 236 -25.5t163 -91.5q39 -41 60.5 -99.5t21.5 -135.5q0 -98 -52.5 -173t-140.5 -116q133 -29 213 -116t80 -228q0 -104 -29.5 -178t-84.5 -123q-68 -59 -173.5 -87t-267.5 -28h-631v203zM549 203h135q100 0 153.5 14t84.5 47 q49 53 49 146q0 109 -56 161q-31 29 -77.5 41.5t-132.5 12.5h-156v-422zM549 829h127q59 0 96 11.5t59 33.5q51 49 52 144q0 90 -45 135q-25 25 -67 35t-103 10h-119v-369z" />
<glyph unicode="C" horiz-adv-x="1232" d="M1116 6q-37 -10 -82 -16t-93 -10.5t-95 -6.5t-88 -2q-176 0 -301 43t-205 127q-86 94 -126 233.5t-40 325.5q0 182 42 321.5t128 231.5q88 94 212 134t271 40q92 0 185.5 -12t158.5 -29q35 -8 47.5 -23t12.5 -50v-301h-219q-10 27 -22.5 79t-16.5 93q-35 4 -71 7t-71 3 q-74 0 -135 -18.5t-108 -75.5q-51 -61 -74 -160.5t-23 -232.5q0 -123 23 -228.5t76 -165.5q43 -47 116.5 -73.5t208.5 -26.5h289v-207z" />
<glyph unicode="D" horiz-adv-x="1476" d="M102 0v203h140v995h-140v203h564q199 0 335 -35t222 -123q84 -82 126 -213t42 -323q0 -193 -41 -328t-127 -221q-78 -80 -202 -119t-310 -39h-609zM549 207h141q217 0 305 125q43 63 59.5 154.5t16.5 220.5q0 150 -23.5 243.5t-76.5 151.5q-47 51 -123 71.5t-195 20.5 h-104v-987z" />
<glyph unicode="E" horiz-adv-x="1318" d="M991 203q0 20 4 49t9.5 58.5t12.5 54t13 38.5h199v-366q0 -25 -13.5 -31t-66.5 -6h-1047v203h140v995h-140v203h1035q51 0 65.5 -6t14.5 -31v-363h-199q-6 14 -13.5 39t-12.5 52.5t-9 56.5t-4 49h-430v-379h336q37 0 48 -4t11 -22v-191h-395v-399h442z" />
<glyph unicode="F" horiz-adv-x="1232" d="M549 1198v-379h325q37 0 48.5 -4t11.5 -22v-191h-385v-399h164v-203h-611v203h140v995h-140v203h1010q51 0 65.5 -6t14.5 -31v-363h-199q-6 14 -13 39t-12 52.5t-9.5 56.5t-4.5 49h-405z" />
<glyph unicode="G" horiz-adv-x="1419" d="M776 709h438q41 0 51.5 -12.5t10.5 -45.5v-651h-223q-10 8 -24.5 28.5t-24.5 39.5q-61 -41 -147.5 -69t-188.5 -28q-285 0 -433.5 188.5t-148.5 536.5q0 180 50 323.5t140 235.5q88 90 216.5 131t295.5 41q43 0 94.5 -3t100.5 -9t93 -14t75 -17q35 -10 47 -25.5t12 -49.5 v-297h-221q-16 29 -26.5 81t-14.5 93q-78 12 -164 12t-149.5 -20.5t-110.5 -67.5q-121 -117 -121 -412q0 -254 83 -371.5t268 -117.5q72 0 123 11t94 32v254h-195v203z" />
<glyph unicode="H" horiz-adv-x="1591" d="M1489 0h-586v203h139v399h-493v-399h139v-203h-586v203h140v995h-140v203h586v-203h-139v-379h493v379h-139v203h586v-203h-139v-995h139v-203z" />
<glyph unicode="I" horiz-adv-x="798" d="M246 1198h-140v203h586v-203h-139v-995h139v-203h-586v203h140v995z" />
<glyph unicode="J" horiz-adv-x="980" d="M324 213q53 0 86.5 9t56.5 32q39 45 39 154v790h-334v203h641v-1000q0 -133 -23.5 -209.5t-76.5 -130.5q-92 -90 -305 -90q-70 0 -160 10.5t-162 24.5v207h238z" />
<glyph unicode="K" horiz-adv-x="1468" d="M549 786l483 539q41 47 76 61.5t96 14.5h209v-203h-184l-363 -367l408 -628h164v-199q-57 -6 -129 -11t-119 -5q-49 0 -82 7t-56.5 22.5t-43 40t-39.5 57.5l-310 503l-110 -118v-297h141v-203h-588v203h140v995h-140v203h588v-203h-141v-412z" />
<glyph unicode="L" horiz-adv-x="1251" d="M102 0v203h140v995h-140v203h588v-203h-141v-995h403q0 20 4.5 49l9.5 58.5t12 54t13 38.5h199v-366q0 -25 -13.5 -31t-66.5 -6h-1008z" />
<glyph unicode="M" horiz-adv-x="1859" d="M1757 1401v-203h-139v-995h139v-203h-559v203h139v600l-299 -492h-194q-29 0 -42.5 8.5t-25.5 28.5l-278 465v-610h141v-203h-537v203h140v995h-140v203h252q61 0 88 -16.5t52 -59.5l442 -762l436 762q12 23 24.5 38t29 23.5t38 11.5t54.5 3h239z" />
<glyph unicode="N" horiz-adv-x="1615" d="M1145 461v737h-139v203h532v-203h-141v-1198h-234l-667 895v-692h139v-203h-533v203h142v995h-142v203h250q31 0 51.5 -3t36 -10.5t27.5 -19.5t27 -31z" />
<glyph unicode="O" horiz-adv-x="1404" d="M1319 698q0 -356 -152.5 -541.5t-464.5 -185.5q-311 0 -463.5 185.5t-152.5 541.5t152.5 542.5t463.5 186.5t464 -186.5t153 -542.5zM1001 698q0 254 -70.5 371t-228.5 117t-228.5 -117t-70.5 -371t71 -369.5t228 -115.5q158 0 228.5 115.5t70.5 369.5z" />
<glyph unicode="P" horiz-adv-x="1325" d="M690 203v-203h-588v203h140v995h-140v203h596q166 0 277.5 -22.5t181.5 -82.5q57 -49 86 -126.5t29 -194.5q0 -102 -21.5 -187.5t-76 -146.5t-144.5 -96t-225 -35q-31 0 -65.5 2t-70.5 6t-68 9t-52 10v-334h141zM549 723h178q66 0 105.5 11t68.5 38q29 31 44.5 79 t15.5 120q0 123 -56 176q-53 51 -196 51h-160v-475z" />
<glyph unicode="Q" horiz-adv-x="1404" d="M1319 698q0 -205 -57.5 -353t-157.5 -241q11 0 22 1q86 0 165 -15q89 -16 165 -49q-6 -27 -19 -67l-29 -82q-15 -42 -32.5 -77.5t-29.5 -54.5l-416 177q-31 12 -52.5 19t-43 10t-46 4t-61.5 1h-25q-311 0 -463.5 185.5t-152.5 541.5t152.5 542.5t463.5 186.5t464 -186.5 t153 -542.5zM1001 698q0 254 -70.5 371t-228.5 117t-228.5 -117t-70.5 -371t71 -369.5t228 -115.5q158 0 228.5 115.5t70.5 369.5z" />
<glyph unicode="R" horiz-adv-x="1443" d="M676 203v-203h-574v203h140v995h-140v203h617q170 0 276.5 -25.5t178.5 -99.5q49 -53 75.5 -131t26.5 -187q0 -141 -65.5 -239t-180.5 -152l199 -364h145v-199q-61 -6 -129.5 -11t-109.5 -5q-84 0 -126 24.5t-75 85.5l-213 420h-172v-315h127zM549 723h176q66 0 109 12.5 t71 40.5q59 55 60 187q0 125 -52 180q-29 31 -74.5 43t-125.5 12h-164v-475z" />
<glyph unicode="S" horiz-adv-x="1222" d="M98 1016q0 92 28 160.5t79 119.5q66 63 171 97t249 34q51 0 104 -4t103.5 -12t93.5 -17.5t71 -19.5q35 -12 44.5 -25.5t9.5 -43.5v-287h-207q-12 27 -23.5 78t-15.5 92q-80 12 -178 12q-61 0 -112.5 -10t-86.5 -41q-43 -37 -43 -107q0 -72 47 -107.5t156 -70.5l160 -47 q104 -31 175.5 -68.5t118.5 -91.5q84 -96 84 -258q0 -90 -27.5 -163.5t-80.5 -126.5q-66 -68 -174.5 -103t-270.5 -35q-51 0 -105 3t-105.5 9.5t-96.5 14.5t-78 16q-41 10 -52 29.5t-11 52.5v291h215q12 -25 22.5 -76t16.5 -90q29 -10 88 -15t117 -5q147 0 209 55 q47 41 47 117q0 70 -41 105.5t-135 64.5l-185 53q-94 29 -164.5 61.5t-115.5 77.5q-47 47 -74 117t-27 164z" />
<glyph unicode="T" horiz-adv-x="1380" d="M1243 1401q51 0 65.5 -6t14.5 -31v-369h-199q-6 14 -13 40t-12 54.5t-9.5 58.5t-4.5 50h-241v-995h139v-203h-586v203h140v995h-242q0 -20 -4 -50t-9.5 -58.5t-12.5 -54t-13 -40.5h-199v369q0 25 14.5 31t65.5 6h1106z" />
<glyph unicode="U" horiz-adv-x="1517" d="M1053 1198h-140v203h551v-203h-141v-698q0 -135 -33 -228.5t-98 -158.5q-139 -141 -424 -142q-152 0 -265.5 33t-185.5 107q-61 61 -92.5 152t-31.5 231v704h-140v203h588v-203h-141v-702q0 -86 15 -135.5t56 -84.5q35 -31 87.5 -46t117.5 -15q68 0 121 15.5t88 50.5 q68 63 68 211v706z" />
<glyph unicode="V" horiz-adv-x="1394" d="M1260 1198l-388 -1198h-227q-55 0 -77.5 15.5t-39.5 62.5l-387 1120h-141v203h254q45 0 75.5 -4t51 -16.5t33 -35t24.5 -59.5l310 -962l268 874h-117v203h496v-203h-135z" />
<glyph unicode="W" horiz-adv-x="2064" d="M1935 1198l-327 -1198h-250q-33 0 -53.5 4t-32.5 13.5t-19.5 24.5t-13.5 36l-199 889l-198 -967h-258q-33 0 -53.5 4t-33 13.5t-19.5 24.5t-13 36l-328 1120h-137v203h268q43 0 70 -5t45 -17.5t28.5 -35t20.5 -57.5l252 -975l195 1016q10 45 28.5 59.5t69.5 14.5h225 l256 -1112l234 909h-121v203h493v-203h-129z" />
<glyph unicode="X" horiz-adv-x="1357" d="M106 0q-29 0 -28.5 14.5t12.5 30.5l436 633l-307 520h-166v203h240q37 0 61.5 -3t44 -12.5t35 -26t31.5 -42.5l237 -393l232 424q20 35 38.5 44t57.5 9h221q31 0 30 -14.5t-11 -30.5l-445 -635l314 -518h166v-199q-57 -6 -114.5 -11t-105.5 -5q-49 0 -82.5 7t-59 22.5 t-45 40t-38.5 57.5l-213 360l-221 -420q-20 -39 -39.5 -47t-60.5 -8h-220z" />
<glyph unicode="Y" horiz-adv-x="1335" d="M143 1198h-131v203h244q43 0 69.5 -5t45 -17.5t33 -33t30.5 -51.5l271 -497l233 401h-109v203h494v-203h-129l-381 -629v-366h141v-203h-587v203h139v368z" />
<glyph unicode="Z" horiz-adv-x="1251" d="M1165 53q0 -29 -11 -41t-46 -12h-1008q-4 10 -6 31.5t-2 38.5q0 61 14.5 112t55.5 111l641 905h-465l-10 -46q-6 -28 -13.5 -56.5t-17.5 -55t-18 -45.5h-189v353q0 29 11.5 41t45.5 12h1006q4 -10 6 -30.5t2 -39.5q0 -61 -13 -110.5t-56 -112.5l-631 -905h465 q10 49 26.5 112.5t32.5 100.5h180v-363z" />
<glyph unicode="[" horiz-adv-x="761" d="M199 -424v1913h518v-205h-217v-1503h217v-205h-518z" />
<glyph unicode="\" horiz-adv-x="983" d="M53 1427h260l617 -1456h-260z" />
<glyph unicode="]" horiz-adv-x="761" d="M45 -424v205h217v1503h-217v205h518v-1913h-518z" />
<glyph unicode="^" horiz-adv-x="1095" d="M748 776l-199 408l-205 -408h-235l358 627h162l360 -627h-241z" />
<glyph unicode="_" horiz-adv-x="880" d="M0 -256v199h881v-199h-881z" />
<glyph unicode="`" d="M618 1171l-432 291l105 146q41 59 102 4l332 -309z" />
<glyph unicode="a" horiz-adv-x="1144" d="M696 432h-166q-94 0 -133 -33q-33 -29 -32 -86q0 -57 32.5 -88.5t114.5 -31.5q43 0 95 7t89 17v215zM864 -8q-66 0 -101.5 15.5t-51.5 49.5q-59 -41 -134 -63.5t-147 -22.5q-78 0 -144.5 22.5t-107.5 63.5q-96 90 -96 244q0 68 20.5 127t63.5 100q53 51 141 72t228 21 h161v61q0 70 -30 98q-23 18 -55.5 25.5t-90.5 7.5h-327v180q37 8 84 15.5t98 12.5t101 8t97 3q98 0 181.5 -20.5t136.5 -67.5q47 -43 68.5 -104.5t21.5 -159.5v-490h127v-180q-29 -4 -62 -7l-68 -6q-34 -3 -64 -4t-50 -1z" />
<glyph unicode="b" horiz-adv-x="1159" d="M432 236q37 -16 86 -25.5t98 -9.5q47 0 80 14t54.5 50t32 96.5t10.5 150.5q0 80 -10.5 135t-32 88t-56.5 47.5t-86 14.5q-37 0 -87 -6.5t-89 -18.5v-536zM432 944q152 88 295 88q98 0 167 -40t113 -110.5t63.5 -167t19.5 -206.5q0 -147 -29 -249.5t-80 -166t-123 -92.5 t-156 -29q-78 0 -159.5 31t-141.5 72q-8 -18 -22 -41t-25 -33h-207v1284h-135v178q31 4 66 7l68 7q34 3 65 5t53 2q98 0 133 -36t35 -118v-385z" />
<glyph unicode="c" horiz-adv-x="1030" d="M946 190v-180q-72 -16 -164 -27.5t-178 -11.5q-139 0 -234.5 35t-160.5 100q-72 70 -106.5 169.5t-34.5 222.5q0 260 139 397t385 137q37 0 79 -3t84 -9t79.5 -13.5t66.5 -15.5q41 -12 49 -28.5t8 -44.5v-256h-213q-8 25 -14 49q-6 23 -10 49l-8 51q-23 4 -53.5 5 t-53.5 1q-135 0 -188 -77.5t-53 -231.5q0 -86 16 -140.5t45 -91.5q35 -43 95.5 -64.5t160.5 -21.5h264z" />
<glyph unicode="d" horiz-adv-x="1185" d="M1014 190h127v-178q-29 -4 -63 -8t-67.5 -7t-64.5 -4t-51 -1q-68 0 -103.5 16.5t-52.5 54.5q-51 -39 -121.5 -65.5t-148.5 -26.5q-84 0 -156.5 28t-126 91.5t-85 165.5t-31.5 250q0 121 26.5 218t78.5 165.5t128 105.5t172 37q68 0 131.5 -19.5t122.5 -49.5v321h-135v178 q31 4 65 7l69 7q34 3 64.5 5t53.5 2q98 0 133 -36t35 -118v-1139zM729 786l-76 11.5t-75 5.5q-104 0 -157.5 -72t-53.5 -237q0 -168 52 -232.5t146 -64.5q41 0 85 7t79 19v563z" />
<glyph unicode="e" horiz-adv-x="1091" d="M367 412q4 -43 17 -85t42 -71q35 -33 93.5 -49.5t156.5 -16.5h297v-180q-72 -14 -172.5 -26.5t-200.5 -12.5q-141 0 -237.5 35t-161.5 96q-74 72 -103.5 174.5t-29.5 225.5q0 119 29.5 216t90 166.5t151.5 108.5t216 39q229 0 345 -129t116 -377v-92q0 -23 -21 -22h-628z M737 602q-4 96 -48 152.5t-136 56.5q-94 0 -138 -55.5t-48 -153.5h370z" />
<glyph unicode="f" horiz-adv-x="722" d="M715 1004v-191h-240v-813h-285v813h-170v168l170 25v135q0 94 20.5 157.5t63.5 108.5q41 43 105.5 67.5t169.5 24.5q55 0 119.5 -5t111.5 -11v-199h-104q-72 0 -109 -6t-59 -27q-16 -16 -24.5 -43.5t-8.5 -81.5v-122h240z" />
<glyph unicode="g" horiz-adv-x="1089" d="M102 647q0 201 119 293t332 92q49 0 98 -6l99 250q59 -14 120.5 -41t106.5 -61l-146 -203q80 -45 125 -124t45 -200q0 -203 -117.5 -295t-330.5 -92q-80 0 -147 12v-92h219q127 0 217 -19.5t149 -78.5q37 -37 58.5 -93.5t21.5 -129.5q0 -98 -38 -165t-106.5 -108 t-162.5 -58t-207 -17h-2q-262 0 -377 72.5t-115 191.5q0 66 35 119t88 88q-57 39 -57 118q0 53 37 114.5t96 113.5q-76 47 -118 124.5t-42 194.5zM741 647q0 86 -44 132t-144 46q-102 0 -146.5 -46t-44.5 -132q0 -88 44.5 -134t146.5 -46q100 0 144 46t44 134zM334 -55v-47 q0 -53 6 -81t25 -44q45 -43 192 -43h21q117 0 166 26.5t49 83.5q0 53 -36 79t-132 26h-291z" />
<glyph unicode="h" horiz-adv-x="1236" d="M432 934q68 45 156 71.5t176 26.5q78 0 136 -24.5t97 -69.5q76 -84 76 -244v-504h127v-180q-59 -8 -131 -13t-115 -5q-96 0 -131 35.5t-35 119.5v508q0 70 -32 101q-20 18 -53 24t-74 6q-47 0 -99.5 -5t-97.5 -13v-768h-285v1284h-135v178q31 4 66 7l68 7q34 3 65 5t53 2 q98 0 133 -36t35 -118v-395z" />
<glyph unicode="i" horiz-adv-x="604" d="M469 0h-285v813h-135v178q31 4 66 7l68 7q34 3 65 5t53 2q98 0 133 -36t35 -118v-858zM469 1311q0 -76 -38 -108t-112 -32h-14q-76 0 -112.5 32t-36.5 108v26q0 76 36.5 109t112.5 33h14q74 0 112 -33t38 -109v-26z" />
<glyph unicode="j" horiz-adv-x="604" d="M469 -123q0 -94 -20.5 -157.5t-63.5 -108.5q-80 -80 -231 -80q-53 0 -117 7t-117 20v188h100q53 0 85 8t51 27q16 18 22 47t6 76v909h-135v178l66 8.5t69.5 7.5t65.5 4t51 1q98 0 133 -36t35 -120v-979zM469 1313q0 -78 -38 -110t-112 -32h-14q-76 0 -112.5 32t-36.5 110 v24q0 78 36.5 110t112.5 32h14q74 0 112 -32t38 -110v-24z" />
<glyph unicode="k" horiz-adv-x="1159" d="M432 614l260 314q35 43 69 54t87 11h225v-180h-168l-174 -176l289 -447h139v-174q-39 -10 -102.5 -17t-108.5 -7q-37 0 -63.5 5t-48 19.5t-41 36t-39.5 56.5l-221 344l-103 -101v-352h-285v1284h-135v178q31 4 66 7l68 7q34 3 65 5t53 2q98 0 133 -36t35 -118v-715z" />
<glyph unicode="l" horiz-adv-x="563" d="M432 0h-285v1284h-135v178q31 4 66 7l68 7q34 3 65 5t53 2q98 0 133 -36t35 -118v-1329z" />
<glyph unicode="m" horiz-adv-x="1820" d="M293 1012q74 0 111.5 -19.5t54.5 -60.5q137 100 307 100q72 0 136.5 -26.5t105.5 -83.5q76 57 166 83.5t184 26.5q70 0 127 -24.5t96 -69.5q39 -43 57.5 -104.5t18.5 -139.5v-504h127v-180q-59 -8 -131 -14t-115 -6q-96 0 -131 36.5t-35 118.5v510q0 68 -33 101 q-20 18 -53 24t-74 6q-37 0 -77.5 -4t-75.5 -10q6 -37 6 -82v-690h-285v655q0 70 -32 101q-20 18 -53 24t-72 6q-35 0 -78 -3t-80 -11v-772h-285v813h-141v178q59 10 130 15.5t124 5.5z" />
<glyph unicode="n" horiz-adv-x="1269" d="M1233 190v-180q-29 -4 -63 -7l-67 -6q-34 -3 -64.5 -5t-51.5 -2q-96 0 -131 36.5t-35 118.5v510q0 70 -33 101q-20 18 -53 24t-73 6q-47 0 -100.5 -5t-96.5 -15v-766h-285v813h-141v178q59 10 131 15.5t125 5.5q76 0 113.5 -20.5t52.5 -63.5q68 47 157 75.5t179 28.5 q78 0 136 -24.5t99 -69.5q74 -86 74 -244v-504h127z" />
<glyph unicode="o" horiz-adv-x="1146" d="M1079 502q0 -121 -30.5 -219.5t-93 -167t-158 -106.5t-224.5 -38t-224 38t-157.5 106.5t-93 167t-30.5 219.5t30.5 219t93 166.5t157.5 106.5t224 38t224.5 -38t158 -106.5t93 -166.5t30.5 -219zM782 502q0 156 -48 231.5t-161 75.5t-160.5 -76t-47.5 -231 q0 -156 48 -231.5t160 -75.5q113 0 161 75.5t48 231.5z" />
<glyph unicode="p" horiz-adv-x="1191" d="M461 930q68 47 145.5 74.5t153.5 27.5q98 0 166.5 -40t112.5 -109.5t63.5 -165.5t19.5 -207q0 -147 -28.5 -250.5t-79.5 -167t-123 -92.5t-156 -29q-68 0 -140.5 23.5t-129.5 58.5v-514h-285v1274h-141v180q59 8 131 13.5t125 5.5q76 0 114 -19.5t52 -62.5zM465 236 q37 -16 86 -24.5t98 -8.5q47 0 80 14t54.5 50t31.5 96.5t10 150.5q0 80 -10 134t-31.5 87t-56.5 47.5t-86 14.5q-37 0 -87 -9.5t-89 -19.5v-532z" />
<glyph unicode="q" horiz-adv-x="1148" d="M729 45q-57 -33 -129 -53.5t-137 -20.5q-193 0 -293 133.5t-100 401.5q0 248 107.5 387t297.5 139q78 0 147.5 -22.5t143.5 -63.5q8 16 19.5 31.5t21.5 26.5h207v-1274h133v-181q-29 -4 -64 -7l-69 -6q-35 -3 -67 -4t-52 -1q-96 0 -131 36t-35 120v358zM565 197 q37 0 82 7t82 21v559q-29 8 -71 13.5t-76 5.5q-113 0 -164 -70.5t-51 -224.5q0 -90 13 -149.5t38.5 -95.5t62.5 -51t84 -15z" />
<glyph unicode="r" horiz-adv-x="792" d="M459 922q59 51 124.5 80.5t137.5 29.5q31 0 43 -5t12 -23v-226h-108q-59 0 -105.5 -5t-97.5 -17v-756h-285v813h-141v178q59 10 130 15.5t124 5.5q76 0 115 -19.5t51 -70.5z" />
<glyph unicode="s" horiz-adv-x="1071" d="M324 315q6 -18 12 -41l9 -41q5 -23 9 -45q80 -12 172 -12q104 0 149.5 23.5t45.5 79.5q0 43 -28.5 62t-96.5 30l-166 26q-98 16 -157.5 41t-94.5 60q-72 72 -72 204q0 76 25 130.5t66 95.5q59 57 155.5 80.5t208.5 23.5q88 0 179 -11t147 -26q29 -8 37 -21t8 -36v-252 h-197q-12 27 -20 67t-13 68q-33 4 -74.5 5t-82.5 1q-170 0 -170 -96q0 -43 27.5 -65.5t107.5 -34.5l158 -25q100 -16 156.5 -39.5t93.5 -60.5q72 -76 71 -205q0 -158 -116.5 -244t-340.5 -86q-129 0 -224 9.5t-142 25.5q-29 10 -35 26.5t-6 39.5v243h199z" />
<glyph unicode="t" horiz-adv-x="782" d="M4 981l170 25v221q66 20 141.5 31.5t143.5 11.5v-266h237v-191h-237v-469q0 -43 4 -71.5t19.5 -47t43 -27t76.5 -8.5h143v-186q-25 -8 -57.5 -14t-68 -10.5t-73.5 -6.5t-71 -2q-166 0 -233.5 83t-67.5 249v510h-170v168z" />
<glyph unicode="u" horiz-adv-x="1251" d="M967 -8q-74 0 -111 20.5t-49 65.5q-68 -49 -157 -78t-177 -29q-78 0 -136 24.5t-97 70.5q-39 43 -57.5 104t-18.5 139v504h-127v180q59 8 131 13.5t115 5.5q96 0 131 -36t35 -118v-510q0 -68 32 -100q20 -18 54 -24.5t75 -6.5q45 0 95.5 5t95.5 16v575h-121v191h405v-814 h127v-178l-64 -8q-34 -4 -66.5 -7t-63.5 -4t-51 -1z" />
<glyph unicode="v" horiz-adv-x="1146" d="M686 993h471v-180h-113l-307 -813h-209q-33 0 -53 4t-34.5 15.5t-24.5 29t-21 45.5l-264 719h-141v180q27 2 58.5 5t63 5.5t61.5 3.5t52 1q43 0 73 -5.5t50.5 -18.5t33.5 -35.5t26 -55.5l215 -627l176 547h-113v180z" />
<glyph unicode="w" horiz-adv-x="1691" d="M868 739l-155 -739h-226q-66 0 -91 21.5t-42 72.5l-225 719h-139v180q53 6 122.5 10.5t114.5 4.5q88 0 125 -28t54 -87l159 -629l119 645q10 53 26.5 68.5t61.5 15.5h266l170 -737l144 557h-90v180h440v-180h-115l-244 -813h-215q-66 0 -95 20.5t-40 73.5z" />
<glyph unicode="x" horiz-adv-x="1099" d="M729 958q16 31 35.5 38.5t64.5 7.5h203q31 0 8 -35l-329 -461l225 -318h127v-180q-25 -2 -54.5 -5t-58 -5t-55.5 -3t-43 -1q-35 0 -58.5 4t-43 14.5t-38 29.5t-38.5 50l-150 213l-143 -262q-14 -27 -31.5 -36t-62.5 -9h-215q-35 0 -11 35l332 459l-225 319h-131v180 q25 2 54.5 5t58 5.5t55 3.5t43.5 1q33 0 57.5 -4.5t44 -14.5t36.5 -29.5t40 -50.5l154 -215z" />
<glyph unicode="y" horiz-adv-x="1220" d="M37 813v180q59 8 131 13.5t115 5.5q96 0 131 -37t35 -119v-508q0 -68 32 -100q20 -18 54 -24.5t75 -6.5q45 0 95.5 5t95.5 16v575h-121v191h405v-1037q0 -117 -24.5 -200.5t-79.5 -141.5q-111 -115 -358 -114q-70 0 -154 7t-150 23v183h224q143 0 200 51t58 180v113 q-68 -45 -154 -71t-174 -26q-78 0 -136 24.5t-97 70.5q-39 43 -57.5 104t-18.5 139v504h-127z" />
<glyph unicode="z" horiz-adv-x="1060" d="M104 0q-4 10 -5 26.5t-1 32.5q0 57 11.5 94t35.5 70l469 594h-284q-4 -47 -13.5 -89t-19.5 -60h-199v274q0 39 12.5 50.5t47.5 11.5h798q4 -10 6.5 -26.5t2.5 -33.5q0 -57 -12.5 -94t-37.5 -70l-464 -594h299q4 47 13 96.5t19 67.5h197v-289q0 -39 -12.5 -50t-46.5 -11 h-816z" />
<glyph unicode="{" horiz-adv-x="804" d="M592 -104q0 -72 24.5 -93.5t96.5 -21.5h22v-205h-123q-172 0 -246.5 80t-74.5 264v291q0 117 -57.5 161t-180.5 56v213q123 12 180.5 56t57.5 161v287q0 184 74.5 264t246.5 80h123v-205h-22q-72 0 -96.5 -21.5t-24.5 -93.5v-313q0 -129 -51.5 -205t-167.5 -116 q117 -41 168 -117t51 -205v-317z" />
<glyph unicode="|" horiz-adv-x="516" d="M131 -518v2040h254v-2040h-254z" />
<glyph unicode="}" horiz-adv-x="804" d="M213 213q0 129 51 205t168 117q-117 41 -168 116.5t-51 204.5v313q0 72 -24.5 93.5t-96.5 21.5h-22v205h123q172 0 246.5 -80t74.5 -264v-287q0 -117 57.5 -161t180.5 -56v-213q-123 -12 -180.5 -56t-57.5 -161v-291q0 -184 -74.5 -264t-246.5 -80h-123v205h22 q72 0 96.5 21.5t24.5 93.5v317z" />
<glyph unicode="~" horiz-adv-x="1095" d="M999 897q0 -162 -67.5 -229.5t-190.5 -67.5q-53 0 -103 16.5t-96 34.5l-88 35q-42 16 -81 16q-78 0 -103 -114l-172 26q0 158 69 225.5t189 67.5q51 0 101.5 -15t97.5 -34.5t90 -35t80 -15.5q41 0 65.5 29.5t36.5 83.5z" />
<glyph unicode="&#xa1;" horiz-adv-x="593" d="M141.027 891.007q0 77.9951 37.998 109.993t111.993 31.998h13.999q73.9951 0 111.993 -31.998t37.998 -109.993v-23.998q0 -77.9961 -37.998 -109.994t-111.993 -31.998h-13.999q-73.9951 0 -111.993 31.998t-37.998 109.994v23.998zM412.011 566.026l44.998 -962.94 h-306.981l44.9971 939.942q0 22.998 21.999 22.998h194.987z" />
<glyph unicode="&#xa2;" horiz-adv-x="1128" d="M993 190v-180q-55 -10 -121.5 -20t-134.5 -15v-237h-200v242q-92 12 -161 43.5t-120 82.5q-72 70 -106.5 169.5t-34.5 222.5q0 229 111.5 363t310.5 163v242h200v-238q59 -6 115.5 -16.5t95.5 -20.5q41 -12 49.5 -28.5t8.5 -44.5v-256h-213l-15 49q-6 23 -10 49l-8 51 q-23 4 -53.5 5t-53.5 1q-135 0 -188 -77.5t-53 -231.5q0 -86 16 -140.5t45 -91.5q35 -43 95.5 -64.5t160.5 -21.5h264z" />
<glyph unicode="&#xa3;" horiz-adv-x="1296" d="M209 0q-4 20 -7 56t-3 61q0 63 20.5 108t46 88t46 90.5t20.5 114.5q0 35 -4 69l-9 68h-196v148l170 26l-8 89q-4 45 -4 96q0 96 25.5 166.5t72.5 122.5q61 66 166.5 95t234.5 29q86 0 172 -10t150 -22v-197h-252q-90 0 -141.5 -11t-81.5 -40q-49 -43 -49 -146 q0 -41 3 -81.5t7 -81.5h321v-183h-295q4 -35 6.5 -66.5t2.5 -60.5q0 -92 -36 -169.5t-106 -149.5h469q0 25 2 53l4 56q2 28 5.5 49.5t5.5 31.5h207v-362q0 -25 -14.5 -31t-65.5 -6h-885z" />
<glyph unicode="&#xa4;" horiz-adv-x="1220" d="M1026 698q0 -121 -49 -209l143 -141l-147 -149l-152 153q-90 -43 -211 -43q-123 0 -211 43l-151 -153l-148 149l144 141q-49 88 -49 209q0 119 49 209l-144 142l148 149l151 -154q88 43 211 43q121 0 211 -43l152 154l147 -149l-143 -142q49 -90 49 -209zM762 698 q0 92 -40 137.5t-112 45.5t-111.5 -45t-39.5 -138q0 -92 40 -137t111 -45q72 0 112 45t40 137z" />
<glyph unicode="&#xa5;" horiz-adv-x="1298" d="M489 446v78h-258v168h197l-256 506h-111v203h218q41 0 67.5 -3t45 -14.5t34.5 -33t35 -56.5l227 -497l189 401h-91v203h451v-203h-104l-271 -506h193v-168h-258v-78h258v-165h-258v-78h139v-203h-588v203h141v78h-258v165h258z" />
<glyph unicode="&#xa6;" horiz-adv-x="516" d="M131 731v791h254v-791h-254zM131 -518v790h254v-790h-254z" />
<glyph unicode="&#xa7;" horiz-adv-x="1226" d="M395 315l13 -39q4 -16 9 -38.5t9 -44.5q41 -6 83 -10.5t81 -4.5q106 0 151 23q39 25 39 69q0 43 -29.5 63.5t-95.5 31.5l-178 30q-172 27 -236.5 103.5t-64.5 201.5q0 61 18.5 110.5t49.5 84.5q-68 76 -68 203q0 74 24.5 128t65.5 95q59 57 155.5 81.5t209.5 24.5 q88 0 172 -11t143 -27q29 -8 37 -20.5t8 -35.5v-252h-196q-12 27 -20.5 65t-12.5 66q-33 4 -70 6.5t-78 2.5q-72 0 -120 -18.5t-48 -76.5q0 -41 26 -64.5t110 -37.5l174 -29q154 -25 224.5 -93t70.5 -206q0 -59 -18.5 -108t-51.5 -88q33 -37 51.5 -86t18.5 -115 q0 -156 -112 -242t-335 -86q-129 0 -225 11.5t-143 27.5q-25 8 -32 22.5t-7 39.5v243h198zM469 793q-12 -12 -19.5 -26.5t-7.5 -37.5q0 -41 28 -63.5t112 -36.5l170 -29q33 20 32 68q0 41 -31.5 62.5t-97.5 31.5z" />
<glyph unicode="&#xa8;" d="M385 1372q0 -72 -37 -104.5t-108 -32.5h-13q-72 0 -107.5 32.5t-35.5 104.5v23q0 74 36 105.5t107 31.5h13q72 0 108.5 -32t36.5 -105v-23zM827 1372q0 -72 -35.5 -104.5t-107.5 -32.5h-12q-70 0 -108 32.5t-38 104.5v23q0 74 38 105.5t108 31.5h12q72 0 107.5 -32 t35.5 -105v-23z" />
<glyph unicode="&#xa9;" horiz-adv-x="1617" d="M1530 700q0 -176 -54.5 -312t-150.5 -228t-228 -140.5t-288 -48.5t-288 48.5t-228 140.5t-150.5 228t-54.5 312t54.5 312.5t150.5 228.5t228 139t288 47t288 -47t228 -139t150.5 -228.5t54.5 -312.5zM1321 700q0 262 -130 403.5t-382 141.5t-382 -141t-130 -404 q0 -262 130 -404t382 -142t382 142t130 404zM1034 360q-35 -6 -86 -11t-104 -5q-92 0 -151.5 22.5t-100.5 63.5q-45 45 -65.5 113.5t-20.5 158.5q0 92 20.5 156t65.5 115q41 47 101.5 69.5t146.5 22.5q39 0 85 -6t76 -15q41 -10 41 -49v-157h-135q-6 20 -10 43l-8 43 q-14 2 -30.5 3t-27.5 1q-78 0 -111.5 -52.5t-33.5 -168.5q0 -57 9.5 -103.5t31.5 -73.5q41 -47 152 -47h155v-123z" />
<glyph unicode="&#xaa;" horiz-adv-x="872" d="M498 1006h-109q-49 0 -74.5 -13.5t-25.5 -56.5q0 -35 21.5 -52.5t72.5 -17.5q23 0 56.5 4t58.5 11v125zM618 711q-84 0 -108 41q-39 -29 -88 -42.5t-96 -13.5q-104 0 -173 59.5t-69 170.5q0 117 72.5 171t242.5 54h99v31q0 47 -23.5 64.5t-87.5 17.5h-227v137 q55 12 123.5 20.5t134.5 8.5q72 0 129 -14.5t98 -49.5q31 -31 46.5 -73t15.5 -111v-320h86v-139q-41 -4 -90.5 -8t-84.5 -4z" />
<glyph unicode="&#xab;" horiz-adv-x="1165" d="M74 535q0 39 18.5 68.5t54.5 68.5l304 329l135 -114l-238 -352l238 -353l-135 -114l-304 329q-37 39 -55 69t-18 69zM559 535q0 39 18.5 68.5t55.5 68.5l303 329l135 -114l-237 -352l237 -353l-135 -114l-303 329q-37 39 -55.5 69t-18.5 69z" />
<glyph unicode="&#xac;" horiz-adv-x="1095" d="M739 764h-573v192h766v-585h-193v393z" />
<glyph unicode="&#xad;" horiz-adv-x="684" d="M94 410v243h496v-243h-496z" />
<glyph unicode="&#xae;" horiz-adv-x="1617" d="M1530 700q0 -176 -54.5 -312t-150.5 -228t-228 -140.5t-288 -48.5t-288 48.5t-228 140.5t-150.5 228t-54.5 312t54.5 312.5t150.5 228.5t228 139t288 47t288 -47t228 -139t150.5 -228.5t54.5 -312.5zM1321 700q0 262 -130 403.5t-382 141.5t-382 -141t-130 -404 q0 -262 130 -404t382 -142t382 142t130 404zM803 483v-123h-295v123h67v449h-67v123h311q143 0 209 -49.5t66 -176.5q0 -145 -115 -190l84 -156h78v-118l-76 -7.5t-51 -3.5q-45 0 -66.5 14.5t-38.5 45.5l-98 194h-66v-125h58zM745 729h68q61 0 85 25.5t24 79.5 q0 57 -25 77.5t-84 20.5h-68v-203z" />
<glyph unicode="&#xaf;" d="M141 1268v209h629v-209h-629z" />
<glyph unicode="&#xb0;" horiz-adv-x="1095" d="M948 1038q0 -86 -25.5 -156.5t-75.5 -122.5t-125 -81t-173 -29t-173 29t-125 81t-75.5 122.5t-25.5 156.5t25.5 157t75.5 123t125 80.5t173 28.5t173 -28.5t125 -80.5t75.5 -123t25.5 -157zM709 1038q0 90 -40 141.5t-120 51.5t-120 -51.5t-40 -141.5t40 -141t120 -51 t120 51t40 141z" />
<glyph unicode="&#xb1;" horiz-adv-x="1095" d="M645 676v-287h-192v287h-287v192h287v287h192v-287h287v-192h-287zM166 0v193h766v-193h-766z" />
<glyph unicode="&#xb2;" horiz-adv-x="1024" d="M467 877h176q2 27 8 52t17 46h139v-213q0 -29 -14.5 -39t-57.5 -10h-510q-4 14 -6 39.5t-2 35.5q0 45 12.5 78t57.5 82l137 150q76 82 101.5 126t25.5 79q0 33 -21 47q-25 16 -98 16h-196v156q45 10 114.5 17t138.5 7q168 0 242 -69q55 -53 55 -142q0 -41 -8 -76.5 t-30.5 -73.5t-62.5 -84t-103 -110z" />
<glyph unicode="&#xb3;" horiz-adv-x="1024" d="M397 1374q-2 -27 -8 -52.5t-16 -45.5h-140v213q0 29 14.5 39t57.5 10h479q16 -37 17 -76q0 -37 -16.5 -72.5t-61.5 -86.5l-100 -115q96 -16 150 -63.5t54 -151.5q0 -135 -92 -203t-252 -68q-57 0 -124.5 6.5t-108.5 16.5v156h196q84 0 115 20.5t31 69.5q0 53 -38 69.5 t-116 16.5h-39q-4 16 -6 29.5t-2 27.5q0 29 10.5 54.5t40.5 60.5l129 145h-174z" />
<glyph unicode="&#xb4;" d="M186 1303l332 309q61 55 103 -4l104 -146l-432 -291z" />
<glyph unicode="&#xb5;" horiz-adv-x="1253" d="M39 813v178l64 8q34 4 67 7.5t62.5 4.5t52.5 1q96 0 131 -37t35 -119v-508q0 -70 32 -100q20 -18 54 -24.5t75 -6.5q45 0 95.5 5t95.5 14v577h-121v191h405v-814h127v-180q-59 -8 -130.5 -14t-114.5 -6q-74 0 -111 20.5t-49 65.5q-68 -49 -160 -77t-198 -28v-432h-285 v1274h-127z" />
<glyph unicode="&#xb6;" horiz-adv-x="1337" d="M479 659q-174 0 -278.5 95.5t-104.5 275.5q0 90 29 160t79 117t120.5 70.5t154.5 23.5h756v-203h-139v-1614h-232v1614h-155v-1614h-230v1075z" />
<glyph unicode="&#xb7;" horiz-adv-x="489" d="M401 686q0 -78 -37.5 -109.5t-111.5 -31.5h-14q-74 0 -112 31.5t-38 109.5v25q0 78 38 109.5t112 31.5h14q74 0 111.5 -32t37.5 -109v-25z" />
<glyph unicode="&#xb8;" horiz-adv-x="876" d="M487 -100q49 -20 81 -39t50.5 -39.5t25.5 -47t7 -61.5q0 -98 -55 -159q-29 -35 -81 -52.5t-107 -17.5q-53 0 -98.5 8t-84.5 23v131h142q90 0 90 47q0 18 -15.5 32.5t-79.5 36.5l-20 7q-59 20 -86 45.5t-27 76.5q0 27 11.5 55.5t29.5 51.5h146q-4 -10 -6 -20.5t-2 -20.5 q0 -16 11 -25.5t46 -23.5z" />
<glyph unicode="&#xb9;" horiz-adv-x="1024" d="M766 877v-164h-479v164h147v489h-139v162q23 2 54 4l65 4q33 2 63.5 3t50.5 1q74 0 100.5 -22.5t26.5 -77.5v-563h111z" />
<glyph unicode="&#xba;" horiz-adv-x="858" d="M778 1061q0 -166 -84 -265.5t-264 -99.5t-265 99.5t-85 265.5q0 168 85 268.5t265 100.5t264 -100.5t84 -268.5zM561 1061q0 100 -30.5 149.5t-100.5 49.5q-72 0 -101.5 -49.5t-29.5 -149.5q0 -98 29.5 -146.5t101.5 -48.5q70 0 100.5 48.5t30.5 146.5z" />
<glyph unicode="&#xbb;" horiz-adv-x="1165" d="M606 535q0 -39 -18.5 -69t-55.5 -69l-303 -329l-135 114l238 353l-238 352l135 114l303 -329q37 -39 55.5 -68.5t18.5 -68.5zM1092 535q0 -39 -18.5 -69t-55.5 -69l-303 -329l-135 114l237 353l-237 352l135 114l303 -329q37 -39 55.5 -68.5t18.5 -68.5z" />
<glyph unicode="&#xbc;" horiz-adv-x="2045" d="M1223 176q-4 10 -6.5 25.5t-2.5 31.5q0 31 6.5 57.5t22.5 78.5l131 395q12 35 25.5 46t46.5 11h180l-162 -473h148v180h203v-180h71v-172h-71v-176h-203v176h-389zM754 -29h-252l747 1456h252zM668 748v-164h-480v164h148v489h-139v162q23 2 54 4l64 4q33 2 64 3t51 1 q74 0 100.5 -22.5t26.5 -77.5v-563h111z" />
<glyph unicode="&#xbd;" horiz-adv-x="2045" d="M754 -29h-252l747 1456h252zM668 748v-164h-480v164h148v489h-139v162q23 2 54 4l64 4q33 2 64 3t51 1q74 0 100.5 -22.5t26.5 -77.5v-563h111zM1538 164h176q2 27 8.5 52.5t16.5 45.5h139v-213q0 -29 -14.5 -39t-57.5 -10h-510q-4 14 -6 40t-2 36q0 45 12.5 77.5 t57.5 82.5l137 149q76 82 101.5 126t25.5 79q0 33 -20 47q-25 16 -99 16h-196v156q45 10 114.5 17.5t139.5 7.5q168 0 241 -70q55 -53 56 -141q0 -41 -8.5 -77t-31 -74t-62.5 -84t-103 -109z" />
<glyph unicode="&#xbe;" horiz-adv-x="2045" d="M1239 176q-4 10 -6 25.5t-2 31.5q0 31 6 57.5t23 78.5l131 395q12 35 25.5 46t45.5 11h180l-161 -473h147v180h203v-180h72v-172h-72v-176h-203v176h-389zM793 -29h-252l747 1456h252zM348 1237q-2 -27 -8 -52.5t-16 -45.5h-140v213q0 29 14.5 39t57.5 10h479 q16 -37 17 -76q0 -37 -16.5 -72.5t-61.5 -87.5l-101 -114q96 -16 150.5 -63.5t54.5 -151.5q0 -135 -92 -203t-252 -68q-57 0 -124.5 6.5t-108.5 16.5v155h196q84 0 115 20.5t31 70.5q0 53 -38 69.5t-116 16.5h-39q-4 16 -6 29.5t-2 27.5q0 29 10 54.5t41 60.5l129 145h-174z " />
<glyph unicode="&#xbf;" horiz-adv-x="897" d="M836.004 -384.915q-71.9961 -15.999 -160.99 -26.999q-88.9951 -10.999 -174.989 -10.999q-122.993 0 -212.987 28.498q-89.9941 28.499 -141.991 81.4951q-91.9941 91.9951 -91.9941 253.984q0 77.9961 21.498 135.492q21.499 57.4961 54.4971 105.493t73.9951 88.9951 q40.998 40.9971 77.4961 84.9941q36.4971 43.998 66.4951 93.9951t41.998 113.993h161.99q28.998 0 37.9971 -15.5q9 -15.499 9 -48.4961q0 -36.998 -12.5 -74.4961q-12.499 -37.498 -32.4971 -72.4951l-42.998 -69.9961q-22.998 -34.998 -44.9971 -64.9961 q-40.9971 -54.9961 -70.4961 -111.493q-29.498 -56.4961 -29.498 -128.492q0 -77.9951 39.998 -118.992q28.998 -26.999 71.9951 -35.998q42.998 -9 112.993 -9h245.985v-198.987zM332.034 891.007q0 77.9951 37.998 109.993t110.993 31.998h14.999 q73.9951 0 111.493 -31.998t37.498 -109.993v-23.998q0 -77.9961 -37.998 -109.994t-110.993 -31.998h-14.999q-73.9951 0 -111.493 31.998t-37.498 109.994v23.998z" />
<glyph unicode="&#xc0;" horiz-adv-x="1419" d="M840 203h123l-68 203h-457l-65 -203h129v-203h-498v203h119l424 1198h229q51 0 70.5 -9.5t30.5 -41.5l417 -1147h121v-203h-575v203zM508 610h317l-159 484zM872 1561l-432 290l105 146q41 59 102 4l332 -309z" />
<glyph unicode="&#xc1;" horiz-adv-x="1419" d="M840 203h123l-68 203h-457l-65 -203h129v-203h-498v203h119l424 1198h229q51 0 70.5 -9.5t30.5 -41.5l417 -1147h121v-203h-575v203zM508 610h317l-159 484zM440 1692l332 309q61 55 103 -4l104 -146l-432 -290z" />
<glyph unicode="&#xc2;" horiz-adv-x="1419" d="M840 203h123l-68 203h-457l-65 -203h129v-203h-498v203h119l424 1198h229q51 0 70.5 -9.5t30.5 -41.5l417 -1147h121v-203h-575v203zM508 610h317l-159 484zM1077 1673l-106 -108l-262 209l-262 -209l-107 108l209 242q31 37 57.5 51t79.5 14h45q53 0 80 -14t57 -51z" />
<glyph unicode="&#xc3;" horiz-adv-x="1419" d="M840 203h123l-68 203h-457l-65 -203h129v-203h-498v203h119l424 1198h229q51 0 70.5 -9.5t30.5 -41.5l417 -1147h121v-203h-575v203zM508 610h317l-159 484zM1098 1911q0 -141 -59.5 -217t-165.5 -76q-47 0 -89.5 14.5t-80.5 30.5l-75 31q-36 14 -69 14q-70 0 -88 -98 l-151 22q0 141 59 217t166 76q47 0 89 -14.5t81 -30.5l75 -31q36 -14 68 -14q70 0 88 98z" />
<glyph unicode="&#xc4;" horiz-adv-x="1419" d="M840 203h123l-68 203h-457l-65 -203h129v-203h-498v203h119l424 1198h229q51 0 70.5 -9.5t30.5 -41.5l417 -1147h121v-203h-575v203zM508 610h317l-159 484zM639 1761q0 -72 -37 -104.5t-108 -32.5h-13q-72 0 -107.5 33t-35.5 104v23q0 74 36 105.5t107 31.5h13 q72 0 108.5 -31.5t36.5 -105.5v-23zM1081 1761q0 -72 -35.5 -104.5t-107.5 -32.5h-12q-70 0 -108 33t-38 104v23q0 74 38 105.5t108 31.5h12q72 0 107.5 -31.5t35.5 -105.5v-23z" />
<glyph unicode="&#xc5;" horiz-adv-x="1419" d="M840 203h123l-68 203h-457l-65 -203h129v-203h-498v203h119l424 1198h229q51 0 70.5 -9.5t30.5 -41.5l417 -1147h121v-203h-575v203zM508 610h317l-159 484zM701 1714q55 0 81.5 24.5t26.5 86.5v8q0 66 -26.5 87.5t-81.5 21.5h-6q-57 0 -85 -22t-28 -87v-8 q0 -61 27.5 -86t85.5 -25h6zM705 2083q123 0 189.5 -55.5t66.5 -182.5v-28q0 -125 -66.5 -181.5t-189.5 -56.5h-14q-125 0 -191.5 56.5t-66.5 181.5v28q0 127 66.5 182.5t191.5 55.5h14z" />
<glyph unicode="&#xc6;" horiz-adv-x="2062" d="M1735 203q0 20 4 49t9 56.5t12 52t14 38.5h198v-362q0 -25 -14 -31t-66 -6h-1044v203h139v203h-461l-120 -203h92v-203h-494v203h127l688 1112q29 47 54.5 66.5t70.5 19.5h938q51 0 65.5 -6t14.5 -31v-363h-199q-6 14 -13 39t-12 52.5t-9.5 56.5t-4.5 49h-430v-379h394 v-217h-394v-399h441zM987 610v566l-336 -566h336z" />
<glyph unicode="&#xc7;" horiz-adv-x="1232" d="M848 -100q49 -20 81 -39t50 -39.5t25.5 -47t7.5 -61.5q0 -98 -56 -159q-29 -35 -81 -52.5t-107 -17.5q-53 0 -98 8t-84 23v131h141q90 0 90 47q0 18 -15.5 32.5t-78.5 36.5l-21 7q-59 20 -85.5 45.5t-26.5 76.5q0 45 26 89q-240 31 -364 161q-86 94 -126 233.5t-40 325.5 q0 182 42 321.5t128 231.5q88 94 212 134t271 40q92 0 185.5 -12t158.5 -29q35 -8 47.5 -23t12.5 -50v-301h-219q-10 27 -22.5 79t-16.5 93q-35 4 -71 7t-71 3q-74 0 -135 -18.5t-108 -75.5q-51 -61 -74 -160.5t-23 -232.5q0 -123 23 -228.5t76 -165.5q43 -47 116.5 -73.5 t208.5 -26.5h289v-207q-37 -8 -80 -14t-89 -10.5t-92 -7.5t-87 -3v-14q0 -16 11.5 -25.5t45.5 -23.5z" />
<glyph unicode="&#xc8;" horiz-adv-x="1318" d="M991 203q0 20 4 49t9.5 58.5t12.5 54t13 38.5h199v-366q0 -25 -13.5 -31t-66.5 -6h-1047v203h140v995h-140v203h1035q51 0 65.5 -6t14.5 -31v-363h-199q-6 14 -13.5 39t-12.5 52.5t-9 56.5t-4 49h-430v-379h336q37 0 48 -4t11 -22v-191h-395v-399h442zM821 1561l-432 290 l105 146q41 59 102 4l332 -309z" />
<glyph unicode="&#xc9;" horiz-adv-x="1318" d="M991 203q0 20 4 49t9.5 58.5t12.5 54t13 38.5h199v-366q0 -25 -13.5 -31t-66.5 -6h-1047v203h140v995h-140v203h1035q51 0 65.5 -6t14.5 -31v-363h-199q-6 14 -13.5 39t-12.5 52.5t-9 56.5t-4 49h-430v-379h336q37 0 48 -4t11 -22v-191h-395v-399h442zM409 1692l332 309 q61 55 103 -4l104 -146l-432 -290z" />
<glyph unicode="&#xca;" horiz-adv-x="1318" d="M991 203q0 20 4 49t9.5 58.5t12.5 54t13 38.5h199v-366q0 -25 -13.5 -31t-66.5 -6h-1047v203h140v995h-140v203h1035q51 0 65.5 -6t14.5 -31v-363h-199q-6 14 -13.5 39t-12.5 52.5t-9 56.5t-4 49h-430v-379h336q37 0 48 -4t11 -22v-191h-395v-399h442zM1044 1673 l-106 -108l-262 209l-262 -209l-107 108l209 242q31 37 57.5 51t79.5 14h45q53 0 80 -14t57 -51z" />
<glyph unicode="&#xcb;" horiz-adv-x="1318" d="M991 203q0 20 4 49t9.5 58.5t12.5 54t13 38.5h199v-366q0 -25 -13.5 -31t-66.5 -6h-1047v203h140v995h-140v203h1035q51 0 65.5 -6t14.5 -31v-363h-199q-6 14 -13.5 39t-12.5 52.5t-9 56.5t-4 49h-430v-379h336q37 0 48 -4t11 -22v-191h-395v-399h442zM592 1761 q0 -72 -37 -104.5t-108 -32.5h-13q-72 0 -107.5 33t-35.5 104v23q0 74 36 105.5t107 31.5h13q72 0 108.5 -31.5t36.5 -105.5v-23zM1034 1761q0 -72 -35.5 -104.5t-107.5 -32.5h-12q-70 0 -108 33t-38 104v23q0 74 38 105.5t108 31.5h12q72 0 107.5 -31.5t35.5 -105.5v-23z " />
<glyph unicode="&#xcc;" horiz-adv-x="798" d="M246 1198h-140v203h586v-203h-139v-995h139v-203h-586v203h140v995zM565 1561l-432 290l105 146q41 59 102 4l332 -309z" />
<glyph unicode="&#xcd;" horiz-adv-x="798" d="M246 1198h-140v203h586v-203h-139v-995h139v-203h-586v203h140v995zM133 1692l332 309q61 55 103 -4l104 -146l-432 -290z" />
<glyph unicode="&#xce;" horiz-adv-x="798" d="M246 1198h-140v203h586v-203h-139v-995h139v-203h-586v203h140v995zM770 1673l-106 -108l-262 209l-262 -209l-107 108l209 242q31 37 57.5 51t79.5 14h45q53 0 80 -14t57 -51z" />
<glyph unicode="&#xcf;" horiz-adv-x="798" d="M246 1198h-140v203h586v-203h-139v-995h139v-203h-586v203h140v995zM332 1761q0 -72 -37 -104.5t-108 -32.5h-13q-72 0 -107.5 33t-35.5 104v23q0 74 36 105.5t107 31.5h13q72 0 108.5 -31.5t36.5 -105.5v-23zM774 1761q0 -72 -35.5 -104.5t-107.5 -32.5h-12 q-70 0 -108 33t-38 104v23q0 74 38 105.5t108 31.5h12q72 0 107.5 -31.5t35.5 -105.5v-23z" />
<glyph unicode="&#xd0;" horiz-adv-x="1484" d="M90 782l160 19v397h-139v203h563q199 0 335 -35t222 -123q84 -82 126 -213t42 -323q0 -193 -41 -328t-127 -221q-78 -80 -202 -119t-310 -39h-608v203h139v401h-160v178zM557 817h256v-213h-256v-397h141q217 0 306 125q43 63 59 154.5t16 220.5q0 150 -23.5 243.5 t-76.5 151.5q-47 51 -123 71.5t-194 20.5h-105v-377z" />
<glyph unicode="&#xd1;" horiz-adv-x="1615" d="M1145 461v737h-139v203h532v-203h-141v-1198h-234l-667 895v-692h139v-203h-533v203h142v995h-142v203h250q31 0 51.5 -3t36 -10.5t27.5 -19.5t27 -31zM1196 1911q0 -141 -59.5 -217t-165.5 -76q-47 0 -89.5 14.5t-80.5 30.5l-75 31q-36 14 -69 14q-70 0 -88 -98l-151 22 q0 141 59 217t166 76q47 0 89 -14.5t81 -30.5l75 -31q36 -14 68 -14q70 0 88 98z" />
<glyph unicode="&#xd2;" horiz-adv-x="1404" d="M1319 698q0 -356 -152.5 -541.5t-464.5 -185.5q-311 0 -463.5 185.5t-152.5 541.5t152.5 542.5t463.5 186.5t464 -186.5t153 -542.5zM1001 698q0 254 -70.5 371t-228.5 117t-228.5 -117t-70.5 -371t71 -369.5t228 -115.5q158 0 228.5 115.5t70.5 369.5zM864 1561 l-432 290l105 146q41 59 102 4l332 -309z" />
<glyph unicode="&#xd3;" horiz-adv-x="1404" d="M1319 698q0 -356 -152.5 -541.5t-464.5 -185.5q-311 0 -463.5 185.5t-152.5 541.5t152.5 542.5t463.5 186.5t464 -186.5t153 -542.5zM1001 698q0 254 -70.5 371t-228.5 117t-228.5 -117t-70.5 -371t71 -369.5t228 -115.5q158 0 228.5 115.5t70.5 369.5zM432 1692l332 309 q61 55 103 -4l104 -146l-432 -290z" />
<glyph unicode="&#xd4;" horiz-adv-x="1404" d="M1319 698q0 -356 -152.5 -541.5t-464.5 -185.5q-311 0 -463.5 185.5t-152.5 541.5t152.5 542.5t463.5 186.5t464 -186.5t153 -542.5zM1001 698q0 254 -70.5 371t-228.5 117t-228.5 -117t-70.5 -371t71 -369.5t228 -115.5q158 0 228.5 115.5t70.5 369.5zM1071 1673 l-106 -108l-262 209l-262 -209l-107 108l209 242q31 37 57.5 51t79.5 14h45q53 0 80 -14t57 -51z" />
<glyph unicode="&#xd5;" horiz-adv-x="1404" d="M1319 698q0 -356 -152.5 -541.5t-464.5 -185.5q-311 0 -463.5 185.5t-152.5 541.5t152.5 542.5t463.5 186.5t464 -186.5t153 -542.5zM1001 698q0 254 -70.5 371t-228.5 117t-228.5 -117t-70.5 -371t71 -369.5t228 -115.5q158 0 228.5 115.5t70.5 369.5zM1092 1911 q0 -141 -59.5 -217t-165.5 -76q-47 0 -89.5 14.5t-80.5 30.5l-75 31q-36 14 -69 14q-70 0 -88 -98l-151 22q0 141 59 217t166 76q47 0 89 -14.5t81 -30.5l75 -31q36 -14 68 -14q70 0 88 98z" />
<glyph unicode="&#xd6;" horiz-adv-x="1404" d="M1319 698q0 -356 -152.5 -541.5t-464.5 -185.5q-311 0 -463.5 185.5t-152.5 541.5t152.5 542.5t463.5 186.5t464 -186.5t153 -542.5zM1001 698q0 254 -70.5 371t-228.5 117t-228.5 -117t-70.5 -371t71 -369.5t228 -115.5q158 0 228.5 115.5t70.5 369.5zM631 1761 q0 -72 -37 -104.5t-108 -32.5h-13q-72 0 -107.5 33t-35.5 104v23q0 74 36 105.5t107 31.5h13q72 0 108.5 -31.5t36.5 -105.5v-23zM1073 1761q0 -72 -35.5 -104.5t-107.5 -32.5h-12q-70 0 -108 33t-38 104v23q0 74 38 105.5t108 31.5h12q72 0 107.5 -31.5t35.5 -105.5v-23z " />
<glyph unicode="&#xd7;" horiz-adv-x="1095" d="M684 664l205 -205l-135 -135l-205 204l-205 -204l-135 135l205 205l-205 204l135 136l205 -205l205 205l135 -136z" />
<glyph unicode="&#xd8;" horiz-adv-x="1404" d="M1026 1354q147 -80 220 -245t73 -411q0 -356 -152.5 -541.5t-464.5 -185.5q-94 0 -170 19l-51 -142h-170l70 193q-150 80 -222.5 245t-72.5 412q0 356 152.5 542.5t463.5 186.5q47 0 90.5 -5t84.5 -13l51 141h170zM403 698q0 -266 78 -381l310 857q-41 12 -89 12 q-158 0 -228.5 -117t-70.5 -371zM1001 698q0 258 -75 377l-310 -852q45 -10 86 -10q158 0 228.5 115.5t70.5 369.5z" />
<glyph unicode="&#xd9;" horiz-adv-x="1517" d="M1053 1198h-140v203h551v-203h-141v-698q0 -135 -33 -228.5t-98 -158.5q-139 -141 -424 -142q-152 0 -265.5 33t-185.5 107q-61 61 -92.5 152t-31.5 231v704h-140v203h588v-203h-141v-702q0 -86 15 -135.5t56 -84.5q35 -31 87.5 -46t117.5 -15q68 0 121 15.5t88 50.5 q68 63 68 211v706zM901 1561l-432 290l105 146q41 59 102 4l332 -309z" />
<glyph unicode="&#xda;" horiz-adv-x="1517" d="M1053 1198h-140v203h551v-203h-141v-698q0 -135 -33 -228.5t-98 -158.5q-139 -141 -424 -142q-152 0 -265.5 33t-185.5 107q-61 61 -92.5 152t-31.5 231v704h-140v203h588v-203h-141v-702q0 -86 15 -135.5t56 -84.5q35 -31 87.5 -46t117.5 -15q68 0 121 15.5t88 50.5 q68 63 68 211v706zM510 1692l332 309q61 55 103 -4l104 -146l-432 -290z" />
<glyph unicode="&#xdb;" horiz-adv-x="1517" d="M1053 1198h-140v203h551v-203h-141v-698q0 -135 -33 -228.5t-98 -158.5q-139 -141 -424 -142q-152 0 -265.5 33t-185.5 107q-61 61 -92.5 152t-31.5 231v704h-140v203h588v-203h-141v-702q0 -86 15 -135.5t56 -84.5q35 -31 87.5 -46t117.5 -15q68 0 121 15.5t88 50.5 q68 63 68 211v706zM1147 1673l-106 -108l-262 209l-262 -209l-107 108l209 242q31 37 57.5 51t79.5 14h45q53 0 80 -14t57 -51z" />
<glyph unicode="&#xdc;" horiz-adv-x="1517" d="M1053 1198h-140v203h551v-203h-141v-698q0 -135 -33 -228.5t-98 -158.5q-139 -141 -424 -142q-152 0 -265.5 33t-185.5 107q-61 61 -92.5 152t-31.5 231v704h-140v203h588v-203h-141v-702q0 -86 15 -135.5t56 -84.5q35 -31 87.5 -46t117.5 -15q68 0 121 15.5t88 50.5 q68 63 68 211v706zM709 1761q0 -72 -37 -104.5t-108 -32.5h-13q-72 0 -107.5 33t-35.5 104v23q0 74 36 105.5t107 31.5h13q72 0 108.5 -31.5t36.5 -105.5v-23zM1151 1761q0 -72 -35.5 -104.5t-107.5 -32.5h-12q-70 0 -108 33t-38 104v23q0 74 38 105.5t108 31.5h12 q72 0 107.5 -31.5t35.5 -105.5v-23z" />
<glyph unicode="&#xdd;" horiz-adv-x="1335" d="M143 1198h-131v203h244q43 0 69.5 -5t45 -17.5t33 -33t30.5 -51.5l271 -497l233 401h-109v203h494v-203h-129l-381 -629v-366h141v-203h-587v203h139v368zM417 1692l332 309q61 55 103 -4l104 -146l-432 -290z" />
<glyph unicode="&#xde;" horiz-adv-x="1333" d="M549 203h139v-203h-586v203h140v995h-140v203h586v-203h-139v-102h149q113 0 216.5 -8.5t183.5 -47.5t127 -116.5t47 -214.5q0 -102 -21.5 -181t-76 -132.5t-144.5 -82t-225 -28.5q-31 0 -65.5 2t-70.5 6t-68 9t-52 9v-108zM549 889v-387h178q57 0 101 8t74 30.5 t44.5 61.5t14.5 103q0 61 -16.5 98t-48.5 55.5t-79 24.5t-108 6h-160z" />
<glyph unicode="&#xdf;" horiz-adv-x="1443" d="M188 1018q0 240 142 360q66 55 163 88t222 33q102 0 187 -21.5t145.5 -64.5t93.5 -107.5t33 -150.5q0 -98 -40 -162.5t-87 -110.5l-88 -82q-40 -36 -39 -77q0 -31 33.5 -47.5t86 -31.5t111.5 -34.5t111.5 -56.5t86 -95.5t33.5 -152.5q0 -70 -21.5 -129t-62.5 -100 q-51 -53 -131 -79t-204 -26q-76 0 -164 10.5t-152 32.5q-27 10 -36 23.5t-9 38.5v239h197q6 -18 12 -41l9 -41q5 -23 9 -45q33 -6 70 -9t72 -3q59 0 100 20.5t41 69.5q0 37 -36 58.5t-90 40t-117.5 38t-118 50t-90 79t-35.5 123.5q0 82 43 143.5t95 114t95 102.5t43 113 q0 74 -49 114t-135 40q-121 0 -187 -78q-31 -39 -44 -92t-13 -139v-973h-285v813h-170v178l170 10v17z" />
<glyph unicode="&#xe0;" horiz-adv-x="1144" d="M696 432h-166q-94 0 -133 -33q-33 -29 -32 -86q0 -57 32.5 -88.5t114.5 -31.5q43 0 95 7t89 17v215zM864 -8q-66 0 -101.5 15.5t-51.5 49.5q-59 -41 -134 -63.5t-147 -22.5q-78 0 -144.5 22.5t-107.5 63.5q-96 90 -96 244q0 68 20.5 127t63.5 100q53 51 141 72t228 21 h161v61q0 70 -30 98q-23 18 -55.5 25.5t-90.5 7.5h-327v180q37 8 84 15.5t98 12.5t101 8t97 3q98 0 181.5 -20.5t136.5 -67.5q47 -43 68.5 -104.5t21.5 -159.5v-490h127v-180q-29 -4 -62 -7l-68 -6q-34 -3 -64 -4t-50 -1zM716 1171l-432 291l105 146q41 59 102 4l332 -309z " />
<glyph unicode="&#xe1;" horiz-adv-x="1144" d="M696 432h-166q-94 0 -133 -33q-33 -29 -32 -86q0 -57 32.5 -88.5t114.5 -31.5q43 0 95 7t89 17v215zM864 -8q-66 0 -101.5 15.5t-51.5 49.5q-59 -41 -134 -63.5t-147 -22.5q-78 0 -144.5 22.5t-107.5 63.5q-96 90 -96 244q0 68 20.5 127t63.5 100q53 51 141 72t228 21 h161v61q0 70 -30 98q-23 18 -55.5 25.5t-90.5 7.5h-327v180q37 8 84 15.5t98 12.5t101 8t97 3q98 0 181.5 -20.5t136.5 -67.5q47 -43 68.5 -104.5t21.5 -159.5v-490h127v-180q-29 -4 -62 -7l-68 -6q-34 -3 -64 -4t-50 -1zM319 1303l332 309q61 55 103 -4l104 -146l-432 -291 z" />
<glyph unicode="&#xe2;" horiz-adv-x="1144" d="M696 432h-166q-94 0 -133 -33q-33 -29 -32 -86q0 -57 32.5 -88.5t114.5 -31.5q43 0 95 7t89 17v215zM864 -8q-66 0 -101.5 15.5t-51.5 49.5q-59 -41 -134 -63.5t-147 -22.5q-78 0 -144.5 22.5t-107.5 63.5q-96 90 -96 244q0 68 20.5 127t63.5 100q53 51 141 72t228 21 h161v61q0 70 -30 98q-23 18 -55.5 25.5t-90.5 7.5h-327v180q37 8 84 15.5t98 12.5t101 8t97 3q98 0 181.5 -20.5t136.5 -67.5q47 -43 68.5 -104.5t21.5 -159.5v-490h127v-180q-29 -4 -62 -7l-68 -6q-34 -3 -64 -4t-50 -1zM944 1284l-106 -108l-262 208l-262 -208l-107 108 l209 242q31 37 57.5 51t79.5 14h45q53 0 80 -14t57 -51z" />
<glyph unicode="&#xe3;" horiz-adv-x="1144" d="M696 432h-166q-94 0 -133 -33q-33 -29 -32 -86q0 -57 32.5 -88.5t114.5 -31.5q43 0 95 7t89 17v215zM864 -8q-66 0 -101.5 15.5t-51.5 49.5q-59 -41 -134 -63.5t-147 -22.5q-78 0 -144.5 22.5t-107.5 63.5q-96 90 -96 244q0 68 20.5 127t63.5 100q53 51 141 72t228 21 h161v61q0 70 -30 98q-23 18 -55.5 25.5t-90.5 7.5h-327v180q37 8 84 15.5t98 12.5t101 8t97 3q98 0 181.5 -20.5t136.5 -67.5q47 -43 68.5 -104.5t21.5 -159.5v-490h127v-180q-29 -4 -62 -7l-68 -6q-34 -3 -64 -4t-50 -1zM950 1522q0 -141 -59.5 -217t-165.5 -76 q-47 0 -89.5 14t-80.5 31l-75 31q-36 14 -69 14q-70 0 -88 -98l-151 22q0 141 59 217t166 76q47 0 89 -14.5t81 -30.5l75 -31q36 -14 68 -14q70 0 88 98z" />
<glyph unicode="&#xe4;" horiz-adv-x="1144" d="M696 432h-166q-94 0 -133 -33q-33 -29 -32 -86q0 -57 32.5 -88.5t114.5 -31.5q43 0 95 7t89 17v215zM864 -8q-66 0 -101.5 15.5t-51.5 49.5q-59 -41 -134 -63.5t-147 -22.5q-78 0 -144.5 22.5t-107.5 63.5q-96 90 -96 244q0 68 20.5 127t63.5 100q53 51 141 72t228 21 h161v61q0 70 -30 98q-23 18 -55.5 25.5t-90.5 7.5h-327v180q37 8 84 15.5t98 12.5t101 8t97 3q98 0 181.5 -20.5t136.5 -67.5q47 -43 68.5 -104.5t21.5 -159.5v-490h127v-180q-29 -4 -62 -7l-68 -6q-34 -3 -64 -4t-50 -1zM494 1372q0 -72 -37 -104.5t-108 -32.5h-13 q-72 0 -107.5 32.5t-35.5 104.5v23q0 74 36 105.5t107 31.5h13q72 0 108.5 -32t36.5 -105v-23zM936 1372q0 -72 -35.5 -104.5t-107.5 -32.5h-12q-70 0 -108 32.5t-38 104.5v23q0 74 38 105.5t108 31.5h12q72 0 107.5 -32t35.5 -105v-23z" />
<glyph unicode="&#xe5;" horiz-adv-x="1144" d="M696 432h-166q-94 0 -133 -33q-33 -29 -32 -86q0 -57 32.5 -88.5t114.5 -31.5q43 0 95 7t89 17v215zM864 -8q-66 0 -101.5 15.5t-51.5 49.5q-59 -41 -134 -63.5t-147 -22.5q-78 0 -144.5 22.5t-107.5 63.5q-96 90 -96 244q0 68 20.5 127t63.5 100q53 51 141 72t228 21 h161v61q0 70 -30 98q-23 18 -55.5 25.5t-90.5 7.5h-327v180q37 8 84 15.5t98 12.5t101 8t97 3q98 0 181.5 -20.5t136.5 -67.5q47 -43 68.5 -104.5t21.5 -159.5v-490h127v-180q-29 -4 -62 -7l-68 -6q-34 -3 -64 -4t-50 -1zM567 1325q55 0 81.5 24.5t26.5 86.5v8 q0 66 -26.5 87t-81.5 21h-6q-57 0 -85 -21.5t-28 -86.5v-8q0 -61 27.5 -86t85.5 -25h6zM571 1694q123 0 189.5 -55.5t66.5 -182.5v-29q0 -125 -66.5 -181t-189.5 -56h-14q-125 0 -191.5 56.5t-66.5 180.5v29q0 127 66.5 182.5t191.5 55.5h14z" />
<glyph unicode="&#xe6;" horiz-adv-x="1705" d="M981 412q4 -43 17.5 -85t41.5 -71q35 -33 93.5 -49.5t156.5 -16.5h297v-180q-72 -14 -172 -26.5t-201 -12.5q-131 0 -224 31t-159 84q-80 -55 -178 -85t-217 -30q-174 0 -264 91.5t-90 238.5q0 68 20.5 127t63.5 100q53 51 141 72t228 21h161v61q0 70 -30 98 q-23 18 -55.5 25.5t-90.5 7.5h-327v180q37 8 84 15.5t98 12.5t101 8t97 3q100 0 180.5 -20.5t125.5 -67.5q51 39 124.5 63.5t165.5 24.5q229 0 345 -129t116 -377v-92q0 -23 -20 -22h-629zM512 193q47 0 101.5 8t113.5 28q-18 45 -29.5 96.5t-15.5 106.5h-152 q-94 0 -133 -33q-33 -29 -32 -86q0 -57 32.5 -88.5t114.5 -31.5zM1352 602q-4 96 -48 152.5t-137 56.5q-94 0 -138 -55.5t-48 -153.5h371z" />
<glyph unicode="&#xe7;" horiz-adv-x="1030" d="M666 -100q49 -20 80.5 -39t50 -39.5t25.5 -47t7 -61.5q0 -98 -55 -159q-29 -35 -81 -52.5t-107 -17.5q-53 0 -98.5 8t-84.5 23v131h142q90 0 90 47q0 18 -15.5 32.5t-78.5 36.5l-21 7q-59 20 -85.5 45.5t-26.5 76.5t32 97q-74 14 -130 44.5t-101 73.5 q-72 70 -106.5 169.5t-34.5 222.5q0 260 139 397t385 137q37 0 79 -3t84 -9t79.5 -13.5t66.5 -15.5q41 -12 49 -28.5t8 -44.5v-256h-213q-8 25 -14 49q-6 23 -10 49l-8 51q-23 4 -53.5 5t-53.5 1q-135 0 -188 -77.5t-53 -231.5q0 -86 16 -140.5t45 -91.5q35 -43 95.5 -64.5 t160.5 -21.5h264v-180q-72 -16 -164 -27.5t-178 -11.5h-18v-14q0 -16 11 -25.5t46 -23.5z" />
<glyph unicode="&#xe8;" horiz-adv-x="1091" d="M367 412q4 -43 17 -85t42 -71q35 -33 93.5 -49.5t156.5 -16.5h297v-180q-72 -14 -172.5 -26.5t-200.5 -12.5q-141 0 -237.5 35t-161.5 96q-74 72 -103.5 174.5t-29.5 225.5q0 119 29.5 216t90 166.5t151.5 108.5t216 39q229 0 345 -129t116 -377v-92q0 -23 -21 -22h-628z M737 602q-4 96 -48 152.5t-136 56.5q-94 0 -138 -55.5t-48 -153.5h370zM724 1171l-432 291l105 146q41 59 102 4l332 -309z" />
<glyph unicode="&#xe9;" horiz-adv-x="1091" d="M367 412q4 -43 17 -85t42 -71q35 -33 93.5 -49.5t156.5 -16.5h297v-180q-72 -14 -172.5 -26.5t-200.5 -12.5q-141 0 -237.5 35t-161.5 96q-74 72 -103.5 174.5t-29.5 225.5q0 119 29.5 216t90 166.5t151.5 108.5t216 39q229 0 345 -129t116 -377v-92q0 -23 -21 -22h-628z M737 602q-4 96 -48 152.5t-136 56.5q-94 0 -138 -55.5t-48 -153.5h370zM315 1303l332 309q61 55 103 -4l104 -146l-432 -291z" />
<glyph unicode="&#xea;" horiz-adv-x="1091" d="M367 412q4 -43 17 -85t42 -71q35 -33 93.5 -49.5t156.5 -16.5h297v-180q-72 -14 -172.5 -26.5t-200.5 -12.5q-141 0 -237.5 35t-161.5 96q-74 72 -103.5 174.5t-29.5 225.5q0 119 29.5 216t90 166.5t151.5 108.5t216 39q229 0 345 -129t116 -377v-92q0 -23 -21 -22h-628z M737 602q-4 96 -48 152.5t-136 56.5q-94 0 -138 -55.5t-48 -153.5h370zM921 1284l-106 -108l-262 208l-262 -208l-107 108l209 242q31 37 57.5 51t79.5 14h45q53 0 80 -14t57 -51z" />
<glyph unicode="&#xeb;" horiz-adv-x="1091" d="M367 412q4 -43 17 -85t42 -71q35 -33 93.5 -49.5t156.5 -16.5h297v-180q-72 -14 -172.5 -26.5t-200.5 -12.5q-141 0 -237.5 35t-161.5 96q-74 72 -103.5 174.5t-29.5 225.5q0 119 29.5 216t90 166.5t151.5 108.5t216 39q229 0 345 -129t116 -377v-92q0 -23 -21 -22h-628z M737 602q-4 96 -48 152.5t-136 56.5q-94 0 -138 -55.5t-48 -153.5h370zM489 1372q0 -72 -37 -104.5t-108 -32.5h-13q-72 0 -107.5 32.5t-35.5 104.5v23q0 74 36 105.5t107 31.5h13q72 0 108.5 -32t36.5 -105v-23zM931 1372q0 -72 -35.5 -104.5t-107.5 -32.5h-12 q-70 0 -108 32.5t-38 104.5v23q0 74 38 105.5t108 31.5h12q72 0 107.5 -32t35.5 -105v-23z" />
<glyph unicode="&#xec;" horiz-adv-x="604" d="M469 0h-285v813h-135v178q31 4 66 7l69 7q35 3 66 5t51 2q98 0 133 -36t35 -120v-856zM446 1171l-432 291l105 146q41 59 102 4l332 -309z" />
<glyph unicode="&#xed;" horiz-adv-x="604" d="M469 0h-285v813h-135v178q31 4 66 7l69 7q35 3 66 5t51 2q98 0 133 -36t35 -120v-856zM47 1303l332 309q61 55 103 -4l104 -146l-432 -291z" />
<glyph unicode="&#xee;" horiz-adv-x="604" d="M469 0h-285v813h-135v178q31 4 66 7l69 7q35 3 66 5t51 2q98 0 133 -36t35 -120v-856zM673 1284l-106 -108l-262 208l-262 -208l-107 108l209 242q31 37 57.5 51t79.5 14h45q53 0 80 -14t57 -51z" />
<glyph unicode="&#xef;" horiz-adv-x="604" d="M469 0h-285v813h-135v178q31 4 66 7l69 7q35 3 66 5t51 2q98 0 133 -36t35 -120v-856zM227 1372q0 -72 -37 -104.5t-108 -32.5h-13q-72 0 -107.5 32.5t-35.5 104.5v23q0 74 36 105.5t107 31.5h13q72 0 108.5 -32t36.5 -105v-23zM669 1372q0 -72 -35.5 -104.5 t-107.5 -32.5h-12q-70 0 -108 32.5t-38 104.5v23q0 74 38 105.5t108 31.5h12q72 0 107.5 -32t35.5 -105v-23z" />
<glyph unicode="&#xf0;" horiz-adv-x="1171" d="M281 1452l73 72l52 50q23 22 20 21l87 -58l83 -58l143 139l119 -119l-133 -131q174 -164 265 -361.5t91 -451.5q0 -131 -28.5 -238.5t-90 -184.5t-156.5 -119t-226 -42q-127 0 -220.5 37t-154 103.5t-90 156.5t-29.5 195q0 119 32 209t89 151.5t136 93t173 31.5 q59 0 112.5 -14t104.5 -39q-51 162 -178 307l-135 -131l-119 119l135 133l-74 62zM778 553q0 41 -2 81t-6 77q-41 12 -81 19t-81 7q-115 0 -166 -70.5t-51 -199.5q0 -117 46 -194.5t149 -77.5q109 0 150.5 97t41.5 261z" />
<glyph unicode="&#xf1;" horiz-adv-x="1269" d="M1233 190v-180q-29 -4 -63 -7l-67 -6q-34 -3 -64.5 -5t-51.5 -2q-96 0 -131 36.5t-35 118.5v510q0 70 -33 101q-20 18 -53 24t-73 6q-47 0 -100.5 -5t-96.5 -15v-766h-285v813h-141v178q59 10 131 15.5t125 5.5q76 0 113.5 -20.5t52.5 -63.5q68 47 157 75.5t179 28.5 q78 0 136 -24.5t99 -69.5q74 -86 74 -244v-504h127zM1047 1522q0 -141 -59.5 -217t-165.5 -76q-47 0 -89.5 14t-80.5 31l-75 31q-36 14 -69 14q-70 0 -88 -98l-151 22q0 141 59 217t166 76q47 0 89 -14.5t81 -30.5l75 -31q36 -14 68 -14q70 0 88 98z" />
<glyph unicode="&#xf2;" horiz-adv-x="1146" d="M1079 502q0 -121 -30.5 -219.5t-93 -167t-158 -106.5t-224.5 -38t-224 38t-157.5 106.5t-93 167t-30.5 219.5t30.5 219t93 166.5t157.5 106.5t224 38t224.5 -38t158 -106.5t93 -166.5t30.5 -219zM782 502q0 156 -48 231.5t-161 75.5t-160.5 -76t-47.5 -231 q0 -156 48 -231.5t160 -75.5q113 0 161 75.5t48 231.5zM731 1171l-432 291l105 146q41 59 102 4l332 -309z" />
<glyph unicode="&#xf3;" horiz-adv-x="1146" d="M1079 502q0 -121 -30.5 -219.5t-93 -167t-158 -106.5t-224.5 -38t-224 38t-157.5 106.5t-93 167t-30.5 219.5t30.5 219t93 166.5t157.5 106.5t224 38t224.5 -38t158 -106.5t93 -166.5t30.5 -219zM782 502q0 156 -48 231.5t-161 75.5t-160.5 -76t-47.5 -231 q0 -156 48 -231.5t160 -75.5q113 0 161 75.5t48 231.5zM311 1303l332 309q61 55 103 -4l104 -146l-432 -291z" />
<glyph unicode="&#xf4;" horiz-adv-x="1146" d="M1079 502q0 -121 -30.5 -219.5t-93 -167t-158 -106.5t-224.5 -38t-224 38t-157.5 106.5t-93 167t-30.5 219.5t30.5 219t93 166.5t157.5 106.5t224 38t224.5 -38t158 -106.5t93 -166.5t30.5 -219zM782 502q0 156 -48 231.5t-161 75.5t-160.5 -76t-47.5 -231 q0 -156 48 -231.5t160 -75.5q113 0 161 75.5t48 231.5zM944 1284l-106 -108l-262 208l-262 -208l-107 108l209 242q31 37 57.5 51t79.5 14h45q53 0 80 -14t57 -51z" />
<glyph unicode="&#xf5;" horiz-adv-x="1146" d="M1079 502q0 -121 -30.5 -219.5t-93 -167t-158 -106.5t-224.5 -38t-224 38t-157.5 106.5t-93 167t-30.5 219.5t30.5 219t93 166.5t157.5 106.5t224 38t224.5 -38t158 -106.5t93 -166.5t30.5 -219zM782 502q0 156 -48 231.5t-161 75.5t-160.5 -76t-47.5 -231 q0 -156 48 -231.5t160 -75.5q113 0 161 75.5t48 231.5zM963 1522q0 -141 -59.5 -217t-165.5 -76q-47 0 -89.5 14t-80.5 31l-75 31q-36 14 -69 14q-70 0 -88 -98l-151 22q0 141 59 217t166 76q47 0 89 -14.5t81 -30.5l75 -31q36 -14 68 -14q70 0 88 98z" />
<glyph unicode="&#xf6;" horiz-adv-x="1146" d="M1079 502q0 -121 -30.5 -219.5t-93 -167t-158 -106.5t-224.5 -38t-224 38t-157.5 106.5t-93 167t-30.5 219.5t30.5 219t93 166.5t157.5 106.5t224 38t224.5 -38t158 -106.5t93 -166.5t30.5 -219zM782 502q0 156 -48 231.5t-161 75.5t-160.5 -76t-47.5 -231 q0 -156 48 -231.5t160 -75.5q113 0 161 75.5t48 231.5zM502 1372q0 -72 -37 -104.5t-108 -32.5h-13q-72 0 -107.5 32.5t-35.5 104.5v23q0 74 36 105.5t107 31.5h13q72 0 108.5 -32t36.5 -105v-23zM944 1372q0 -72 -35.5 -104.5t-107.5 -32.5h-12q-70 0 -108 32.5t-38 104.5 v23q0 74 38 105.5t108 31.5h12q72 0 107.5 -32t35.5 -105v-23z" />
<glyph unicode="&#xf7;" horiz-adv-x="1095" d="M692 1051q0 -127 -135 -127h-14q-133 0 -133 127v26q0 68 32.5 96.5t100.5 28.5h14q68 0 101.5 -28.5t33.5 -96.5v-26zM692 250q0 -68 -33.5 -97.5t-101.5 -29.5h-14q-68 0 -100.5 29.5t-32.5 97.5v26q0 68 32.5 96.5t100.5 28.5h14q68 0 101.5 -28.5t33.5 -96.5v-26z M166 567v193h766v-193h-766z" />
<glyph unicode="&#xf8;" horiz-adv-x="1146" d="M1079 502q0 -121 -30.5 -219.5t-93 -167t-158 -106.5t-224.5 -38q-31 0 -58.5 2t-53.5 7l-47 -132h-142l60 166q-135 59 -199.5 184.5t-64.5 303.5q0 121 30.5 219t93 166.5t157.5 106.5t224 38q33 0 64 -3t59 -7l49 133h142l-64 -172q131 -59 193.5 -183t62.5 -298z M365 502q0 -170 55 -244l198 547q-10 2 -21 3t-24 1q-113 0 -160.5 -75.5t-47.5 -231.5zM782 502q0 78 -11 135t-38 96l-194 -536q10 -2 17 -2h17q113 0 161 75.5t48 231.5z" />
<glyph unicode="&#xf9;" horiz-adv-x="1251" d="M967 -8q-74 0 -111 20.5t-49 65.5q-68 -49 -157 -78t-177 -29q-78 0 -136 24.5t-97 70.5q-39 43 -57.5 104t-18.5 139v504h-127v180q59 8 131 13.5t115 5.5q96 0 131 -36t35 -118v-510q0 -68 32 -100q20 -18 54 -24.5t75 -6.5q45 0 95.5 5t95.5 16v575h-121v191h405v-814 h127v-178l-64 -8q-34 -4 -66.5 -7t-63.5 -4t-51 -1zM755 1171l-432 291l105 146q41 59 102 4l332 -309z" />
<glyph unicode="&#xfa;" horiz-adv-x="1251" d="M967 -8q-74 0 -111 20.5t-49 65.5q-68 -49 -157 -78t-177 -29q-78 0 -136 24.5t-97 70.5q-39 43 -57.5 104t-18.5 139v504h-127v180q59 8 131 13.5t115 5.5q96 0 131 -36t35 -118v-510q0 -68 32 -100q20 -18 54 -24.5t75 -6.5q45 0 95.5 5t95.5 16v575h-121v191h405v-814 h127v-178l-64 -8q-34 -4 -66.5 -7t-63.5 -4t-51 -1zM383 1303l332 309q61 55 103 -4l104 -146l-432 -291z" />
<glyph unicode="&#xfb;" horiz-adv-x="1251" d="M967 -8q-74 0 -111 20.5t-49 65.5q-68 -49 -157 -78t-177 -29q-78 0 -136 24.5t-97 70.5q-39 43 -57.5 104t-18.5 139v504h-127v180q59 8 131 13.5t115 5.5q96 0 131 -36t35 -118v-510q0 -68 32 -100q20 -18 54 -24.5t75 -6.5q45 0 95.5 5t95.5 16v575h-121v191h405v-814 h127v-178l-64 -8q-34 -4 -66.5 -7t-63.5 -4t-51 -1zM977 1284l-106 -108l-262 208l-262 -208l-107 108l209 242q31 37 57.5 51t79.5 14h45q53 0 80 -14t57 -51z" />
<glyph unicode="&#xfc;" horiz-adv-x="1251" d="M967 -8q-74 0 -111 20.5t-49 65.5q-68 -49 -157 -78t-177 -29q-78 0 -136 24.5t-97 70.5q-39 43 -57.5 104t-18.5 139v504h-127v180q59 8 131 13.5t115 5.5q96 0 131 -36t35 -118v-510q0 -68 32 -100q20 -18 54 -24.5t75 -6.5q45 0 95.5 5t95.5 16v575h-121v191h405v-814 h127v-178l-64 -8q-34 -4 -66.5 -7t-63.5 -4t-51 -1zM539 1372q0 -72 -37 -104.5t-108 -32.5h-13q-72 0 -107.5 32.5t-35.5 104.5v23q0 74 36 105.5t107 31.5h13q72 0 108.5 -32t36.5 -105v-23zM981 1372q0 -72 -35.5 -104.5t-107.5 -32.5h-12q-70 0 -108 32.5t-38 104.5v23 q0 74 38 105.5t108 31.5h12q72 0 107.5 -32t35.5 -105v-23z" />
<glyph unicode="&#xfd;" horiz-adv-x="1220" d="M37 813v180q59 8 131 13.5t115 5.5q96 0 131 -37t35 -119v-508q0 -68 32 -100q20 -18 54 -24.5t75 -6.5q45 0 95.5 5t95.5 16v575h-121v191h405v-1037q0 -117 -24.5 -200.5t-79.5 -141.5q-111 -115 -358 -114q-70 0 -154 7t-150 23v183h224q143 0 200 51t58 180v113 q-68 -45 -154 -71t-174 -26q-78 0 -136 24.5t-97 70.5q-39 43 -57.5 104t-18.5 139v504h-127zM360 1303l332 309q61 55 103 -4l104 -146l-432 -291z" />
<glyph unicode="&#xfe;" horiz-adv-x="1159" d="M432 932q66 47 142.5 73.5t152.5 26.5q98 0 167 -40t113 -109.5t63.5 -165.5t19.5 -207q0 -147 -29 -250.5t-80 -167t-123 -92.5t-156 -29q-68 0 -140.5 23.5t-129.5 58.5v-514h-285v1745h-135v178q31 4 66 7l68 7q34 3 65 5t53 2q98 0 133 -36t35 -118v-397zM432 236 q37 -16 86 -24.5t98 -8.5q47 0 80 14t54.5 50t32 96.5t10.5 150.5q0 80 -10.5 134t-32 87t-56.5 47.5t-86 14.5q-37 0 -87 -9.5t-89 -19.5v-532z" />
<glyph unicode="&#xff;" horiz-adv-x="1220" d="M37 813v180q59 8 131 13.5t115 5.5q96 0 131 -37t35 -119v-508q0 -68 32 -100q20 -18 54 -24.5t75 -6.5q45 0 95.5 5t95.5 16v575h-121v191h405v-1037q0 -117 -24.5 -200.5t-79.5 -141.5q-111 -115 -358 -114q-70 0 -154 7t-150 23v183h224q143 0 200 51t58 180v113 q-68 -45 -154 -71t-174 -26q-78 0 -136 24.5t-97 70.5q-39 43 -57.5 104t-18.5 139v504h-127zM522 1372q0 -72 -37 -104.5t-108 -32.5h-13q-72 0 -107.5 32.5t-35.5 104.5v23q0 74 36 105.5t107 31.5h13q72 0 108.5 -32t36.5 -105v-23zM964 1372q0 -72 -35.5 -104.5 t-107.5 -32.5h-12q-70 0 -108 32.5t-38 104.5v23q0 74 38 105.5t108 31.5h12q72 0 107.5 -32t35.5 -105v-23z" />
<glyph unicode="&#x131;" horiz-adv-x="604" d="M469 0h-285v813h-135v178q31 4 66 7l69 7q35 3 66 5t51 2q98 0 133 -36t35 -120v-856z" />
<glyph unicode="&#x152;" horiz-adv-x="2023" d="M1843 1401q51 0 65.5 -6t14.5 -31v-363h-199q-6 14 -13 39t-12 52.5t-9 56.5t-4 49h-431v-379h394v-217h-394v-399h441q0 20 4 49t9 56.5t12.5 52t13.5 38.5h198v-362q0 -25 -14 -31t-66 -6h-1087q-186 0 -310 39t-202 119q-86 86 -127 221t-41 328t45 323.5t129 212.5 q86 88 222 123t335 35h1026zM946 1194h-117q-119 0 -194.5 -20.5t-122.5 -71.5q-53 -57 -79.5 -151.5t-26.5 -243.5q0 -129 16 -220.5t59 -154.5q88 -125 305 -125h160v987z" />
<glyph unicode="&#x153;" horiz-adv-x="1798" d="M1081 412q4 -43 18.5 -85t43.5 -71q35 -33 93 -49.5t157 -16.5h288v-180q-72 -14 -168 -26.5t-198 -12.5q-133 0 -226.5 30t-158.5 89q-63 -59 -151.5 -89t-205.5 -30q-129 0 -224 38t-157.5 106.5t-93 167t-30.5 219.5t30.5 219t93 166.5t157.5 106.5t224 38 q225 0 353 -117q125 117 342 117q225 0 339.5 -122t114.5 -384v-92q0 -23 -18 -22h-623zM780 502q0 156 -48 231.5t-159 75.5q-113 0 -160.5 -76t-47.5 -231q0 -156 48 -231.5t160 -75.5q111 0 159 75.5t48 231.5zM1446 602q-6 98 -47 156.5t-133 58.5q-94 0 -137.5 -55 t-47.5 -160h365z" />
<glyph unicode="&#x178;" horiz-adv-x="1335" d="M143 1198h-131v203h244q43 0 69.5 -5t45 -17.5t33 -33t30.5 -51.5l271 -497l233 401h-109v203h494v-203h-129l-381 -629v-366h141v-203h-587v203h139v368zM616 1761q0 -72 -37 -104.5t-108 -32.5h-13q-72 0 -107.5 33t-35.5 104v23q0 74 36 105.5t107 31.5h13 q72 0 108.5 -31.5t36.5 -105.5v-23zM1058 1761q0 -72 -35.5 -104.5t-107.5 -32.5h-12q-70 0 -108 33t-38 104v23q0 74 38 105.5t108 31.5h12q72 0 107.5 -31.5t35.5 -105.5v-23z" />
<glyph unicode="&#x2c6;" d="M825 1284l-106 -108l-262 208l-262 -208l-107 108l209 242q31 37 57.5 51t79.5 14h45q53 0 80 -14t57 -51z" />
<glyph unicode="&#x2da;" d="M461 1325q55 0 81.5 24.5t26.5 86.5v8q0 66 -26.5 87t-81.5 21h-6q-57 0 -85 -21.5t-28 -86.5v-8q0 -61 27.5 -86t85.5 -25h6zM465 1694q123 0 189.5 -55.5t66.5 -182.5v-29q0 -125 -66.5 -181t-189.5 -56h-14q-125 0 -191.5 56.5t-66.5 180.5v29q0 127 66.5 182.5 t191.5 55.5h14z" />
<glyph unicode="&#x2dc;" d="M846 1522q0 -141 -59.5 -217t-165.5 -76q-47 0 -89.5 14t-80.5 31l-75 31q-36 14 -69 14q-70 0 -88 -98l-151 22q0 141 59 217t166 76q47 0 89 -14.5t81 -30.5l75 -31q36 -14 68 -14q70 0 88 98z" />
<glyph unicode="&#x2000;" horiz-adv-x="1040" />
<glyph unicode="&#x2001;" horiz-adv-x="2082" />
<glyph unicode="&#x2002;" horiz-adv-x="1040" />
<glyph unicode="&#x2003;" horiz-adv-x="2082" />
<glyph unicode="&#x2004;" horiz-adv-x="694" />
<glyph unicode="&#x2005;" horiz-adv-x="520" />
<glyph unicode="&#x2006;" horiz-adv-x="346" />
<glyph unicode="&#x2007;" horiz-adv-x="346" />
<glyph unicode="&#x2008;" horiz-adv-x="260" />
<glyph unicode="&#x2009;" horiz-adv-x="415" />
<glyph unicode="&#x200a;" horiz-adv-x="114" />
<glyph unicode="&#x2010;" horiz-adv-x="684" d="M94 410v243h496v-243h-496z" />
<glyph unicode="&#x2011;" horiz-adv-x="684" d="M94 410v243h496v-243h-496z" />
<glyph unicode="&#x2012;" horiz-adv-x="684" d="M94 410v243h496v-243h-496z" />
<glyph unicode="&#x2013;" horiz-adv-x="1024" d="M0 410v243h1024v-243h-1024z" />
<glyph unicode="&#x2014;" horiz-adv-x="2048" d="M0 410v243h2048v-243h-2048z" />
<glyph unicode="&#x2018;" horiz-adv-x="473" d="M403 977q0 -74 -37.5 -114t-111.5 -40h-14q-74 0 -114 38t-40 116v55q0 109 7 201t26 145q14 49 80 49h84v-290q68 -23 94 -59t26 -99v-2z" />
<glyph unicode="&#x2019;" horiz-adv-x="473" d="M70 1274q0 74 37.5 113.5t111.5 39.5h14q74 0 114 -37.5t40 -115.5v-55q0 -109 -7 -201t-26 -146q-8 -25 -26.5 -37t-53.5 -12h-84v291q-68 23 -94 58.5t-26 99.5v2z" />
<glyph unicode="&#x201a;" horiz-adv-x="473" d="M70 90q0 74 37.5 114t111.5 40h14q152 0 152 -154v-55q0 -109 -7 -201t-26 -145q-8 -25 -26.5 -37t-53.5 -12h-82v290q-68 23 -94 59t-26 99v2z" />
<glyph unicode="&#x201c;" horiz-adv-x="892" d="M823 977q0 -74 -37.5 -114t-111.5 -40h-17q-152 0 -151 154v55q0 109 7 201t26 145q14 49 77 49h86v-290q68 -23 94.5 -59t26.5 -99v-2zM403 977q0 -74 -36.5 -114t-110.5 -40h-16q-74 0 -114 38t-40 116v55q0 109 8 201t25 145q10 25 27.5 37t52.5 12h86v-290 q66 -23 92 -59t26 -99v-2z" />
<glyph unicode="&#x201d;" horiz-adv-x="892" d="M70 1274q0 74 37.5 113.5t111.5 39.5h17q152 0 151 -153v-55q0 -109 -7 -201t-26 -146q-8 -25 -25.5 -37t-52.5 -12h-86v291q-68 23 -94 58.5t-26 99.5v2zM489 1274q0 74 37 113.5t111 39.5h16q74 0 114 -37.5t40 -115.5v-55q0 -109 -8 -201t-25 -146q-10 -25 -27.5 -37 t-52.5 -12h-86v291q-66 23 -92.5 58.5t-26.5 99.5v2z" />
<glyph unicode="&#x201e;" horiz-adv-x="892" d="M70 90q0 74 37.5 114t111.5 40h17q150 0 149 -154v-55q0 -109 -7 -201t-26 -145q-8 -25 -25.5 -37t-52.5 -12h-84v290q-68 23 -94 59t-26 99v2zM489 90q0 74 37 114t111 40h16q152 0 152 -154v-55q0 -109 -8.5 -201t-24.5 -145q-10 -25 -27.5 -37t-52.5 -12h-84v290 q-66 23 -92.5 59t-26.5 99v2z" />
<glyph unicode="&#x2022;" horiz-adv-x="772" d="M686 674q0 -145 -72.5 -205.5t-214.5 -60.5h-26q-141 0 -214 60t-73 206v51q0 145 72.5 205.5t214.5 60.5h26q141 0 214 -60.5t73 -205.5v-51z" />
<glyph unicode="&#x2026;" horiz-adv-x="1464" d="M399 113q0 -78 -36.5 -110t-110.5 -32h-16q-74 0 -112 32t-38 110v24q0 78 38 110t112 32h16q74 0 110.5 -32t36.5 -110v-24zM889 113q0 -78 -38 -110t-112 -32h-14q-74 0 -112 32t-38 110v24q0 78 38 110t112 32h14q74 0 112 -32t38 -110v-24zM1378 113 q0 -78 -37.5 -110t-111.5 -32h-17q-74 0 -110.5 32t-36.5 110v24q0 78 37 110t110 32h17q74 0 111.5 -32t37.5 -110v-24z" />
<glyph unicode="&#x202f;" horiz-adv-x="415" />
<glyph unicode="&#x2039;" horiz-adv-x="681" d="M74 535q0 39 19.5 68.5t53.5 68.5l304 329l137 -114l-240 -352l240 -353l-137 -114l-304 329q-35 39 -54 69t-19 69z" />
<glyph unicode="&#x203a;" horiz-adv-x="681" d="M608 535q0 -39 -19.5 -69t-53.5 -69l-304 -329l-137 114l240 353l-240 352l137 114l304 -329q35 -39 54 -68.5t19 -68.5z" />
<glyph unicode="&#x205f;" horiz-adv-x="520" />
<glyph unicode="&#x20ac;" horiz-adv-x="1345" d="M256 614q-2 20 -2 42v44v17h-145v141l153 21q12 125 56 226t119 173t181.5 110.5t243.5 38.5q80 0 163 -10t140 -28q33 -10 45.5 -25.5t12.5 -48.5v-283h-215q-14 25 -24.5 74t-14.5 90q-18 2 -48 3t-55 1q-141 0 -208.5 -82t-84.5 -239h334v-162h-342v-10v-48 q0 -23 2 -45h340v-159h-321q14 -53 34.5 -94.5t51.5 -69.5q88 -84 280 -84h252v-201q-74 -16 -155.5 -25.5t-159.5 -9.5q-276 0 -425 125t-192 359h-163v139z" />
<glyph unicode="&#x2122;" horiz-adv-x="1601" d="M1544 1401v-119h-69v-442h67v-119h-297v119h68v223l-107 -166h-96q-23 0 -33 6t-20 23l-84 145v-231h63v-119h-284v119h67v442h-69v119h135q33 0 50 -10.5t34 -38.5l178 -310l180 310q16 29 33.5 39t52.5 10h131zM629 1401q33 0 45 -6t12 -33v-193h-131q-2 10 -5 49 l-5 64h-90v-442h69v-119h-319v119h67v442h-88q-4 -27 -7 -64.5t-5 -48.5h-129v193q0 27 11.5 33t45.5 6h529z" />
<glyph unicode="&#xe000;" horiz-adv-x="1010" d="M0 1010h1010v-1010h-1010v1010z" />
<glyph unicode="&#xfb01;" horiz-adv-x="1320" d="M475 813v-813h-285v813h-172v178l172 10v160q0 94 20.5 157.5t61.5 108.5q41 43 106.5 68t168.5 25q49 0 110.5 -4.5t108.5 -12.5v-198h-92q-72 0 -108 -6.5t-58 -26.5q-18 -16 -25.5 -44t-7.5 -81v-143h557q49 0 78 -9.5t44 -28t19.5 -45t4.5 -61.5v-860h-285v813h-418z M1196 1327q0 -76 -38 -107.5t-111 -31.5h-15q-76 0 -112.5 31.5t-36.5 107.5v27q0 76 36.5 107.5t112.5 31.5h15q74 0 111.5 -31.5t37.5 -107.5v-27z" />
<glyph unicode="&#xfb02;" horiz-adv-x="1288" d="M1155 0h-285v1305h-196q-72 0 -109 -6.5t-59 -26.5q-16 -16 -24.5 -44t-8.5 -81v-143h240v-191h-240v-813h-285v813h-170v178l170 10v152q0 94 21.5 156.5t64.5 107.5q53 55 147.5 79t248.5 24q94 0 182 -4.5t166 -12.5q39 -4 65.5 -11t42 -22.5t22.5 -42t7 -69.5v-1358z " />
<glyph unicode="&#xfb03;" horiz-adv-x="2050" d="M1915 0h-285v813h-135v178q31 4 66 7l68 7q34 3 65 5t53 2q98 0 133 -36t35 -118v-858zM1915 1311q0 -76 -38 -108t-112 -32h-14q-76 0 -112.5 32t-36.5 108v26q0 76 36.5 109t112.5 33h14q74 0 112 -33t38 -109v-26zM1438 1004v-191h-240v-813h-285v813h-170v168l170 25 v135q0 94 20.5 157.5t63.5 108.5q41 43 105.5 67.5t169.5 24.5q55 0 119.5 -5t111.5 -11v-199h-104q-72 0 -109 -6t-59 -27q-16 -16 -24.5 -43.5t-8.5 -81.5v-122h240zM715 1004v-191h-240v-813h-285v813h-170v168l170 25v135q0 94 20.5 157.5t63.5 108.5q41 43 105.5 67.5 t169.5 24.5q55 0 119.5 -5t111.5 -11v-199h-104q-72 0 -109 -6t-59 -27q-16 -16 -24.5 -43.5t-8.5 -81.5v-122h240z" />
<glyph unicode="&#xfb04;" horiz-adv-x="2009" d="M1878 0h-285v1284h-135v178q31 4 66 7l68 7q34 3 65 5t53 2q98 0 133 -36t35 -118v-1329zM1438 1004v-191h-240v-813h-285v813h-170v168l170 25v135q0 94 20.5 157.5t63.5 108.5q41 43 105.5 67.5t169.5 24.5q55 0 119.5 -5t111.5 -11v-199h-104q-72 0 -109 -6t-59 -27 q-16 -16 -24.5 -43.5t-8.5 -81.5v-122h240zM715 1004v-191h-240v-813h-285v813h-170v168l170 25v135q0 94 20.5 157.5t63.5 108.5q41 43 105.5 67.5t169.5 24.5q55 0 119.5 -5t111.5 -11v-199h-104q-72 0 -109 -6t-59 -27q-16 -16 -24.5 -43.5t-8.5 -81.5v-122h240z" />
<glyph d="M618 1561l-432 290l105 146q41 59 102 4l332 -309z" />
<glyph d="M186 1692l332 309q61 55 103 -4l104 -146l-432 -290z" />
<glyph d="M385 1761q0 -72 -37 -104.5t-108 -32.5h-13q-72 0 -107.5 33t-35.5 104v23q0 74 36 105.5t107 31.5h13q72 0 108.5 -31.5t36.5 -105.5v-23zM827 1761q0 -72 -35.5 -104.5t-107.5 -32.5h-12q-70 0 -108 33t-38 104v23q0 74 38 105.5t108 31.5h12q72 0 107.5 -31.5 t35.5 -105.5v-23z" />
<glyph d="M825 1673l-106 -108l-262 209l-262 -209l-107 108l209 242q31 37 57.5 51t79.5 14h45q53 0 80 -14t57 -51z" />
<glyph d="M846 1911q0 -141 -59.5 -217t-165.5 -76q-47 0 -89.5 14.5t-80.5 30.5l-75 31q-36 14 -69 14q-70 0 -88 -98l-151 22q0 141 59 217t166 76q47 0 89 -14.5t81 -30.5l75 -31q36 -14 68 -14q70 0 88 98z" />
<glyph d="M461 1714q55 0 81.5 24.5t26.5 86.5v8q0 66 -26.5 87.5t-81.5 21.5h-6q-57 0 -85 -22t-28 -87v-8q0 -61 27.5 -86t85.5 -25h6zM465 2083q123 0 189.5 -55.5t66.5 -182.5v-28q0 -125 -66.5 -181.5t-189.5 -56.5h-14q-125 0 -191.5 56.5t-66.5 181.5v28q0 127 66.5 182.5 t191.5 55.5h14z" />
</font>
</defs>
</svg>
